<svg width="9" height="5" viewBox="0 0 9 5" fill="none" xmlns="http://www.w3.org/2000/svg">
<path d="M0.502624 0.00204298C0.568391 0.00166292 0.633587 0.0142628 0.694472 0.0391205C0.755357 0.0639782 0.810734 0.100605 0.857428 0.1469L4.50043 3.79329L8.14343 0.146901C8.23753 0.052842 8.36515 6.16246e-08 8.49823 7.32586e-08C8.63131 8.48926e-08 8.75894 0.0528421 8.85304 0.146901C8.94714 0.24096 9 0.36853 9 0.50155C9 0.634569 8.94714 0.76214 8.85304 0.856199L4.85523 4.85225C4.80878 4.89906 4.75351 4.93622 4.69261 4.96158C4.63171 4.98694 4.5664 5 4.50043 5C4.43446 5 4.36914 4.98694 4.30824 4.96158C4.24735 4.93622 4.19208 4.89906 4.14562 4.85225L0.147819 0.856198C0.10098 0.809762 0.0638029 0.754517 0.0384325 0.693647C0.0130621 0.632778 5.39879e-07 0.56749 5.45644e-07 0.501549C5.51408e-07 0.435608 0.0130621 0.37032 0.0384325 0.309451C0.063803 0.248581 0.100981 0.193336 0.147819 0.1469C0.194513 0.100605 0.24989 0.0639782 0.310775 0.0391204C0.371661 0.0142627 0.436856 0.00166291 0.502624 0.00204298Z" fill="#FFFFFF"/>
</svg>
