<svg width="20" height="20" viewBox="0 0 20 20" fill="none" xmlns="http://www.w3.org/2000/svg">
<g clip-path="url(#clip0_365_21)">
<path d="M19.9996 10.2292C19.9996 9.54946 19.9434 8.86601 19.8234 8.19727H10.2002V12.0481H15.711C15.4823 13.29 14.7475 14.3887 13.6716 15.0868V17.5855H16.9593C18.89 15.8438 19.9996 13.2717 19.9996 10.2292Z" fill="#4285F4"/>
<path d="M10.2002 19.9998C12.9518 19.9998 15.2723 19.1143 16.963 17.5857L13.6753 15.0871C12.7606 15.697 11.5797 16.0424 10.2039 16.0424C7.54224 16.0424 5.28544 14.2824 4.4757 11.916H1.08301V14.4918C2.81497 17.8686 6.34261 19.9998 10.2002 19.9998V19.9998Z" fill="#34A853"/>
<path d="M4.47227 11.9163C4.04491 10.6743 4.04491 9.32947 4.47227 8.0875V5.51172H1.08333C-0.363715 8.33737 -0.363715 11.6664 1.08333 14.4921L4.47227 11.9163V11.9163Z" fill="#FBBC04"/>
<path d="M10.2002 3.95707C11.6547 3.93503 13.0605 4.4715 14.1139 5.45625L17.0268 2.6012C15.1824 0.903611 12.7344 -0.0296982 10.2002 -0.000302674C6.34261 -0.000302674 2.81497 2.13087 1.08301 5.51136L4.47195 8.08715C5.27795 5.71713 7.53849 3.95707 10.2002 3.95707V3.95707Z" fill="#EA4335"/>
</g>
<defs>
<clipPath id="clip0_365_21">
<rect width="20" height="20" fill="white"/>
</clipPath>
</defs>
</svg>
