<svg width="1440" height="828" viewBox="0 0 1440 828" fill="none" xmlns="http://www.w3.org/2000/svg">
<path d="M1439.91 0H0V828H1439.91V0Z" fill="#110D25"/>
<path d="M1439.91 0H0V744.993C44.0972 727.605 89.5444 716.22 135.622 710.32C236.325 697.176 339.009 707.836 437.373 730.399C440.432 731.124 443.492 731.848 446.552 732.469C551.666 757.309 655.069 793.534 759.372 827.896H1439.91V0Z" fill="#110D25"/>
<path d="M430.533 601.335C433.413 602.163 436.293 603.094 439.083 603.922C615.651 658.26 788.891 742.095 973.199 786.703C1129.97 824.584 1287.73 816.926 1439.91 776.147V0H0V595.022C47.0671 576.806 95.844 566.352 144.981 563.04C241.545 556.209 338.109 573.597 430.533 601.335Z" fill="#130F27"/>
<path d="M0 0V444.429C50.0369 425.385 102.144 416.173 154.25 415.759C246.765 414.931 337.119 439.254 423.603 472.167C426.303 473.202 428.913 474.237 431.613 475.272C596.843 539.442 760.722 626.485 937.741 674.095C1105.76 719.325 1276.39 709.699 1439.82 661.054V0H0Z" fill="#151129"/>
<path d="M163.61 268.479C251.984 274.689 336.309 304.911 416.764 343.103C419.284 344.241 421.714 345.483 424.233 346.622C578.124 420.728 732.644 510.669 902.374 561.591C1081.28 615.204 1265.41 603.819 1439.91 546.273V0H0V293.112C53.0967 272.826 108.533 264.65 163.61 268.479Z" fill="#17132B"/>
<path d="M1439.91 0H0V141.07C56.0665 119.439 114.923 112.608 172.969 121.198C257.204 133.722 335.409 170.568 409.924 213.934C412.264 215.28 414.514 216.625 416.854 217.971C559.405 301.909 704.566 394.852 867.096 448.983C1056.53 512.118 1254.79 499.698 1440 431.802V0H1439.91Z" fill="#19152D"/>
<path d="M409.384 89.3205C540.596 183.195 676.397 278.725 831.638 336.375C1019.37 406.134 1219.78 399.303 1405.71 330.89C1417.23 326.646 1428.57 322.195 1440 317.538V0H259.273C309.67 22.0455 357.097 52.371 402.994 84.87C405.154 86.319 407.224 87.8715 409.384 89.3205Z" fill="#1B172F"/>
<path d="M1439.91 0H448.172C554.455 88.803 667.308 170.258 796.27 223.767C968.879 295.389 1156.25 301.082 1331.74 245.606C1368.45 234.014 1404.72 219.524 1440 202.446V0H1439.91Z" fill="#1D1931"/>
<path d="M1257.67 160.218C1300.15 149.247 1341.91 134.032 1382.4 114.885C1401.93 105.673 1421.1 95.427 1439.91 84.3525V0H579.023C635.63 43.1595 695.746 80.937 760.902 111.159C918.302 184.333 1092.71 202.963 1257.67 160.218Z" fill="#1F1B33"/>
<path d="M1183.7 74.934C1251.46 61.893 1317.7 36.5355 1378.8 0H728.145C870.066 73.485 1030.17 104.535 1183.7 74.934Z" fill="#211D35"/>
</svg>
