<svg width="320" height="698" viewBox="0 0 320 698" fill="none" xmlns="http://www.w3.org/2000/svg">
<path d="M102.994 311.282C112.557 305.522 125 308.586 130.761 318.187C136.521 327.75 133.456 340.193 123.856 345.954C114.292 351.714 101.849 348.649 96.0888 339.049C90.3287 329.522 93.4303 317.079 102.994 311.282Z" fill="#FCC9A7"/>
<path d="M125.925 312.721C125.26 312.204 89.7396 270.479 89.7396 270.479L75.2285 288.055L107.279 328.635L125.925 312.721Z" fill="#FCC9A7"/>
<path d="M95.9791 638.021L86.9327 679.339L58.3535 675.056L67.5845 634.292L95.9791 638.021Z" fill="#FCC9A7"/>
<path d="M224.105 634.329L224.437 676.644L195.674 678.786L195.6 636.988L224.105 634.329Z" fill="#FCC9A7"/>
<path d="M90.5507 672.621C89.9599 670.886 87.8552 670.147 86.3413 671.255C83.3874 673.396 78.1811 675.907 70.6486 675.021C62.8207 674.098 60.0146 669.963 59.0546 667.009C58.5377 665.458 56.8761 664.645 55.3622 665.236L6.88093 684.658C3.92701 685.84 1.5638 688.129 0.345303 691.046C-0.836266 693.779 1.15774 696.843 4.14859 696.843L86.5261 697.434C89.7754 697.471 92.36 694.776 92.2123 691.526L91.5107 675.612C91.5107 675.353 91.437 675.095 91.3631 674.837L90.5507 672.621Z" fill="url(#paint0_linear_365_52)"/>
<path d="M192.756 672.621C193.347 670.886 195.489 670.147 196.966 671.255C199.92 673.396 205.126 675.907 212.658 675.021C220.486 674.098 223.256 669.963 224.253 667.009C224.77 665.458 226.431 664.645 227.945 665.236L276.426 684.658C279.38 685.84 281.743 688.129 282.962 691.046C284.143 693.779 282.149 696.843 279.159 696.843L196.781 697.434C193.532 697.471 190.947 694.776 191.095 691.526L191.796 675.612C191.796 675.353 191.87 675.095 191.944 674.837L192.756 672.621Z" fill="url(#paint1_linear_365_52)"/>
<path d="M185.37 120.274H178.023C170.416 120.274 164.25 114.107 164.25 106.501V78.8818H199.106V106.501C199.143 114.107 192.977 120.274 185.37 120.274Z" fill="#FCC9A7"/>
<path d="M164.25 92.9491C164.25 92.9491 169.678 103.842 182.01 103.842C194.343 103.842 199.106 92.7275 199.106 92.7275L164.25 92.9491Z" fill="#F4BE9A"/>
<path d="M182.085 97.4529H180.94C163.179 97.4529 148.557 83.4218 147.856 65.6613L147.228 47.9747C146.49 29.1804 161.518 13.5615 180.312 13.5615H182.712C196.928 13.5615 216.534 29.1804 215.796 47.9747L215.168 65.6613C214.467 83.4218 199.845 97.4529 182.085 97.4529Z" fill="#FCC9A7"/>
<path d="M158.012 61.3807C158.418 67.3624 153.913 72.5318 147.931 72.9379C141.95 73.3441 136.78 68.8394 136.374 62.8577C135.968 56.876 140.473 51.7066 146.454 51.3005C152.436 50.9312 157.605 55.436 158.012 61.3807Z" fill="#FCC9A7"/>
<path d="M226.616 61.3807C227.022 67.3624 222.517 72.5318 216.536 72.9379C210.554 73.3441 205.385 68.8394 204.979 62.8577C204.572 56.876 209.077 51.7066 215.059 51.3005C221.041 50.9312 226.21 55.436 226.616 61.3807Z" fill="#FCC9A7"/>
<path d="M126.107 291.268L58.5732 650.28L97.3804 649.911L196.115 291.969L126.107 291.268Z" fill="#2F2B44"/>
<path d="M234.704 292.042L230.458 650.648H189.435L173.078 294.294L234.704 292.042Z" fill="#2F2B44"/>
<path d="M145.345 27.8895L147.893 55.0656H151.991L152.508 40.8129C152.508 40.8129 154.65 35.3482 164.213 23.6063C164.213 23.6063 170.453 39.5575 209.112 36.4559L211.365 54.4748L215.353 54.0317L217.457 34.6836C218.86 28.148 219.34 22.0555 218.159 15.4831C215.759 2.19041 204.94 -5.15747 173.702 4.22123C171.118 4.99664 176.398 4.4797 173.702 4.22123C164.767 3.22428 141.209 3.11351 145.345 27.8895Z" fill="url(#paint2_linear_365_52)"/>
<path d="M191.354 301.146L182.566 395.155C182.234 398.699 184.634 401.912 188.141 402.576L295.96 423.18C299.91 423.955 303.677 421.149 304.12 417.161L313.979 327.805C314.348 324.334 312.095 321.122 308.661 320.31L199.773 295.053C195.711 294.093 191.76 296.974 191.354 301.146Z" fill="#7B7790"/>
<path d="M197.335 302.808L188.547 396.817C188.215 400.361 190.615 403.574 194.123 404.238L301.941 424.842C305.892 425.58 309.658 422.811 310.101 418.823L319.96 329.467C320.329 325.996 318.077 322.784 314.643 321.972L205.754 296.716C201.729 295.756 197.741 298.636 197.335 302.808Z" fill="#86829B"/>
<path d="M267.896 404.958C267.822 404.109 264.351 347.763 264.351 347.763L245.188 351.234L247.735 399.272L267.896 404.958Z" fill="#FCC9A7"/>
<path d="M192.386 103.842L166.798 106.057L126.108 128.987V292.044H234.701V128.987L192.386 103.842Z" fill="url(#paint3_linear_365_52)"/>
<path d="M126.107 128.989C126.107 128.989 35.4216 183.71 13.3779 221.668C9.05781 229.09 14.6702 238.69 22.2765 242.641C30.6952 247.035 41.0709 244.044 45.908 235.884L129.799 187.218C129.836 187.218 126.107 145.42 126.107 128.989Z" fill="url(#paint4_linear_365_52)"/>
<path d="M234.702 128.989C234.702 128.989 263.724 149.777 265.571 179.39L274.654 248.623C275.171 252.685 275.392 256.746 275.245 260.845L271.737 366.152H231.896L231.157 252.168L234.702 128.989Z" fill="url(#paint5_linear_365_52)"/>
<path d="M58.0559 208.004L112.26 294.628L86.5611 318.961L13.5255 233.703L58.0559 208.004Z" fill="url(#paint6_linear_365_52)"/>
<path d="M253.458 387.086C264.166 390.261 270.295 401.523 267.12 412.231C263.944 422.939 252.682 429.068 241.974 425.93C231.267 422.754 225.137 411.493 228.276 400.785C231.488 390.04 242.713 383.91 253.458 387.086Z" fill="#FCC9A7"/>
<path d="M231.12 290.898V252.127L222.11 181.418" stroke="#424647" stroke-width="0.7693" stroke-miterlimit="10" stroke-linecap="round" stroke-linejoin="round"/>
<path d="M169.863 103.842C166.761 106.094 151.807 114.513 151.807 114.513C151.807 114.513 152.213 135.56 183.894 133.861C211.771 132.384 211.587 115.288 211.587 115.288L192.349 103.842H169.863Z" fill="#FCC9A7"/>
<defs>
<linearGradient id="paint0_linear_365_52" x1="46.1092" y1="665.043" x2="46.1092" y2="697.434" gradientUnits="userSpaceOnUse">
<stop stop-color="#00D4C3"/>
<stop offset="1" stop-color="#009AD2"/>
</linearGradient>
<linearGradient id="paint1_linear_365_52" x1="237.198" y1="665.043" x2="237.198" y2="697.434" gradientUnits="userSpaceOnUse">
<stop stop-color="#00D4C3"/>
<stop offset="1" stop-color="#009AD2"/>
</linearGradient>
<linearGradient id="paint2_linear_365_52" x1="181.845" y1="0" x2="181.845" y2="55.0656" gradientUnits="userSpaceOnUse">
<stop stop-color="#00D4C3"/>
<stop offset="1" stop-color="#009AD2"/>
</linearGradient>
<linearGradient id="paint3_linear_365_52" x1="143.582" y1="103.842" x2="143.582" y2="366.152" gradientUnits="userSpaceOnUse">
<stop stop-color="#00D4C3"/>
<stop offset="1" stop-color="#009AD2"/>
</linearGradient>
<linearGradient id="paint4_linear_365_52" x1="143.582" y1="103.842" x2="143.582" y2="366.152" gradientUnits="userSpaceOnUse">
<stop stop-color="#00D4C3"/>
<stop offset="1" stop-color="#009AD2"/>
</linearGradient>
<linearGradient id="paint5_linear_365_52" x1="143.582" y1="103.842" x2="143.582" y2="366.152" gradientUnits="userSpaceOnUse">
<stop stop-color="#00D4C3"/>
<stop offset="1" stop-color="#009AD2"/>
</linearGradient>
<linearGradient id="paint6_linear_365_52" x1="143.582" y1="103.842" x2="143.582" y2="366.152" gradientUnits="userSpaceOnUse">
<stop stop-color="#00D4C3"/>
<stop offset="1" stop-color="#009AD2"/>
</linearGradient>
</defs>
</svg>
