<svg width="320" height="698" viewBox="0 0 320 698" fill="none" xmlns="http://www.w3.org/2000/svg">
<path d="M102.995 311.282C112.558 305.522 125.001 308.586 130.762 318.187C136.522 327.75 133.457 340.193 123.857 345.954C114.293 351.714 101.85 348.649 96.0898 339.049C90.3297 329.522 93.4313 317.079 102.995 311.282Z" fill="#FCC9A7"/>
<path d="M125.925 312.721C125.26 312.204 89.7396 270.479 89.7396 270.479L75.2285 288.055L107.279 328.635L125.925 312.721Z" fill="#FCC9A7"/>
<path d="M95.9791 638.021L86.9327 679.339L58.3535 675.056L67.5845 634.292L95.9791 638.021Z" fill="#FCC9A7"/>
<path d="M224.105 634.329L224.437 676.644L195.674 678.786L195.6 636.988L224.105 634.329Z" fill="#FCC9A7"/>
<path d="M90.5507 672.621C89.9599 670.886 87.8552 670.147 86.3413 671.255C83.3874 673.396 78.1811 675.907 70.6486 675.021C62.8207 674.098 60.0146 669.963 59.0546 667.009C58.5377 665.458 56.8761 664.645 55.3622 665.236L6.88093 684.658C3.927 685.84 1.5638 688.129 0.345303 691.046C-0.836266 693.779 1.15774 696.843 4.14859 696.843L86.5261 697.434C89.7754 697.471 92.36 694.776 92.2123 691.526L91.5107 675.612C91.5107 675.353 91.437 675.095 91.3631 674.837L90.5507 672.621Z" fill="#00D4C3"/>
<path d="M192.755 672.621C193.346 670.886 195.488 670.147 196.965 671.255C199.919 673.396 205.125 675.907 212.657 675.021C220.485 674.098 223.255 669.963 224.252 667.009C224.769 665.458 226.43 664.645 227.944 665.236L276.425 684.658C279.379 685.84 281.742 688.129 282.961 691.046C284.142 693.779 282.148 696.843 279.158 696.843L196.78 697.434C193.531 697.471 190.946 694.776 191.094 691.526L191.795 675.612C191.795 675.353 191.869 675.095 191.943 674.837L192.755 672.621Z" fill="#00D4C3"/>
<path d="M185.37 120.274H178.023C170.416 120.274 164.25 114.107 164.25 106.501V78.8818H199.106V106.501C199.143 114.107 192.977 120.274 185.37 120.274Z" fill="#FCC9A7"/>
<path d="M164.25 92.9491C164.25 92.9491 169.678 103.842 182.01 103.842C194.343 103.842 199.106 92.7275 199.106 92.7275L164.25 92.9491Z" fill="#F4BE9A"/>
<path d="M182.086 97.4529H180.941C163.18 97.4529 148.558 83.4218 147.857 65.6613L147.229 47.9747C146.491 29.1804 161.519 13.5615 180.313 13.5615H182.713C196.929 13.5615 216.535 29.1804 215.797 47.9747L215.169 65.6613C214.468 83.4218 199.846 97.4529 182.086 97.4529Z" fill="#FCC9A7"/>
<path d="M158.012 61.3807C158.419 67.3624 153.914 72.5318 147.932 72.9379C141.951 73.3441 136.781 68.8394 136.375 62.8577C135.969 56.876 140.474 51.7066 146.455 51.3005C152.437 50.9312 157.606 55.436 158.012 61.3807Z" fill="#FCC9A7"/>
<path d="M226.616 61.3807C227.022 67.3624 222.517 72.5318 216.536 72.9379C210.554 73.3441 205.385 68.8394 204.979 62.8577C204.572 56.876 209.077 51.7066 215.059 51.3005C221.041 50.9312 226.21 55.436 226.616 61.3807Z" fill="#FCC9A7"/>
<path d="M126.108 291.268L58.5742 650.28L97.3814 649.911L196.116 291.969L126.108 291.268Z" fill="#2F2B44"/>
<path d="M234.704 292.042L230.458 650.648H189.435L173.078 294.294L234.704 292.042Z" fill="#2F2B44"/>
<path d="M145.344 27.8895L147.892 55.0656H151.99L152.507 40.8129C152.507 40.8129 154.649 35.3482 164.212 23.6063C164.212 23.6063 170.452 39.5575 209.111 36.4559L211.364 54.4748L215.352 54.0317L217.456 34.6836C218.859 28.148 219.339 22.0555 218.158 15.4831C215.758 2.19041 204.939 -5.15747 173.701 4.22123C171.117 4.99664 176.397 4.4797 173.701 4.22123C164.766 3.22428 141.208 3.11351 145.344 27.8895Z" fill="#00D4C3"/>
<path d="M191.354 301.146L182.566 395.155C182.234 398.699 184.634 401.912 188.141 402.576L295.96 423.18C299.91 423.955 303.677 421.149 304.12 417.161L313.979 327.805C314.348 324.334 312.095 321.122 308.661 320.31L199.773 295.053C195.711 294.093 191.76 296.974 191.354 301.146Z" fill="#7B7790"/>
<path d="M197.336 302.808L188.548 396.817C188.216 400.361 190.616 403.574 194.124 404.238L301.942 424.842C305.893 425.58 309.659 422.811 310.102 418.823L319.961 329.467C320.33 325.996 318.078 322.784 314.644 321.972L205.755 296.716C201.73 295.756 197.742 298.636 197.336 302.808Z" fill="#86829B"/>
<path d="M267.896 404.958C267.822 404.109 264.351 347.763 264.351 347.763L245.188 351.234L247.735 399.272L267.896 404.958Z" fill="#FCC9A7"/>
<path d="M192.387 103.842L166.799 106.057L126.109 128.987V292.044H234.702V128.987L192.387 103.842Z" fill="#00D4C3"/>
<path d="M126.108 128.989C126.108 128.989 35.4225 183.71 13.3789 221.668C9.05879 229.09 14.6711 238.69 22.2775 242.641C30.6962 247.035 41.0719 244.044 45.909 235.884L129.8 187.218C129.837 187.218 126.108 145.42 126.108 128.989Z" fill="#00D4C3"/>
<path d="M234.703 128.989C234.703 128.989 263.725 149.777 265.572 179.39L274.655 248.623C275.172 252.685 275.393 256.746 275.246 260.845L271.738 366.152H231.897L231.158 252.168L234.703 128.989Z" fill="#00D4C3"/>
<path d="M58.0569 208.004L112.261 294.628L86.5621 318.961L13.5265 233.703L58.0569 208.004Z" fill="#00D4C3"/>
<path d="M253.457 387.086C264.165 390.261 270.294 401.523 267.119 412.231C263.943 422.939 252.681 429.068 241.974 425.93C231.266 422.754 225.136 411.493 228.275 400.785C231.487 390.04 242.712 383.91 253.457 387.086Z" fill="#FCC9A7"/>
<path d="M231.119 290.898V252.127L222.109 181.418" stroke="#424647" stroke-width="0.7693" stroke-miterlimit="10" stroke-linecap="round" stroke-linejoin="round"/>
<path d="M169.863 103.842C166.761 106.094 151.807 114.513 151.807 114.513C151.807 114.513 152.213 135.56 183.894 133.861C211.771 132.384 211.587 115.288 211.587 115.288L192.349 103.842H169.863Z" fill="#FCC9A7"/>
</svg>
