<svg width="18" height="24" viewBox="0 0 18 24" fill="none" xmlns="http://www.w3.org/2000/svg">
<path d="M14 9.69767C14 9.16302 14 6.65093 14 6.11628C14 3.29056 11.7615 1 9 1C6.2385 1 4 3.29056 4 6.11628C4 6.65093 4 9.16302 4 9.69767M2 23C1.448 23 1 22.5416 1 21.9767V10.7209C1 10.1561 1.448 9.69767 2 9.69767H16C16.552 9.69767 17 10.1561 17 10.7209V21.9767C17 22.5416 16.552 23 16 23H2Z" stroke="url(#paint0_linear_504_41)" stroke-miterlimit="10" stroke-linecap="round"/>
<path d="M8.16667 15.6554V15.4402L8.01038 15.2923C7.69979 14.9983 7.5 14.5762 7.5 14.1C7.5 13.193 8.19418 12.5 9 12.5C9.80582 12.5 10.5 13.193 10.5 14.1C10.5 14.5762 10.3002 14.9983 9.98962 15.2923L9.83333 15.4402V15.6554V17.6C9.83333 18.1199 9.43715 18.5 9 18.5C8.56285 18.5 8.16667 18.1199 8.16667 17.6V15.6554Z" stroke="url(#paint1_linear_504_41)"/>
<defs>
<linearGradient id="paint0_linear_504_41" x1="9" y1="1" x2="9" y2="23" gradientUnits="userSpaceOnUse">
<stop stop-color="#00D4C3"/>
<stop offset="1" stop-color="#009AD2"/>
</linearGradient>
<linearGradient id="paint1_linear_504_41" x1="9" y1="12" x2="9" y2="19" gradientUnits="userSpaceOnUse">
<stop stop-color="#00D4C3"/>
<stop offset="1" stop-color="#009AD2"/>
</linearGradient>
</defs>
</svg>
