<svg width="20" height="20" viewBox="0 0 20 20" fill="none" xmlns="http://www.w3.org/2000/svg">
<path d="M10 19.375C9.86477 19.375 9.73318 19.3312 9.625 19.25L7.125 17.375C7.04738 17.3168 6.98438 17.2413 6.94098 17.1545C6.89759 17.0677 6.875 16.972 6.875 16.875V10.9188C5.8716 10.2483 5.1104 9.273 4.70384 8.13678C4.29728 7.00055 4.2669 5.7637 4.6172 4.6089C4.96749 3.45409 5.67989 2.44255 6.64917 1.72367C7.61845 1.0048 8.79323 0.616699 10 0.616699C11.2068 0.616699 12.3815 1.0048 13.3508 1.72367C14.3201 2.44255 15.0325 3.45409 15.3828 4.6089C15.7331 5.7637 15.7027 7.00055 15.2962 8.13678C14.8896 9.273 14.1284 10.2483 13.125 10.9188V11.875C13.1255 11.9573 13.1097 12.0388 13.0786 12.115C13.0475 12.1911 13.0017 12.2604 12.9437 12.3188L12.1312 13.125L12.9437 13.9313C13.0023 13.9894 13.0488 14.0585 13.0806 14.1347C13.1123 14.2108 13.1286 14.2925 13.1286 14.375C13.1286 14.4575 13.1123 14.5392 13.0806 14.6154C13.0488 14.6915 13.0023 14.7607 12.9437 14.8188L12.1312 15.625L12.9437 16.4313C13.0072 16.4948 13.0562 16.5712 13.0875 16.6553C13.1188 16.7394 13.1316 16.8293 13.125 16.9188C13.1185 17.0083 13.0929 17.0954 13.0497 17.1741C13.0066 17.2529 12.947 17.3214 12.875 17.375L10.375 19.25C10.2668 19.3312 10.1352 19.375 10 19.375ZM8.125 16.5625L10 17.9688L11.55 16.8063L10.8063 16.0688C10.7477 16.0107 10.7012 15.9415 10.6694 15.8654C10.6377 15.7892 10.6214 15.7075 10.6214 15.625C10.6214 15.5425 10.6377 15.4608 10.6694 15.3847C10.7012 15.3085 10.7477 15.2394 10.8063 15.1813L11.6188 14.375L10.8063 13.5688C10.7477 13.5107 10.7012 13.4415 10.6694 13.3654C10.6377 13.2892 10.6214 13.2075 10.6214 13.125C10.6214 13.0425 10.6377 12.9608 10.6694 12.8847C10.7012 12.8085 10.7477 12.7394 10.8063 12.6813L11.875 11.6188V10.575C11.8757 10.466 11.9048 10.359 11.9597 10.2647C12.0145 10.1704 12.093 10.0921 12.1875 10.0375C13.0216 9.55598 13.6734 8.81268 14.042 7.9229C14.4105 7.03312 14.4752 6.0466 14.2259 5.11633C13.9767 4.18606 13.4274 3.36403 12.6633 2.77774C11.8993 2.19145 10.9631 1.87366 10 1.87366C9.03691 1.87366 8.10074 2.19145 7.33667 2.77774C6.5726 3.36403 6.02334 4.18606 5.77407 5.11633C5.52481 6.0466 5.58947 7.03312 5.95803 7.9229C6.32658 8.81268 6.97844 9.55598 7.8125 10.0375C7.90696 10.0921 7.98551 10.1704 8.04033 10.2647C8.09515 10.359 8.12434 10.466 8.125 10.575V16.5625Z" fill="url(#paint0_linear_395_38)"/>
<path d="M10 5.62502C10.3452 5.62502 10.625 5.3452 10.625 5.00002C10.625 4.65484 10.3452 4.37502 10 4.37502C9.65482 4.37502 9.375 4.65484 9.375 5.00002C9.375 5.3452 9.65482 5.62502 10 5.62502Z" fill="url(#paint1_linear_395_38)"/>
<path d="M10 6.25002C9.75277 6.25002 9.5111 6.17671 9.30554 6.03936C9.09998 5.90201 8.93976 5.70678 8.84515 5.47837C8.75054 5.24997 8.72579 4.99863 8.77402 4.75616C8.82225 4.51368 8.9413 4.29095 9.11612 4.11614C9.29093 3.94132 9.51366 3.82227 9.75614 3.77404C9.99861 3.72581 10.2499 3.75056 10.4784 3.84517C10.7068 3.93978 10.902 4.1 11.0393 4.30556C11.1767 4.51112 11.25 4.75279 11.25 5.00002C11.25 5.33154 11.1183 5.64948 10.8839 5.8839C10.6495 6.11832 10.3315 6.25002 10 6.25002Z" fill="url(#paint2_linear_395_38)"/>
<defs>
<linearGradient id="paint0_linear_395_38" x1="10" y1="0.616699" x2="10" y2="19.375" gradientUnits="userSpaceOnUse">
<stop stop-color="#00D4C3"/>
<stop offset="1" stop-color="#009AD2"/>
</linearGradient>
<linearGradient id="paint1_linear_395_38" x1="10" y1="0.616699" x2="10" y2="19.375" gradientUnits="userSpaceOnUse">
<stop stop-color="#00D4C3"/>
<stop offset="1" stop-color="#009AD2"/>
</linearGradient>
<linearGradient id="paint2_linear_395_38" x1="10" y1="0.616699" x2="10" y2="19.375" gradientUnits="userSpaceOnUse">
<stop stop-color="#00D4C3"/>
<stop offset="1" stop-color="#009AD2"/>
</linearGradient>
</defs>
</svg>
