<svg width="79" height="32" viewBox="0 0 79 32" fill="none" xmlns="http://www.w3.org/2000/svg">
<g clip-path="url(#clip0_213_5)">
<path d="M30.5004 11.9996H21.0004V15.4996C21.0004 17.9809 18.9817 19.9996 16.5004 19.9996C14.0192 19.9996 12.0004 17.9809 12.0004 15.4996V7.89963L7.9442 10.3371C6.73795 11.0559 6.00045 12.3621 6.00045 13.7621V16.7184L1.00045 19.6059C0.0441989 20.1559 -0.287051 21.3809 0.269199 22.3371L5.2692 30.9996C5.8192 31.9559 7.0442 32.2809 8.00045 31.7309L14.4629 27.9996H23.0004C25.2067 27.9996 27.0004 26.2059 27.0004 23.9996H28.0004C29.1067 23.9996 30.0004 23.1059 30.0004 21.9996V17.9996H30.5004C31.3317 17.9996 32.0005 17.3309 32.0005 16.4996V13.4996C32.0005 12.6684 31.3317 11.9996 30.5004 11.9996ZM39.7317 9.66213L34.7317 0.999625C34.1817 0.0433745 32.9567 -0.281625 32.0005 0.268375L25.5379 3.99962H19.1504C18.4004 3.99962 17.6692 4.21213 17.0317 4.60588L14.9379 5.91213C14.3504 6.27463 14.0004 6.91838 14.0004 7.60588V15.4996C14.0004 16.8809 15.1192 17.9996 16.5004 17.9996C17.8817 17.9996 19.0004 16.8809 19.0004 15.4996V9.99963H30.5004C32.4317 9.99963 34.0005 11.5684 34.0005 13.4996V15.2809L39.0005 12.3934C39.9567 11.8371 40.2817 10.6184 39.7317 9.66213V9.66213Z" fill="url(#paint0_linear_213_5)"/>
</g>
<path d="M61.644 9.4C61.776 9.4 61.89 9.448 61.986 9.544C62.082 9.64 62.13 9.754 62.13 9.886V21.514C62.13 21.646 62.082 21.76 61.986 21.856C61.89 21.952 61.776 22 61.644 22H57.936C57.804 22 57.69 21.952 57.594 21.856C57.498 21.76 57.45 21.646 57.45 21.514V17.68H53.85V21.514C53.85 21.646 53.802 21.76 53.706 21.856C53.61 21.952 53.496 22 53.364 22H49.656C49.524 22 49.41 21.958 49.314 21.874C49.218 21.778 49.17 21.658 49.17 21.514V9.886C49.17 9.754 49.218 9.64 49.314 9.544C49.41 9.448 49.524 9.4 49.656 9.4H53.364C53.496 9.4 53.61 9.448 53.706 9.544C53.802 9.64 53.85 9.754 53.85 9.886V13.576H57.45V9.886C57.45 9.754 57.498 9.64 57.594 9.544C57.69 9.448 57.804 9.4 57.936 9.4H61.644ZM76.937 9.4C77.069 9.4 77.183 9.448 77.279 9.544C77.375 9.64 77.423 9.754 77.423 9.886V21.514C77.423 21.646 77.375 21.76 77.279 21.856C77.183 21.952 77.069 22 76.937 22H73.229C73.097 22 72.983 21.952 72.887 21.856C72.791 21.76 72.743 21.646 72.743 21.514V17.68H69.143V21.514C69.143 21.646 69.095 21.76 68.999 21.856C68.903 21.952 68.789 22 68.657 22H64.949C64.817 22 64.703 21.958 64.607 21.874C64.511 21.778 64.463 21.658 64.463 21.514V9.886C64.463 9.754 64.511 9.64 64.607 9.544C64.703 9.448 64.817 9.4 64.949 9.4H68.657C68.789 9.4 68.903 9.448 68.999 9.544C69.095 9.64 69.143 9.754 69.143 9.886V13.576H72.743V9.886C72.743 9.754 72.791 9.64 72.887 9.544C72.983 9.448 73.097 9.4 73.229 9.4H76.937Z" fill="url(#paint1_linear_213_5)"/>
<defs>
<linearGradient id="paint0_linear_213_5" x1="19.9991" y1="0.000976562" x2="19.9991" y2="31.9983" gradientUnits="userSpaceOnUse">
<stop stop-color="#00D4C3"/>
<stop offset="1" stop-color="#009AD2"/>
</linearGradient>
<linearGradient id="paint1_linear_213_5" x1="63.5" y1="5" x2="63.5" y2="27" gradientUnits="userSpaceOnUse">
<stop stop-color="#00D4C3"/>
<stop offset="1" stop-color="#009AD2"/>
</linearGradient>
<clipPath id="clip0_213_5">
<rect width="40" height="32" fill="white"/>
</clipPath>
</defs>
</svg>
