<svg width="16" height="11" viewBox="0 0 16 11" fill="none" xmlns="http://www.w3.org/2000/svg">
<path d="M15.5555 2.66786L7.55306 10.5391C7.25297 10.8342 6.84597 11 6.42152 11C5.99723 11 5.59023 10.8342 5.28998 10.5391L0.488607 5.81634C0.335745 5.6712 0.213821 5.4974 0.129939 5.30534C0.046058 5.11329 0.0019006 4.90675 6.00424e-05 4.69769C-0.00178051 4.48863 0.0387117 4.28146 0.119184 4.08798C0.199656 3.89451 0.318492 3.71867 0.468762 3.57085C0.619047 3.42302 0.797741 3.30622 0.99444 3.22703C1.19112 3.14785 1.40188 3.10802 1.61439 3.10991C1.8269 3.11164 2.03692 3.15509 2.23218 3.23758C2.42745 3.32007 2.60405 3.44003 2.75169 3.59037L6.41672 7.2001L13.2876 0.441902C13.5896 0.155138 13.9939 -0.00352967 14.4135 5.95945e-05C14.833 0.00364886 15.2346 0.169212 15.5313 0.461077C15.828 0.752956 15.9963 1.14779 15.9999 1.56054C16.0036 1.97331 15.8423 2.37096 15.5508 2.66786H15.5555Z" fill="white"/>
</svg>
