<svg width="48" height="33" viewBox="0 0 48 33" fill="none" xmlns="http://www.w3.org/2000/svg">
<path d="M36.3075 7.33398C33.2306 7.33398 30.3999 8.55621 28.3075 10.5118C26.2152 8.55621 23.3845 7.33398 20.3075 7.33398C13.9075 7.33398 8.61523 12.5895 8.61523 18.9451V33.0007H15.9999V17.7229C15.9999 15.4007 17.9691 13.4451 20.3075 13.4451C22.646 13.4451 24.6152 15.4007 24.6152 17.7229V33.0007H31.9999V17.7229C31.9999 15.4007 33.9691 13.4451 36.3075 13.4451C38.646 13.4451 40.6152 15.4007 40.6152 17.7229V33.0007H47.9999V18.9451C47.9999 12.5895 42.7075 7.33398 36.3075 7.33398Z" fill="#FFAB40"/>
<path d="M1.8457 7.57617H3.07647V26.8873H1.8457V7.57617Z" fill="black"/>
<path d="M22.154 3.66602C23.5079 4.1549 25.354 6.11046 25.8463 7.33268C23.6309 9.41046 22.6463 10.8771 22.154 14.666C22.0309 16.0105 21.0463 16.7438 19.6925 15.8882C15.8771 13.566 12.3079 13.4438 9.84633 13.4438C8.61556 12.2216 9.23094 8.92157 9.84633 7.33268L17.2309 8.5549L22.154 3.66602Z" fill="#424242"/>
<path d="M17.2308 8.55556H0L13.5385 0H30.7692L17.2308 8.55556Z" fill="#616161"/>
<path d="M4.30754 24.4436C4.30754 21.7547 3.446 19.5547 2.46139 19.5547C1.47677 19.5547 0.615234 21.7547 0.615234 24.4436C0.615234 27.1325 1.47677 29.3325 2.46139 29.3325C3.446 29.3325 4.30754 27.1325 4.30754 24.4436Z" fill="#424242"/>
</svg>
