<svg width="24" height="24" viewBox="0 0 24 24" fill="none" xmlns="http://www.w3.org/2000/svg">
<path d="M11.75 11.2941C14.9256 11.2941 17.5 8.76587 17.5 5.64707C17.5 2.52828 14.9256 0 11.75 0C8.57436 0 6 2.52828 6 5.64707C6 8.76587 8.57436 11.2941 11.75 11.2941Z" fill="#4F4E5B"/>
<path d="M24 21.1767V22.5884C24 22.9629 23.842 23.3219 23.5607 23.5867C23.2794 23.8515 22.8978 24.0002 22.5 24.0002H1.5C1.10218 24.0002 0.720645 23.8515 0.43934 23.5867C0.158036 23.3219 0 22.9629 0 22.5884V21.1767C0 18.9301 0.948212 16.7756 2.63604 15.187C4.32387 13.5985 6.61305 12.7061 9 12.7061H15C17.3869 12.7061 19.6761 13.5985 21.364 15.187C23.0518 16.7756 24 18.9301 24 21.1767Z" fill="#4F4E5B"/>
</svg>
