<svg width="24" height="26" viewBox="0 0 24 26" fill="none" xmlns="http://www.w3.org/2000/svg">
<path d="M22.9209 15.6L21.6361 14.8417C20.2442 13.975 20.2442 11.9167 21.6361 11.05L22.9209 10.2917C23.9916 9.64167 24.3128 8.34167 23.6704 7.36667L22.5997 5.525C21.9573 4.44167 20.6725 4.11667 19.7089 4.76667L18.4241 5.525C17.0322 6.39167 15.212 5.30833 15.212 3.68333V2.16667C15.212 0.975 14.2484 0 13.0707 0H10.9293C9.75158 0 8.78797 0.975 8.78797 2.16667V3.575C8.78797 5.2 6.96781 6.28333 5.57593 5.41667L4.29112 4.76667C3.22044 4.11667 1.93563 4.55 1.40029 5.525L0.329611 7.36667C-0.205728 8.45 0.115475 9.75 1.07909 10.4L2.3639 11.1583C3.75578 11.9167 3.75578 14.0833 2.3639 14.8417L1.07909 15.6C0.0084073 16.25 -0.312796 17.55 0.329611 18.525L1.40029 20.3667C2.0427 21.45 3.32751 21.775 4.29112 21.125L5.57593 20.475C6.96781 19.6083 8.78797 20.6917 8.78797 22.3167V23.8333C8.78797 25.025 9.75158 26 10.9293 26H13.0707C14.2484 26 15.212 25.025 15.212 23.8333V22.425C15.212 20.8 17.0322 19.7167 18.4241 20.5833L19.7089 21.3417C20.7796 21.9917 22.0644 21.5583 22.5997 20.5833L23.6704 18.7417C24.2057 17.55 23.8845 16.25 22.9209 15.6ZM12 17.3333C9.64451 17.3333 7.71729 15.3833 7.71729 13C7.71729 10.6167 9.64451 8.66667 12 8.66667C14.3555 8.66667 16.2827 10.6167 16.2827 13C16.2827 15.3833 14.3555 17.3333 12 17.3333Z" fill="#6C6880"/>
</svg>
