<svg width="80" height="80" viewBox="0 0 80 80" fill="none" xmlns="http://www.w3.org/2000/svg">
<g clip-path="url(#clip0_473_8)">
<path fill-rule="evenodd" clip-rule="evenodd" d="M73.1304 40.001C73.1304 42.108 73.796 44.1613 75.032 45.8677L77.5654 49.3677C77.8754 49.795 78.079 50.29 78.1603 50.8113C78.2413 51.333 78.1973 51.8663 78.032 52.3677C77.8653 52.8637 77.5857 53.3143 77.2157 53.6847C76.8457 54.0547 76.395 54.334 75.8987 54.501L71.799 55.8343C69.7904 56.4823 68.0397 57.7517 66.7994 59.459C65.5594 61.1667 64.8937 63.224 64.8987 65.3343V69.6677C64.8984 70.1937 64.7737 70.7123 64.5344 71.181C64.295 71.6497 63.9484 72.055 63.5224 72.3637C63.0964 72.6727 62.6037 72.8763 62.0837 72.958C61.564 73.04 61.0323 72.9973 60.532 72.8343L56.432 71.501C54.421 70.844 52.2534 70.8417 50.2407 71.4947C48.2284 72.1473 46.4747 73.4217 45.232 75.1343L42.6987 78.6343C42.3877 79.058 41.981 79.4027 41.512 79.64C41.043 79.8777 40.5247 80.0013 39.9987 80.0013C39.473 80.0013 38.9547 79.8777 38.4857 79.64C38.0167 79.4027 37.61 79.058 37.2987 78.6343L34.7654 75.1343C33.525 73.4193 31.7717 72.143 29.7584 71.49C27.7452 70.837 25.5764 70.8407 23.5655 71.501L19.4655 72.8343C18.9653 72.9973 18.4336 73.04 17.9139 72.958C17.3942 72.8763 16.9012 72.6727 16.4753 72.3637C16.0494 72.055 15.7026 71.6497 15.4634 71.181C15.2242 70.7123 15.0993 70.1937 15.0989 69.6677V65.3343C15.104 63.224 14.4384 61.1667 13.1982 59.459C11.958 57.7517 10.2073 56.4823 8.19885 55.8343L4.09885 54.501C3.60282 54.334 3.15214 54.0547 2.78205 53.6847C2.41197 53.3143 2.1325 52.8637 1.96552 52.3677C1.80022 51.8663 1.75633 51.333 1.83746 50.8113C1.9186 50.29 2.12243 49.795 2.43218 49.3677L4.96552 45.8677C6.20165 44.1613 6.86722 42.108 6.86722 40.001C6.86722 37.894 6.20165 35.8407 4.96552 34.1343L2.43218 30.6344C2.12243 30.207 1.9186 29.7122 1.83746 29.1906C1.75633 28.669 1.80022 28.1357 1.96552 27.6344C2.1325 27.1383 2.41197 26.6877 2.78205 26.3176C3.15214 25.9475 3.60282 25.668 4.09885 25.501L8.19885 24.1677C10.2073 23.5198 11.958 22.2505 13.1982 20.543C14.4384 18.8355 15.104 16.7781 15.0989 14.6677V10.3344C15.0993 9.80825 15.2242 9.28969 15.4634 8.82112C15.7026 8.35252 16.0494 7.94722 16.4753 7.63835C16.9012 7.32948 17.3942 7.12582 17.9139 7.04402C18.4336 6.96222 18.9653 7.00458 19.4655 7.16768L23.5989 8.50102C25.6055 9.15035 27.7661 9.14862 29.7717 8.49605C31.7773 7.84348 33.525 6.57352 34.7654 4.86768L37.2987 1.36769C37.6224 0.962054 38.033 0.634511 38.5004 0.409398C38.968 0.184282 39.48 0.0673828 39.9987 0.0673828C40.5177 0.0673828 41.0297 0.184282 41.4973 0.409398C41.9647 0.634511 42.3754 0.962054 42.6987 1.36769L45.232 4.86768C46.4727 6.57352 48.2204 7.84348 50.226 8.49605C52.2317 9.14862 54.3923 9.15035 56.3987 8.50102L60.532 7.16768C61.0323 7.00458 61.564 6.96222 62.0837 7.04402C62.6037 7.12582 63.0964 7.32948 63.5224 7.63835C63.9484 7.94722 64.295 8.35252 64.5344 8.82112C64.7737 9.28969 64.8984 9.80825 64.8987 10.3344V14.6677C64.8937 16.7781 65.5594 18.8355 66.7994 20.543C68.0397 22.2505 69.7904 23.5198 71.799 24.1677L75.8987 25.501C76.395 25.668 76.8457 25.9475 77.2157 26.3176C77.5857 26.6877 77.8653 27.1383 78.032 27.6344C78.1973 28.1357 78.2413 28.669 78.1603 29.1906C78.079 29.7122 77.8754 30.207 77.5654 30.6344L75.032 34.1343C73.796 35.8407 73.1304 37.894 73.1304 40.001ZM53.3204 30.0421C53.3202 30.0421 53.3205 30.0421 53.3204 30.0421ZM26.5806 36.6273C26.6081 36.6268 26.6356 36.6267 26.6631 36.627Z" fill="url(#paint0_linear_473_8)"/>
</g>
<defs>
<linearGradient id="paint0_linear_473_8" x1="39.9988" y1="0.0673828" x2="39.9988" y2="80.0013" gradientUnits="userSpaceOnUse">
<stop stop-color="#00D4C3"/>
<stop offset="1" stop-color="#009AD2"/>
</linearGradient>
<clipPath id="clip0_473_8">
<rect width="80" height="80" fill="white"/>
</clipPath>
</defs>
</svg>
