<svg width="24" height="24" viewBox="0 0 24 24" fill="none" xmlns="http://www.w3.org/2000/svg">
<path d="M24 20.4788V7.25376C24 5.31245 22.2651 3.73251 20.1312 3.73251H19.0713V3.52125C19.0713 1.57926 17.3364 0 15.2025 0H13.7736H5.58472H3.86879C1.73554 0 0 1.57926 0 3.52125V16.7462C0 18.6875 1.7356 20.2675 3.86879 20.2675H4.92859V20.4788C4.92859 22.4207 6.66419 24 8.79743 24H10.5134H18.7022H19.4384H20.1312C22.2651 24 24 22.4208 24 20.4788ZM18.7022 22.8474H10.5134H8.79743C7.35966 22.8474 6.19471 21.7869 6.19471 20.4788V20.2675V19.1148V7.25376C6.19471 5.94563 7.35966 4.88518 8.79743 4.88518H10.5134H17.8052H18.7022H19.0713H20.1312C21.5689 4.88518 22.7339 5.94563 22.7339 7.25376V20.4788C22.7339 21.7869 21.5689 22.8474 20.1312 22.8474H19.4384H18.7022Z" fill="#6C6880"/>
<path d="M8.36382 9.47317H18.4341C18.7123 9.47317 18.9376 9.24972 18.9376 8.97386C18.9376 8.69799 18.7123 8.47461 18.4341 8.47461H8.36382C8.08566 8.47461 7.86035 8.69799 7.86035 8.97386C7.86035 9.24972 8.08566 9.47317 8.36382 9.47317Z" fill="#6C6880"/>
<path d="M9.95508 12.3662C9.95508 12.6421 10.181 12.8654 10.4592 12.8654H19.8958C20.174 12.8654 20.3999 12.6421 20.3999 12.3662C20.3999 12.0903 20.174 11.8662 19.8958 11.8662H10.4592C10.181 11.8662 9.95508 12.0903 9.95508 12.3662Z" fill="#6C6880"/>
<path d="M17.7116 15.7591C17.7116 15.4832 17.4863 15.2598 17.2081 15.2598H8.36382C8.08566 15.2598 7.86035 15.4832 7.86035 15.7591C7.86035 16.0349 8.0856 16.259 8.36382 16.259H17.2081C17.4863 16.259 17.7116 16.035 17.7116 15.7591Z" fill="#6C6880"/>
<path d="M20.4 19.1516C20.4 18.8757 20.1741 18.6523 19.8959 18.6523H11.608C11.3298 18.6523 11.1045 18.8757 11.1045 19.1516C11.1045 19.4275 11.3297 19.6509 11.608 19.6509H19.8959C20.1741 19.6509 20.4 19.4275 20.4 19.1516Z" fill="#6C6880"/>
</svg>
