<svg width="32" height="32" viewBox="0 0 32 32" fill="none" xmlns="http://www.w3.org/2000/svg">
<rect width="32" height="32" fill="#2F2B44"/>
<path d="M16 16C16.923 16 17.8252 15.7361 18.5927 15.2416C19.3601 14.7471 19.9582 14.0443 20.3114 13.2221C20.6646 12.3998 20.7571 11.495 20.577 10.6221C20.3969 9.74918 19.9525 8.94736 19.2998 8.31802C18.6472 7.68869 17.8157 7.2601 16.9104 7.08647C16.0052 6.91283 15.0669 7.00195 14.2141 7.34254C13.3614 7.68314 12.6326 8.25991 12.1198 8.99994C11.607 9.73996 11.3333 10.61 11.3333 11.5C11.3333 12.6935 11.825 13.8381 12.7002 14.682C13.5753 15.5259 14.7623 16 16 16ZM16 8.28572C16.6593 8.28572 17.3037 8.47423 17.8519 8.82742C18.4001 9.18061 18.8273 9.68261 19.0796 10.2699C19.3319 10.8573 19.3979 11.5036 19.2693 12.1271C19.1407 12.7506 18.8232 13.3233 18.357 13.7728C17.8908 14.2224 17.2969 14.5285 16.6503 14.6525C16.0037 14.7765 15.3335 14.7129 14.7244 14.4696C14.1153 14.2263 13.5947 13.8143 13.2284 13.2858C12.8622 12.7572 12.6667 12.1357 12.6667 11.5C12.6667 10.6475 13.0179 9.82995 13.643 9.22716C14.2681 8.62436 15.1159 8.28572 16 8.28572Z" fill="url(#paint0_linear_400_261)"/>
<path d="M16.6667 17.2857H15.3333C13.3884 17.2857 11.5232 18.0307 10.1479 19.3569C8.77262 20.683 8 22.4817 8 24.3571C8 24.5276 8.07024 24.6912 8.19526 24.8117C8.32029 24.9323 8.48986 25 8.66667 25H23.3333C23.5101 25 23.6797 24.9323 23.8047 24.8117C23.9298 24.6912 24 24.5276 24 24.3571C24 22.4817 23.2274 20.683 21.8521 19.3569C20.4769 18.0307 18.6116 17.2857 16.6667 17.2857ZM9.37333 23.7143C9.53726 22.3004 10.2357 20.9943 11.3351 20.0456C12.4346 19.0969 13.858 18.5721 15.3333 18.5714H16.6667C18.142 18.5721 19.5654 19.0969 20.6649 20.0456C21.7643 20.9943 22.4627 22.3004 22.6267 23.7143H9.37333Z" fill="url(#paint1_linear_400_261)"/>
<defs>
<linearGradient id="paint0_linear_400_261" x1="16" y1="7" x2="16" y2="25" gradientUnits="userSpaceOnUse">
<stop stop-color="#00D4C3"/>
<stop offset="1" stop-color="#009AD2"/>
</linearGradient>
<linearGradient id="paint1_linear_400_261" x1="16" y1="7" x2="16" y2="25" gradientUnits="userSpaceOnUse">
<stop stop-color="#00D4C3"/>
<stop offset="1" stop-color="#009AD2"/>
</linearGradient>
</defs>
</svg>
