<svg width="48" height="48" viewBox="0 0 48 48" fill="none" xmlns="http://www.w3.org/2000/svg">
<path d="M22.2649 3.70295C20.5369 3.86067 19.0969 4.14181 17.6364 4.6081C12.1575 6.34981 7.65923 10.2104 5.14266 15.3258C4.02495 17.5887 3.38723 19.7212 3.0718 22.2172C2.95523 23.1635 2.95523 26.071 3.0718 27.0172C3.89466 33.5384 7.55638 39.2092 13.1038 42.5487C17.2181 45.031 22.2787 46.0664 26.8455 45.367C32.0158 44.5647 36.5621 42.055 39.8809 38.1601C42.4044 35.1978 44.1324 31.3304 44.6741 27.4287C44.8318 26.3384 44.8867 23.8012 44.7769 22.711C44.3792 18.5075 42.7404 14.5441 40.0935 11.3144C39.3461 10.4092 37.6249 8.74295 36.7198 8.04353C34.7312 6.51438 32.5712 5.36924 30.2398 4.62181C29.2387 4.29952 27.5655 3.92924 26.5027 3.80581C25.4124 3.67552 23.1701 3.62067 22.2649 3.70295ZM23.6981 5.10181C23.8078 5.1841 23.8352 5.30067 23.8558 5.83552L23.8764 6.46638L23.6227 6.42524C23.4855 6.40467 23.2935 6.41152 23.1975 6.45267C22.9438 6.54867 22.5735 6.41152 22.5187 6.20581C22.4295 5.8561 22.6009 5.69838 23.1632 5.58867C23.3209 5.55438 23.3827 5.50638 23.3827 5.41038C23.3827 5.25267 23.0535 5.22524 22.9987 5.38295C22.9712 5.44467 22.8684 5.48581 22.7312 5.48581C22.5392 5.48581 22.5118 5.46524 22.5392 5.34867C22.5598 5.26638 22.6558 5.16352 22.7587 5.10867C22.9918 4.98524 23.5267 4.97838 23.6981 5.10181ZM25.4261 5.07438H25.5975L25.5564 5.76695C25.5358 6.1441 25.5084 6.46638 25.4947 6.4801C25.4878 6.49381 25.3849 6.48695 25.2752 6.46638L25.0832 6.42524L25.1312 5.89038L25.1724 5.34867H24.9735C24.7747 5.34867 24.7678 5.35552 24.7404 5.7601C24.7061 6.25381 24.5621 6.44581 24.2261 6.44581C24.0272 6.44581 23.9998 6.42524 23.9998 6.27438C23.9998 6.15095 24.0341 6.10295 24.1301 6.10295C24.2809 6.10295 24.3427 5.97267 24.3427 5.65724C24.3427 5.53381 24.3632 5.33495 24.3907 5.21152L24.4318 4.98524L24.8432 5.03324C25.0695 5.05381 25.3301 5.07438 25.4261 5.07438ZM22.2101 5.67781C22.3198 6.52124 22.3198 6.51438 22.0867 6.51438C21.9152 6.51438 21.8878 6.48695 21.8467 6.2401C21.8055 5.95895 21.7575 5.93152 21.4764 6.01381C21.3324 6.0481 21.3187 6.08924 21.3392 6.32238C21.3598 6.54867 21.3392 6.59667 21.2089 6.6241C20.9827 6.68581 20.9347 6.6241 20.8867 6.15781C20.8592 5.91781 20.8181 5.60924 20.7975 5.46524C20.7632 5.21838 20.7632 5.21152 20.9689 5.21152C21.1609 5.21152 21.1884 5.23895 21.2295 5.45152C21.2707 5.69838 21.3118 5.71895 21.5861 5.65038C21.7027 5.6161 21.7369 5.55438 21.7369 5.38295C21.7369 5.15667 21.7987 5.0881 22.0181 5.08124C22.1072 5.07438 22.1484 5.19781 22.2101 5.67781ZM26.3724 5.3761C26.3244 5.62295 26.3929 5.69152 26.7015 5.69152C26.9209 5.69152 27.1541 5.93838 27.1541 6.16467C27.1541 6.35667 27.0169 6.5281 26.7975 6.60352C26.6947 6.63781 25.8512 6.54181 25.7964 6.48695C25.7758 6.46638 25.8924 5.58867 25.9609 5.29381C25.9815 5.17724 26.0364 5.14295 26.2009 5.14295C26.4067 5.14295 26.4135 5.14981 26.3724 5.3761ZM18.5415 5.32124C18.6101 5.49952 18.5895 5.54067 18.3975 5.58181C18.2809 5.6161 18.1987 5.60238 18.1644 5.54067C18.0684 5.39667 18.0958 5.29381 18.2261 5.25952C18.4455 5.19781 18.5004 5.21152 18.5415 5.32124ZM27.8261 5.39667C27.9701 5.43095 27.9838 5.46524 27.9495 5.6641C27.9015 5.9041 27.9152 5.92467 28.2032 5.99324C28.3747 6.03438 28.3952 6.01381 28.4364 5.82181C28.4844 5.58181 28.5735 5.52695 28.7792 5.60238L28.9164 5.65724L28.7655 6.30867C28.6489 6.83667 28.5941 6.9601 28.4844 6.98067C28.2512 7.0081 28.1758 6.9121 28.2512 6.65152C28.3267 6.3841 28.2924 6.32924 28.0112 6.29495C27.8329 6.27438 27.8055 6.29495 27.7507 6.5281C27.6889 6.78867 27.5655 6.85038 27.3735 6.73381C27.3049 6.68581 27.3118 6.54867 27.4284 6.0481C27.5038 5.69838 27.5655 5.40352 27.5655 5.38295C27.5655 5.33495 27.6341 5.34181 27.8261 5.39667ZM20.3724 5.6161C20.5369 5.78752 20.5712 5.87667 20.5712 6.15781C20.5712 6.45952 20.5438 6.5281 20.3587 6.67895C20.0707 6.92581 19.6249 6.94638 19.3781 6.73381C19.1861 6.56238 19.0489 6.18524 19.0969 5.95895C19.2135 5.43095 19.9815 5.22524 20.3724 5.6161ZM18.8569 6.40467C19.0147 6.95324 19.0284 7.06295 18.9461 7.09038C18.6718 7.2001 18.6169 7.13838 18.4455 6.5281C18.3495 6.19895 18.2741 5.9041 18.2741 5.86295C18.2741 5.8081 18.5895 5.69152 18.6375 5.73267C18.6512 5.73952 18.7472 6.04124 18.8569 6.40467ZM29.6775 5.8561C29.6844 5.86981 29.6295 6.05495 29.5541 6.27438L29.4169 6.6721L29.5747 6.54181C29.6569 6.47324 29.8215 6.32924 29.9449 6.21952C30.1232 6.05495 30.1918 6.02752 30.3701 6.06867C30.4867 6.0961 30.5827 6.15095 30.5827 6.19895C30.5827 6.2401 30.4935 6.54181 30.3838 6.85724C30.2124 7.37838 30.1712 7.4401 30.0272 7.41953C29.9449 7.41267 29.8558 7.38524 29.8421 7.37153C29.8078 7.3441 29.9107 6.94638 30.0204 6.65838C30.0409 6.59667 29.8901 6.69952 29.6775 6.87781C29.3621 7.14524 29.2592 7.2001 29.1152 7.15895C29.0192 7.13838 28.9232 7.09038 28.9027 7.06295C28.8889 7.03552 28.9644 6.72695 29.0809 6.3841C29.2867 5.76695 29.3004 5.75324 29.4787 5.79438C29.5747 5.82181 29.6638 5.84924 29.6775 5.8561ZM31.6592 6.07552C31.7895 6.21952 31.8581 6.2401 32.0227 6.20581C32.2352 6.15781 32.2901 6.21952 32.1461 6.36352C31.9335 6.5761 31.4055 6.36352 31.4055 6.06181C31.4055 5.84924 31.4535 5.8561 31.6592 6.07552ZM18.0204 6.45952C18.1232 6.73381 18.2261 6.92581 18.3015 6.94638C18.4044 6.97381 18.6444 7.50867 18.5758 7.57038C18.5621 7.5841 18.4798 7.61838 18.3975 7.63895C18.2672 7.6801 18.2261 7.65267 18.1712 7.51552L18.1095 7.3441L17.6089 7.51552C17.3415 7.60467 17.0947 7.65952 17.0672 7.6321C16.9644 7.52924 16.5941 6.41838 16.6421 6.37038C16.6764 6.34295 16.7587 6.30867 16.8341 6.28124C16.9575 6.24695 16.9987 6.30867 17.1632 6.74752L17.3552 7.25495L17.5815 7.18638L17.8147 7.11095L17.6364 6.60352C17.4718 6.16467 17.4649 6.08924 17.5541 6.03438C17.7529 5.9041 17.8627 6.0001 18.0204 6.45952ZM31.3301 6.41838C31.3438 6.4321 31.2889 6.59667 31.2067 6.78181C31.1312 6.96695 31.0627 7.13838 31.0627 7.16581C31.0627 7.18638 31.2272 7.07667 31.4329 6.92581C31.7278 6.69952 31.8375 6.65152 31.9815 6.69267C32.0775 6.71324 32.1804 6.76124 32.2009 6.80238C32.2558 6.88467 31.7347 8.08467 31.6387 8.09152C31.6044 8.09152 31.5152 8.05038 31.4467 8.00238C31.3369 7.9201 31.3438 7.89267 31.5084 7.52238L31.6798 7.12467L31.2684 7.4401C30.8707 7.74181 30.8364 7.75553 30.6444 7.6801C30.5004 7.61838 30.4524 7.55667 30.4798 7.48124C30.5004 7.41952 30.6169 7.13153 30.7404 6.83667C30.9461 6.34295 30.9735 6.30867 31.1312 6.34981C31.2272 6.37038 31.3164 6.39781 31.3301 6.41838ZM16.5324 7.20695C16.8135 7.76924 16.8135 7.86524 16.5529 7.90638C16.4775 7.91324 16.3267 7.99552 16.2169 8.07781C15.9495 8.29038 15.5998 8.27667 15.4558 8.05724C15.2912 7.81038 15.3804 7.60467 15.7438 7.3441C15.9632 7.19324 16.0387 7.09724 15.9907 7.04924C15.8878 6.94638 15.6752 7.01495 15.5998 7.17953C15.5655 7.26181 15.4627 7.35781 15.3804 7.39895C15.2501 7.46067 15.2089 7.45381 15.1747 7.35781C15.0649 7.06981 15.5724 6.65152 16.0249 6.65152C16.2375 6.65152 16.2649 6.68581 16.5324 7.20695ZM25.9198 7.20695C29.1495 7.57038 32.3244 8.90067 34.8821 10.9578C37.6592 13.2001 39.7575 16.3407 40.7244 19.7212C41.0947 20.9967 41.3484 22.471 41.3484 23.3281V23.6572H37.4261C33.9701 23.6504 33.5107 23.6435 33.6272 23.5544C33.7849 23.4378 33.7438 23.3761 33.4421 23.2732C33.2638 23.2115 33.2158 23.1567 33.2021 22.9647C33.1884 22.8344 33.1404 22.711 33.0924 22.6835C32.9964 22.6287 32.9895 21.8127 33.0855 21.5452L33.1335 21.3944H31.6524C30.2329 21.3944 30.1712 21.3875 30.1712 21.2641C30.1712 21.0995 30.1781 21.0995 27.8398 20.9075C26.8798 20.8321 26.0707 20.7498 26.0432 20.7361C26.0089 20.7155 25.9884 20.6264 25.9884 20.5304V20.3658H21.8055V20.5715C21.8055 20.7224 21.7712 20.7772 21.6889 20.7772C21.4969 20.7772 18.2398 21.0447 17.9175 21.0927C17.6844 21.1201 17.6227 21.1544 17.6227 21.2641C17.6227 21.3875 17.5609 21.3944 16.1895 21.3944H14.7632L14.7975 22.0527C14.8249 22.5395 14.8112 22.7041 14.7495 22.6698C14.7015 22.6355 14.6741 22.7041 14.6741 22.8892C14.6741 23.1361 14.6535 23.1635 14.3998 23.2801C14.1392 23.3967 14.1324 23.4104 14.2352 23.5338C14.3518 23.6504 14.2352 23.6572 10.4021 23.6572H6.44552V23.4652C6.44552 23.3624 6.49352 22.8892 6.54838 22.423C7.02838 18.5555 8.75638 15.031 11.5472 12.2332C15.3598 8.42752 20.5849 6.60352 25.9198 7.20695ZM15.0169 7.79667C15.4078 8.46867 15.3941 8.42752 15.2501 8.53724C15.0649 8.67438 15.0444 8.66752 14.8798 8.4001C14.7358 8.16695 14.7289 8.1601 14.5301 8.26295C14.3107 8.37952 14.2901 8.47552 14.4341 8.66752C14.5781 8.85952 14.5644 8.94867 14.3724 9.03781C14.2078 9.11324 14.1872 9.09267 13.8581 8.51667L13.5084 7.9201L13.6592 7.79667C13.8101 7.67324 13.8169 7.67324 13.9267 7.81038C13.9952 7.89267 14.0569 7.98867 14.0707 8.02981C14.0912 8.08467 14.1667 8.07095 14.3175 7.99552C14.5712 7.86524 14.5781 7.83781 14.4204 7.61838C14.3175 7.46067 14.3175 7.44695 14.4341 7.36467C14.5027 7.30981 14.5987 7.26867 14.6329 7.26867C14.6741 7.26867 14.8455 7.50867 15.0169 7.79667ZM33.4901 7.89267C33.4352 8.12581 33.4009 8.33153 33.4147 8.34524C33.4284 8.35895 33.5861 8.24238 33.7644 8.08467C34.0798 7.80352 34.0935 7.79667 34.2924 7.89267L34.4981 7.98867L33.8947 8.47553C33.0787 9.12695 32.9415 9.20924 32.7632 9.1681C32.5027 9.09953 32.3518 8.95553 32.4067 8.82524C32.4409 8.72924 32.4958 8.71553 32.6741 8.74981C32.9209 8.79095 32.9347 8.77724 33.0101 8.26295C33.0375 8.1121 33.0855 7.8241 33.1267 7.6321L33.1952 7.26867L33.3941 7.37153L33.5861 7.47438L33.4901 7.89267ZM34.8752 8.2561C35.0055 8.3521 35.0055 8.35895 34.8615 8.55095L34.7107 8.74981L34.9438 8.90067C35.1564 9.03781 35.1769 9.04467 35.2387 8.9281C35.4169 8.61953 35.4238 8.61952 35.6089 8.74295L35.7872 8.85953L35.5129 9.25038C35.3621 9.46981 35.1701 9.73038 35.0809 9.83324C34.9369 10.0184 34.9301 10.0252 34.7724 9.89495L34.6215 9.77152L34.7587 9.58638C34.9438 9.35324 34.9369 9.29838 34.7175 9.15438C34.5392 9.03095 34.5324 9.03781 34.3541 9.25724C34.1964 9.4561 34.1552 9.46981 34.0249 9.40124C33.9427 9.3601 33.8741 9.29838 33.8741 9.27095C33.8741 9.1681 34.6147 8.1601 34.6832 8.1601C34.7175 8.1601 34.7998 8.20124 34.8752 8.2561ZM12.0272 8.40695C12.0821 8.5441 11.9655 8.74981 11.7529 8.88695C11.6158 8.98295 11.5472 8.98981 11.4169 8.9281C11.1907 8.82524 11.1975 8.70867 11.4375 8.70867C11.6569 8.70867 11.7941 8.59895 11.7941 8.42067C11.7941 8.26981 11.9724 8.2561 12.0272 8.40695ZM12.9118 9.07895C13.1244 9.3601 13.3027 9.62067 13.3027 9.66181C13.3027 9.6961 13.2409 9.76467 13.1587 9.80581C13.0421 9.86752 13.0009 9.85381 12.8981 9.72353C12.8295 9.63438 12.7061 9.49038 12.6238 9.39438C12.4935 9.24352 12.4798 9.24352 12.5072 9.3601C12.6238 9.86067 12.6238 10.1624 12.5072 10.2927C12.4455 10.3612 12.3495 10.423 12.3015 10.423C12.2535 10.423 12.0272 10.183 11.7941 9.8881L11.3827 9.3601L11.5335 9.23667C11.7049 9.09267 11.6638 9.06524 12.0958 9.62067L12.2467 9.81267L12.1849 9.31895C12.1164 8.84581 12.1232 8.81838 12.2672 8.69495C12.3564 8.62638 12.4455 8.57152 12.4729 8.57152C12.4935 8.57838 12.6924 8.80467 12.9118 9.07895ZM36.5689 8.80467C36.8089 8.98981 36.6101 9.25724 36.3564 9.07895C36.2329 8.99667 36.2192 8.94867 36.2741 8.83895C36.3564 8.6881 36.4044 8.68124 36.5689 8.80467ZM36.2329 9.22295C36.3015 9.27781 36.3427 9.3601 36.3221 9.4081C36.2672 9.54524 35.5198 10.423 35.4581 10.423C35.4307 10.423 35.3552 10.3681 35.2935 10.2995C35.1907 10.1898 35.2112 10.1418 35.6089 9.6481C35.8421 9.3601 36.0478 9.1201 36.0684 9.1201C36.0889 9.12695 36.1575 9.1681 36.2329 9.22295ZM11.5541 10.1144C12.0067 10.6218 12.0135 10.6355 11.8969 10.7658C11.7667 10.903 11.7667 10.903 11.4718 10.615C11.1427 10.2927 11.1358 10.2995 11.2798 10.8344C11.3758 11.2115 11.3758 11.2115 11.2044 11.383L11.0261 11.5544L10.5529 11.0401C10.2924 10.759 10.0798 10.5121 10.0798 10.4915C10.0798 10.471 10.1484 10.4161 10.2238 10.3681C10.3609 10.279 10.3952 10.2995 10.6627 10.5601L10.9575 10.8481L10.8478 10.3955C10.7381 9.94981 10.7381 9.94295 10.9027 9.77152C10.9918 9.67552 11.0741 9.6001 11.0809 9.6001C11.0878 9.6001 11.3004 9.83324 11.5541 10.1144ZM37.1244 9.96353C37.5701 10.3818 37.6112 10.567 37.3027 10.759C37.1929 10.8275 37.1175 10.903 37.1381 10.9235C37.1655 10.951 37.1312 11.047 37.0695 11.143C36.8775 11.4378 36.5621 11.383 36.1095 10.9647L35.7255 10.615L36.1918 10.1075C36.4455 9.83324 36.6718 9.60695 36.6992 9.6001C36.7198 9.6001 36.9118 9.76467 37.1244 9.96353ZM9.8878 11.1224L9.90837 11.4858L10.3815 11.5407C10.6421 11.5681 10.8752 11.6092 10.8958 11.623C10.9575 11.6915 10.6147 11.9864 10.5049 11.9658C10.0044 11.863 9.94266 11.8698 9.94266 11.9795C9.94266 12.0412 10.0044 12.1578 10.0798 12.2401C10.2169 12.3841 10.2169 12.391 10.0867 12.5075C9.92895 12.6515 9.90152 12.6378 9.29123 12.0824L8.89352 11.719L9.03752 11.5681L9.18837 11.4241L9.39409 11.623L9.60666 11.8218L9.55866 11.431C9.51752 11.1087 9.53123 11.0127 9.63409 10.903C9.81923 10.6972 9.86723 10.7315 9.8878 11.1224ZM38.4204 11.1772C38.6672 11.4515 38.6672 11.7807 38.4341 12.0481L38.2627 12.2401L37.9267 11.8767C37.7347 11.6847 37.5701 11.5201 37.5564 11.5201C37.5358 11.5201 37.5015 11.5681 37.4809 11.6298C37.4192 11.7807 37.6181 12.0687 37.7758 12.0687C37.9129 12.0687 38.1529 12.295 38.0775 12.3635C38.0021 12.4458 37.7141 12.4184 37.5084 12.3087C37.0832 12.0892 36.9872 11.5064 37.3232 11.191C37.6867 10.8481 38.1118 10.8412 38.4204 11.1772ZM39.2912 12.2538C39.2912 12.3018 39.3255 12.343 39.3598 12.343C39.4901 12.343 39.7712 12.6995 39.7712 12.871C39.7712 13.2618 39.2981 13.7144 38.8867 13.7144C38.6809 13.7144 38.3312 13.3852 38.3312 13.1932V13.0218L38.0844 13.207L37.8444 13.3921L37.6935 13.2481C37.6181 13.1658 37.5632 13.0904 37.5838 13.0767C37.5975 13.063 37.9472 12.7955 38.3587 12.4938C39.0444 11.9795 39.1129 11.9452 39.1952 12.055C39.2432 12.1167 39.2912 12.2127 39.2912 12.2538ZM9.5038 12.5898C9.64095 12.7201 9.66837 12.8024 9.63409 12.9395C9.58609 13.1452 9.1198 13.7761 9.01695 13.7761C8.98266 13.783 8.70838 13.591 8.41352 13.3578L7.8718 12.9395L8.0158 12.8024C8.14609 12.6652 8.15295 12.6652 8.33809 12.7887C8.52323 12.9121 8.53009 12.9052 8.67409 12.7407C8.98952 12.3704 9.24323 12.3292 9.5038 12.5898ZM8.07752 13.5498C8.0638 13.6115 8.00209 13.6938 7.94037 13.7212C7.8718 13.7555 7.76209 13.8104 7.70037 13.8447C7.62495 13.879 7.57695 13.975 7.57695 14.0984C7.57695 14.2561 7.62495 14.3247 7.83066 14.4344L8.09123 14.5715L8.23523 14.4275C8.3518 14.3041 8.36552 14.2561 8.3038 14.1327C8.24209 14.0298 8.24209 13.9475 8.29695 13.8447C8.39295 13.6732 8.50266 13.7007 8.63295 13.927C8.85237 14.311 8.4478 14.8801 7.9678 14.8801C7.65238 14.8801 7.30266 14.6332 7.19295 14.3452C7.1038 14.119 7.22723 13.7555 7.45352 13.5772C7.67295 13.4058 8.1118 13.3852 8.07752 13.5498ZM40.3952 13.6801C40.7175 13.8927 40.8204 14.3384 40.6009 14.6127L40.4775 14.7704L40.3952 14.6127C40.3472 14.5235 40.3267 14.3864 40.3472 14.2972C40.3952 14.1121 40.2444 13.9201 40.0524 13.9201C39.8261 13.9201 39.5587 14.1944 39.5792 14.3932C39.5929 14.5372 39.6409 14.5784 39.8055 14.5921C40.0524 14.6195 40.2512 14.8595 40.1004 14.9555C39.6821 15.223 39.0512 14.6058 39.2227 14.0915C39.3118 13.8172 39.4147 13.7281 39.7438 13.6115C39.9975 13.5292 40.1827 13.5498 40.3952 13.6801ZM41.1975 14.9144C41.2729 15.079 41.2592 15.0927 40.8821 15.2847L40.4912 15.4904L40.9849 15.4972C41.4169 15.4972 41.4924 15.5178 41.5815 15.6481C41.6432 15.7304 41.6912 15.8332 41.6912 15.8744C41.6912 15.9155 41.4169 16.0938 41.0809 16.2721C40.4912 16.5875 40.4638 16.5944 40.3952 16.4641C40.2787 16.2515 40.2992 16.2241 40.6489 16.0458L40.9712 15.8812L40.4844 15.8195C40.0524 15.7647 39.9838 15.7372 39.9152 15.5864C39.8672 15.4904 39.8467 15.3944 39.8672 15.3807C39.9152 15.3327 41.0329 14.7498 41.0809 14.743C41.1015 14.743 41.1564 14.8184 41.1975 14.9144ZM7.1518 14.9487C7.22723 15.0584 7.2958 15.079 7.42609 15.0515C7.6318 14.9967 7.88552 15.2092 7.88552 15.4424C7.88552 15.5178 7.7758 15.7852 7.64552 16.0184L7.39866 16.4572L6.78838 16.1487C6.44552 15.9772 6.17123 15.8058 6.17123 15.7578C6.17123 15.6687 6.48666 15.1064 6.63752 14.9281C6.77466 14.7704 7.03523 14.7772 7.1518 14.9487ZM5.81466 15.7647C5.88323 15.8058 5.89009 15.8538 5.82152 15.9978C5.75295 16.1487 5.71866 16.1624 5.58838 16.1007C5.45123 16.039 5.43752 16.0047 5.49923 15.8675C5.58152 15.6961 5.6638 15.6687 5.81466 15.7647ZM5.55409 16.2515C5.67066 16.3132 5.67752 16.3475 5.60895 16.4915C5.5198 16.6904 5.49237 16.6972 5.32095 16.5738C5.21809 16.4984 5.20437 16.4572 5.27295 16.3338C5.36209 16.1624 5.3758 16.1555 5.55409 16.2515ZM6.66495 16.4367C6.99409 16.5807 7.26837 16.7315 7.26837 16.7727C7.26837 16.807 7.22723 16.8961 7.17923 16.9647C7.09695 17.0744 7.0558 17.0675 6.51409 16.8344C6.1918 16.6904 5.91066 16.5601 5.88323 16.5327C5.8078 16.471 5.89695 16.183 5.99295 16.183C6.03409 16.183 6.3358 16.2995 6.66495 16.4367ZM42.1301 16.7795C42.2672 17.1018 42.3701 17.3761 42.3632 17.383C42.3495 17.3967 42.2809 17.4172 42.2055 17.4447C42.0958 17.479 42.0478 17.4447 41.9861 17.2801L41.9107 17.0744L41.4101 17.287C40.9369 17.479 40.8958 17.4858 40.8204 17.3692C40.6695 17.1704 40.7175 17.1155 41.2112 16.9098C41.7118 16.7041 41.7392 16.6767 41.6158 16.4435C41.5541 16.3338 41.5609 16.2858 41.6295 16.2447C41.8215 16.1281 41.8832 16.1967 42.1301 16.7795ZM6.37695 17.1018C6.85695 17.2801 6.95295 17.3418 6.93923 17.4584C6.89809 17.6847 6.82266 17.7052 6.45238 17.5544C6.26038 17.479 6.08209 17.4172 6.06152 17.4172C6.04095 17.4172 6.16438 17.5818 6.34266 17.7875C6.60323 18.0892 6.65123 18.1921 6.61009 18.3361C6.58952 18.4321 6.54152 18.5281 6.51409 18.5487C6.48666 18.5692 6.16438 18.4732 5.8078 18.3361C5.24552 18.1235 5.16323 18.0755 5.19752 17.9521C5.24552 17.7532 5.35523 17.7395 5.75295 17.8904L6.10266 18.0207L5.97238 17.8424C5.9038 17.7395 5.7598 17.5818 5.6638 17.4927C5.5678 17.3967 5.48552 17.3007 5.48552 17.2732C5.48552 17.1292 5.62952 16.8687 5.70495 16.8755C5.75295 16.8755 6.05466 16.9784 6.37695 17.1018ZM42.5278 17.9452C42.7747 18.2058 42.8227 18.4527 42.6924 18.7132C42.6032 18.8847 42.2809 19.1315 42.1438 19.1315C42.1301 19.1315 42.0478 18.9327 41.9655 18.6858C41.8147 18.2401 41.6707 18.1167 41.5884 18.3772C41.5404 18.5281 41.6432 18.7544 41.7804 18.8092C41.8832 18.8504 41.9792 19.111 41.9038 19.159C41.7804 19.2344 41.4032 18.9807 41.3141 18.7612C41.1632 18.3978 41.1907 18.247 41.4444 17.9932C41.6432 17.7944 41.7255 17.7601 42.0135 17.7601C42.2947 17.7601 42.3838 17.7944 42.5278 17.9452ZM4.7998 18.6927C4.92323 18.8984 5.06038 19.0904 5.10152 19.1041C5.14266 19.1178 5.43066 19.0424 5.74609 18.9258C6.05466 18.8161 6.34266 18.7201 6.37695 18.7201C6.45238 18.7201 6.39752 19.0492 6.30152 19.1727C6.26723 19.2138 6.05466 19.303 5.82838 19.3715C5.59523 19.4401 5.39637 19.5224 5.3758 19.5567C5.30723 19.6664 5.49923 19.8172 5.80095 19.8927C6.08209 19.9612 6.0958 19.9818 6.06152 20.1532C6.03409 20.2492 6.00666 20.3521 5.99295 20.3727C5.97923 20.3932 5.54723 20.3041 5.02609 20.1601C4.12095 19.9201 4.0798 19.9064 4.10038 19.7418C4.13466 19.4881 4.18952 19.4675 4.57352 19.5704L4.93009 19.6664L4.6558 19.2344C4.42266 18.8572 4.38838 18.7612 4.42952 18.5555C4.45009 18.4184 4.49809 18.3087 4.52552 18.3087C4.5598 18.3087 4.68323 18.4801 4.7998 18.6927ZM43.0832 19.5567C43.1518 19.831 43.2204 20.1258 43.2409 20.2012C43.2684 20.311 43.2409 20.359 43.1312 20.3864C43.0147 20.4138 42.9667 20.3864 42.9118 20.2218C42.8295 19.9887 42.7815 19.9818 42.2192 20.1327C41.8832 20.2218 41.7941 20.2218 41.7529 20.1464C41.6021 19.9064 41.6844 19.831 42.2124 19.7075L42.7335 19.5978L42.6924 19.3715C42.6444 19.1452 42.6649 19.1247 42.9324 19.0698C42.9529 19.0698 43.0215 19.2892 43.0832 19.5567ZM9.10609 26.5235C9.16095 26.599 9.18837 26.8527 9.18152 27.2847C9.17466 27.6481 9.16095 27.8881 9.14038 27.8195C9.12666 27.7578 9.05123 27.703 8.9758 27.703C8.90037 27.703 8.84552 27.751 8.83866 27.8195C8.8318 27.9361 8.82495 27.9361 8.79752 27.8195C8.7838 27.7578 8.70838 27.703 8.6398 27.703C8.56438 27.703 8.48209 27.7578 8.44095 27.8195C8.3518 27.9841 8.34495 26.8664 8.43409 26.6332C8.5438 26.3452 8.90723 26.2904 9.10609 26.5235ZM11.6089 26.5235C11.7049 26.6127 11.7255 26.7361 11.7187 27.2847C11.7118 27.6481 11.6981 27.8881 11.6775 27.8195C11.6432 27.6755 11.3827 27.6618 11.3827 27.8058C11.3827 27.8607 11.3552 27.9087 11.3141 27.9087C11.2798 27.9087 11.2455 27.8607 11.2455 27.8058C11.2455 27.6618 10.9849 27.6755 10.9507 27.8195C10.9301 27.8881 10.9164 27.6687 10.9095 27.3395C10.9027 26.6881 10.9644 26.4961 11.1975 26.407C11.3552 26.3452 11.4169 26.359 11.6089 26.5235ZM14.1598 26.5578C14.2352 26.6675 14.2627 26.8801 14.2558 27.3258C14.2489 27.6618 14.2352 27.8881 14.2147 27.8195C14.1804 27.6755 13.9198 27.6618 13.9198 27.8058C13.9198 27.8607 13.8924 27.9087 13.8512 27.9087C13.8169 27.9087 13.7827 27.8607 13.7827 27.8058C13.7827 27.6618 13.5221 27.6755 13.4878 27.8195C13.4672 27.8881 13.4535 27.6481 13.4467 27.2915C13.4398 26.6127 13.4604 26.5372 13.6729 26.4207C13.8444 26.3247 14.0364 26.3795 14.1598 26.5578ZM16.6489 26.4892C16.7038 26.5304 16.7312 26.7635 16.7244 27.2504C16.7175 27.6275 16.7038 27.8881 16.6832 27.8195C16.6695 27.7578 16.5941 27.703 16.5187 27.703C16.4432 27.703 16.3884 27.751 16.3815 27.8195C16.3747 27.9361 16.3678 27.9361 16.3404 27.8195C16.3267 27.7578 16.2512 27.703 16.1827 27.703C16.1141 27.703 16.0387 27.7578 16.0249 27.8195C16.0044 27.8881 15.9975 27.6207 15.9975 27.223C16.0112 26.5441 16.0181 26.503 16.1758 26.4275C16.3404 26.3452 16.4844 26.3658 16.6489 26.4892ZM19.1861 26.5235C19.2409 26.599 19.2684 26.8527 19.2615 27.2847C19.2547 27.6481 19.2409 27.8881 19.2204 27.8195C19.2067 27.7578 19.1312 27.703 19.0558 27.703C18.9804 27.703 18.9255 27.751 18.9187 27.8195C18.9118 27.9361 18.9049 27.9361 18.8775 27.8195C18.8638 27.7578 18.7884 27.703 18.7198 27.703C18.6444 27.703 18.5552 27.7578 18.5209 27.8195C18.4249 27.9841 18.4181 26.887 18.5141 26.6401C18.6238 26.3452 18.9872 26.2835 19.1861 26.5235ZM21.6889 26.5235C21.7849 26.6127 21.8055 26.7361 21.7987 27.2847C21.7918 27.6481 21.7781 27.8881 21.7575 27.8195C21.7232 27.6755 21.4627 27.6618 21.4627 27.8058C21.4627 27.8607 21.4352 27.9087 21.3941 27.9087C21.3598 27.9087 21.3255 27.8607 21.3255 27.8058C21.3255 27.6618 21.0649 27.6755 21.0307 27.8195C21.0101 27.8881 20.9964 27.6412 20.9895 27.2778C20.9827 26.647 20.9895 26.6127 21.1609 26.4755C21.3392 26.3315 21.4764 26.3452 21.6889 26.5235ZM24.2398 26.5578C24.3152 26.6675 24.3427 26.8801 24.3358 27.3258C24.3289 27.6618 24.3152 27.8881 24.2947 27.8195C24.2604 27.6755 23.9998 27.6618 23.9998 27.8058C23.9998 27.8607 23.9724 27.9087 23.9312 27.9087C23.8969 27.9087 23.8627 27.8607 23.8627 27.8058C23.8627 27.6618 23.6021 27.6755 23.5678 27.8195C23.5472 27.8881 23.5335 27.6481 23.5267 27.2915C23.5198 26.6127 23.5404 26.5372 23.7529 26.4207C23.9244 26.3247 24.1164 26.3795 24.2398 26.5578ZM26.7289 26.4892C26.7838 26.5304 26.8112 26.7635 26.8044 27.2504C26.7975 27.6275 26.7838 27.8881 26.7632 27.8195C26.7495 27.7578 26.6741 27.703 26.5987 27.703C26.5232 27.703 26.4684 27.751 26.4615 27.8195C26.4547 27.9361 26.4478 27.9361 26.4204 27.8195C26.4067 27.7578 26.3312 27.703 26.2627 27.703C26.1941 27.703 26.1187 27.7578 26.1049 27.8195C26.0844 27.8881 26.0775 27.6207 26.0775 27.223C26.0912 26.5441 26.0981 26.503 26.2558 26.4275C26.4204 26.3452 26.5644 26.3658 26.7289 26.4892ZM29.2661 26.5235C29.3209 26.599 29.3484 26.8527 29.3415 27.2847C29.3347 27.6481 29.3209 27.8881 29.3004 27.8195C29.2661 27.6755 29.0055 27.6618 29.0055 27.8058C29.0055 27.8607 28.9781 27.9087 28.9369 27.9087C28.9027 27.9087 28.8752 27.8675 28.8889 27.8264C28.9164 27.6824 28.6078 27.6755 28.5735 27.8195C28.5529 27.8881 28.5392 27.6687 28.5324 27.3395C28.5255 26.6881 28.5872 26.4961 28.8204 26.407C28.9987 26.3384 29.1427 26.3795 29.2661 26.5235ZM31.7689 26.5235C31.8649 26.6127 31.8855 26.7361 31.8787 27.2847C31.8718 27.6481 31.8581 27.8881 31.8375 27.8195C31.8032 27.6755 31.5427 27.6618 31.5427 27.8058C31.5427 27.8607 31.5152 27.9087 31.4741 27.9087C31.4398 27.9087 31.4055 27.8607 31.4055 27.8058C31.4055 27.6618 31.1449 27.6755 31.1107 27.8195C31.0901 27.8881 31.0764 27.6412 31.0695 27.2778C31.0627 26.647 31.0695 26.6127 31.2409 26.4755C31.4192 26.3315 31.5564 26.3452 31.7689 26.5235ZM34.3198 26.5578C34.3952 26.6675 34.4227 26.8801 34.4158 27.3258C34.4089 27.6618 34.3952 27.8881 34.3747 27.8195C34.3609 27.7578 34.2855 27.703 34.2169 27.703C34.1415 27.703 34.0524 27.7578 34.0181 27.8195C33.9495 27.9361 33.9495 27.9361 33.9427 27.8195C33.9427 27.751 33.8878 27.703 33.8124 27.703C33.7369 27.703 33.6615 27.7578 33.6478 27.8195C33.6272 27.8881 33.6135 27.6481 33.6067 27.2847C33.5998 26.6264 33.6478 26.455 33.8741 26.3864C34.0387 26.3384 34.2101 26.407 34.3198 26.5578ZM36.8089 26.4892C36.8638 26.5304 36.8912 26.7635 36.8844 27.2504C36.8775 27.6275 36.8638 27.8881 36.8432 27.8195C36.8295 27.7578 36.7541 27.703 36.6787 27.703C36.6032 27.703 36.5484 27.751 36.5415 27.8195C36.5347 27.9361 36.5278 27.9361 36.5004 27.8195C36.4867 27.7578 36.4112 27.703 36.3427 27.703C36.2741 27.703 36.1987 27.7578 36.1849 27.8195C36.1644 27.8881 36.1575 27.6207 36.1575 27.223C36.1712 26.5441 36.1781 26.503 36.3358 26.4275C36.5004 26.3452 36.6444 26.3658 36.8089 26.4892ZM39.3735 26.5647C39.4009 26.6058 39.4215 26.935 39.4215 27.2915C39.4147 27.6481 39.4009 27.8881 39.3804 27.8195C39.3461 27.6755 39.0855 27.6618 39.0855 27.8058C39.0855 27.8607 39.0581 27.9087 39.0169 27.9087C38.9827 27.9087 38.9484 27.8607 38.9484 27.8058C38.9484 27.6618 38.6878 27.6755 38.6535 27.8195C38.6329 27.8881 38.6192 27.6687 38.6124 27.3395C38.6055 26.6881 38.6672 26.4961 38.9004 26.407C39.0512 26.3452 39.2844 26.4207 39.3735 26.5647ZM24.1369 29.0127C24.2398 29.1978 24.1027 29.3624 23.8695 29.335C23.6707 29.3144 23.6021 29.1224 23.7255 28.9715C23.8489 28.8275 24.0547 28.8481 24.1369 29.0127ZM9.32552 31.1315H8.29695V29.623H9.32552V31.1315ZM11.8284 31.0972L10.8341 31.1384V29.6161L11.8284 29.6572V31.0972ZM14.3312 31.1384L13.3369 31.0972L13.2958 29.623H14.3312V31.1384ZM16.8684 31.1315H15.8398V29.623H16.8684V31.1315ZM19.4055 31.1315H18.3769V29.623H19.4055V31.1315ZM21.8741 31.1315H20.9141V29.623H21.8741V31.1315ZM26.9484 31.1315H25.9198V29.623H26.9484V31.1315ZM29.4855 31.1315H28.4569V29.623H29.4855V31.1315ZM31.9541 31.1315H30.9941V29.623H31.9541V31.1315ZM34.4912 31.1315H33.4627V29.623H34.4912V31.1315ZM37.0284 31.1315H35.9998V29.623H37.0284V31.1315ZM39.5312 31.0972L38.5369 31.1384V29.623H39.5724L39.5312 31.0972ZM11.8215 32.071C11.8421 32.1395 11.8558 32.3178 11.8558 32.4687C11.8558 32.9692 11.8421 32.983 11.3072 32.983H10.8341V31.9544H11.3072C11.7049 31.9544 11.7941 31.975 11.8215 32.071ZM14.3312 32.983H13.8581C13.3232 32.983 13.3095 32.9692 13.3095 32.4687C13.3095 31.9681 13.3232 31.9544 13.8581 31.9544H14.3312V32.983ZM34.4912 32.983H33.4627L33.4764 32.7224C33.4832 32.4755 33.4832 32.4755 33.5107 32.6881C33.5381 32.887 33.5655 32.9144 33.7438 32.9144H33.9427V32.023H33.7369C33.5518 32.023 33.5312 32.0435 33.5244 32.2424C33.5175 32.4138 33.5038 32.4275 33.4832 32.311C33.4215 32.0024 33.4969 31.9544 34.0112 31.9544H34.4912V32.983ZM37.0284 32.983H35.9998V31.9544H37.0284V32.983ZM22.0798 33.2572C22.0798 33.2984 22.3198 33.3258 22.6627 33.3258C23.0055 33.3258 23.2455 33.2984 23.2455 33.2572C23.2455 33.2161 23.5198 33.1887 23.9312 33.1887C24.3427 33.1887 24.6169 33.2161 24.6169 33.2572C24.6169 33.2984 24.8569 33.3258 25.2067 33.3258C25.5769 33.3258 25.7758 33.2984 25.7484 33.2572C25.7209 33.2161 25.9678 33.1887 26.4272 33.1887C26.8661 33.1887 27.1541 33.2161 27.1541 33.2572C27.1541 33.2984 29.2249 33.3327 33.1267 33.3395L39.0992 33.3601L38.4821 34.2858C35.7187 38.4412 31.4329 41.1704 26.4684 41.9315C25.4741 42.0892 23.2661 42.1441 22.2444 42.0412C16.9507 41.4995 12.2672 38.695 9.35295 34.3064C9.0718 33.8812 8.82495 33.4904 8.80437 33.4287C8.77009 33.3395 9.42152 33.3258 14.7358 33.3258C18.6718 33.3258 20.7084 33.3052 20.7084 33.2572C20.7084 33.2161 20.9827 33.1887 21.3941 33.1887C21.8055 33.1887 22.0798 33.2161 22.0798 33.2572ZM10.2169 36.8024C10.2169 36.9532 10.0181 36.9875 9.87409 36.8572C9.7438 36.7407 9.7438 36.727 9.85352 36.6035C9.95638 36.487 9.97009 36.487 10.0935 36.5898C10.1621 36.6584 10.2169 36.7475 10.2169 36.8024ZM38.7015 36.8092C38.8524 36.9532 39.0581 37.1247 39.1541 37.1864L39.3255 37.3098L39.1404 37.4675C39.0444 37.5567 38.9072 37.7281 38.8455 37.8447C38.6398 38.2492 38.1324 38.3041 37.9747 37.9475C37.8992 37.7898 37.9198 37.7212 38.0912 37.399C38.2352 37.1315 38.2695 37.0081 38.2147 36.9532C38.1118 36.8504 37.8375 37.1178 37.8924 37.2687C37.9541 37.4264 37.7209 37.6664 37.5975 37.5704C37.4192 37.4195 37.5152 37.0904 37.8375 36.7338C38.0912 36.4664 38.3518 36.487 38.7015 36.8092ZM9.76437 37.0218C9.87409 37.1384 9.85352 37.1658 9.36666 37.6047C9.08552 37.8515 8.83866 38.0572 8.80437 38.0572C8.77695 38.0572 8.69466 38.0024 8.62609 37.9407C8.4958 37.8241 8.50952 37.8104 8.99638 37.3578C9.27066 37.1041 9.53123 36.8984 9.57238 36.8915C9.61352 36.8915 9.6958 36.9464 9.76437 37.0218ZM10.2924 37.6184L10.4844 37.8035L10.2787 38.2012C10.1689 38.4207 10.0798 38.6195 10.0798 38.6332C10.0798 38.6538 10.2718 38.5578 10.4981 38.4275L10.9164 38.1807L11.1289 38.3932L11.3484 38.6058L10.8341 39.1201C10.3267 39.6344 10.3267 39.6344 10.1895 39.4972C10.0524 39.3601 10.0524 39.3601 10.3884 39.0104L10.7312 38.6538L10.3884 38.8458C10.2032 38.9555 10.0044 39.0721 9.95638 39.1064C9.89466 39.1612 9.82609 39.1338 9.71638 39.0241L9.56552 38.8732L9.7918 38.4481L10.0249 38.023L9.67523 38.359C9.33238 38.695 9.32552 38.695 9.18837 38.5715C9.05123 38.4481 9.05123 38.4412 9.51066 37.9544C9.77123 37.6801 10.0044 37.4538 10.0387 37.447C10.0798 37.447 10.1895 37.5224 10.2924 37.6184ZM37.1861 37.8927C37.1449 38.2698 37.1861 38.3041 37.6867 38.3727C38.1872 38.4344 38.2627 38.4961 38.0501 38.6675C37.8855 38.8115 37.7895 38.8184 37.3438 38.7018C37.1175 38.647 37.1038 38.7841 37.3095 39.0447C37.4535 39.2298 37.4535 39.2367 37.3301 39.367C37.1998 39.4972 37.1861 39.4904 36.6855 38.983L36.1781 38.4687L36.4798 38.167L36.8569 38.5304L36.8295 38.1875C36.8158 37.8995 36.8364 37.8104 36.9598 37.6801C37.1724 37.4538 37.2341 37.5155 37.1861 37.8927ZM36.4044 39.223C36.6375 39.5041 36.8227 39.751 36.8227 39.7715C36.8227 39.7921 36.7472 39.8607 36.6581 39.9224C36.5072 40.0321 36.4935 40.0321 36.3495 39.8332C36.1781 39.6001 36.1095 39.5864 35.8901 39.7647L35.7255 39.895L35.9038 40.1075C36.0752 40.3201 36.0821 40.327 35.9655 40.4572C35.8969 40.5327 35.8215 40.5944 35.7941 40.5944C35.7187 40.5944 34.9575 39.6275 34.9438 39.5178C34.9438 39.463 34.9918 39.3807 35.0535 39.3395C35.1495 39.2778 35.2044 39.2915 35.3347 39.415C35.5267 39.6001 35.5541 39.6001 35.7667 39.4355L35.9312 39.3052L35.7941 39.1338C35.7187 39.0378 35.6569 38.9418 35.6569 38.9144C35.6569 38.8458 35.8832 38.6744 35.9449 38.695C35.9655 38.7018 36.1781 38.9418 36.4044 39.223ZM12.1987 39.2161C12.3495 39.3601 12.4112 39.4767 12.4112 39.6344C12.4112 39.8538 12.2398 40.2515 12.1507 40.2515C12.1232 40.2447 11.9312 40.1075 11.7255 39.943C11.4169 39.6892 11.3415 39.655 11.2935 39.7441C11.1975 39.9087 11.4169 40.183 11.6501 40.183C11.8901 40.183 12.0752 40.3681 11.9244 40.4641C11.5609 40.6972 10.9027 40.2858 10.9027 39.8195C10.9027 39.1338 11.7118 38.7567 12.1987 39.2161ZM13.0832 39.8812L13.2341 39.9841L13.0901 40.1898C13.0078 40.3064 12.9529 40.4024 12.9667 40.4161C13.1107 40.519 13.3438 40.663 13.3781 40.663C13.4055 40.663 13.4878 40.567 13.5564 40.4572L13.6935 40.2447L13.8581 40.375L14.0158 40.5121L13.6249 41.1018C13.3712 41.4858 13.1998 41.6778 13.1449 41.6504C12.8981 41.5064 12.8912 41.4721 13.0421 41.2252L13.1861 40.9852L13.0215 40.8618C12.7952 40.6904 12.7335 40.6972 12.5895 40.9441C12.4592 41.1635 12.3015 41.1841 12.1849 40.999C12.1369 40.9167 12.2055 40.759 12.4867 40.3338C12.6924 40.0252 12.8707 39.7715 12.8912 39.7715C12.9118 39.7715 13.0009 39.8195 13.0832 39.8812ZM34.7655 39.943C34.9438 40.0321 35.1564 40.2995 35.0947 40.3475C35.0809 40.3612 34.8958 40.4847 34.6764 40.6218C34.2787 40.8755 34.2238 41.0058 34.5255 41.0058C34.6969 41.0058 34.9027 40.8412 34.9027 40.711C34.9027 40.6081 35.1427 40.4504 35.2044 40.5052C35.3895 40.6904 35.0398 41.239 34.6764 41.335C34.0112 41.5132 33.4627 40.6904 33.8809 40.1555C34.1278 39.8401 34.4295 39.7715 34.7655 39.943ZM14.7495 40.2515C14.8935 40.3338 14.9141 40.4367 14.8181 40.5875C14.7632 40.6698 14.7289 40.6698 14.5781 40.567C14.4272 40.471 14.4067 40.4298 14.4684 40.3201C14.5507 40.1624 14.5712 40.1555 14.7495 40.2515ZM33.5998 41.1567C33.9358 41.7464 33.9495 41.7875 33.8329 41.8767C33.6478 42.0138 33.5587 41.9864 33.4627 41.7601C33.3598 41.5201 33.3667 41.5201 33.1267 41.6847C32.7564 41.9521 32.4615 41.8835 32.2284 41.4721C32.0775 41.1978 32.0775 41.1841 32.1941 41.095C32.3861 40.9578 32.4752 40.9852 32.5712 41.2115C32.6878 41.4927 32.7358 41.5132 32.9827 41.383L33.1952 41.2732L33.0581 41.0332C32.9758 40.903 32.9141 40.7658 32.9141 40.7384C32.9141 40.6972 33.0855 40.5807 33.2364 40.5327C33.2432 40.5258 33.4078 40.807 33.5998 41.1567ZM14.5164 40.7521C14.6672 40.8344 14.6672 40.8344 14.3244 41.4378C14.1324 41.767 13.9404 42.0344 13.8924 42.0344C13.8444 42.0344 13.7552 41.9932 13.6935 41.9452C13.5907 41.8698 13.6112 41.8081 13.9267 41.2595C14.1187 40.9304 14.2969 40.663 14.3175 40.663C14.3449 40.6698 14.4341 40.7041 14.5164 40.7521ZM16.5735 41.1361C17.1701 41.3967 17.2729 41.4927 17.1495 41.6847C17.0947 41.767 17.0467 41.767 16.8204 41.671L16.5529 41.5681L16.2512 42.2607C16.0867 42.6447 15.9427 42.9738 15.9358 42.9875C15.8878 43.0492 15.4901 42.8298 15.5244 42.7612C15.5381 42.7201 15.6821 42.3978 15.8398 42.0412C15.9907 41.6915 16.1072 41.3898 16.1004 41.383C16.0867 41.3692 15.9632 41.3144 15.8192 41.2595C15.5792 41.1567 15.5724 41.143 15.6478 40.9715C15.7369 40.7727 15.7164 40.7658 16.5735 41.1361ZM31.9198 41.5818C31.9747 41.671 32.0089 41.7944 31.9815 41.8561C31.9609 41.9178 31.9747 41.9658 32.0089 41.9658C32.1461 41.9658 32.2969 42.1784 32.2969 42.3704C32.2969 42.6104 32.1735 42.7132 31.6249 42.9464L31.1929 43.1315L30.9529 42.6035C30.5827 41.7875 30.5827 41.815 31.0421 41.6092C31.5564 41.3761 31.7827 41.3692 31.9198 41.5818ZM28.8272 42.8984C28.9301 43.4127 29.0055 43.8447 28.9849 43.8584C28.9575 43.8927 26.6261 44.3658 26.5027 44.3658C26.4204 44.3658 26.0089 42.5418 26.0775 42.4732C26.0912 42.4527 26.1941 42.4321 26.2969 42.4252C26.4889 42.4115 26.4889 42.4184 26.6398 43.1178C26.7221 43.5018 26.8112 43.8378 26.8318 43.8584C26.8524 43.879 26.9964 43.879 27.1472 43.8515C27.3872 43.8104 27.4215 43.783 27.3941 43.6595C27.0649 42.1921 27.0649 42.1784 27.4009 42.1715C27.5312 42.1715 27.5655 42.2401 27.6615 42.6652C27.7232 42.9395 27.7918 43.2824 27.8192 43.4264L27.8604 43.6938L28.1415 43.6527C28.2924 43.6252 28.4295 43.591 28.4501 43.5772C28.4638 43.5567 28.4089 43.2138 28.3267 42.8092C28.1621 42.0344 28.1758 41.9727 28.4912 41.9658C28.6147 41.9658 28.6558 42.0687 28.8272 42.8984ZM30.2398 42.1372C30.4112 42.2264 30.7061 42.6241 30.6375 42.6858C30.6238 42.6927 30.4112 42.7681 30.1575 42.8504C29.6775 43.0081 29.6021 43.0835 29.8147 43.1864C29.9587 43.2687 30.1644 43.1932 30.3221 43.0012C30.4867 42.8024 30.6512 42.8161 30.6512 43.0218C30.6512 43.2755 30.2947 43.543 29.9587 43.543C29.6089 43.543 29.4444 43.4538 29.3141 43.2001C29.1427 42.871 29.1769 42.5007 29.4032 42.295C29.7049 42.0138 29.9175 41.9727 30.2398 42.1372ZM18.0272 42.2264C18.3975 42.4115 18.4249 42.5075 18.2535 43.0492C18.1712 43.303 18.1027 43.5704 18.1027 43.639C18.1027 43.7418 18.0684 43.7555 17.9175 43.7144C17.8078 43.6938 17.7187 43.639 17.7049 43.6047C17.6912 43.5704 17.5609 43.543 17.4238 43.543C16.9027 43.543 16.6284 43.0972 16.9438 42.7818C17.0672 42.6584 17.1358 42.6447 17.4855 42.6858C17.7598 42.7201 17.8969 42.7064 17.9312 42.6515C18.0409 42.4801 17.7872 42.391 17.4169 42.4801C17.3209 42.5007 17.1975 42.487 17.1427 42.4458C17.0535 42.3841 17.0604 42.3567 17.2044 42.2401C17.4032 42.0687 17.7187 42.0618 18.0272 42.2264ZM19.1312 42.5898C19.1312 42.6241 19.2204 42.631 19.3301 42.6104C19.7689 42.5212 20.1529 42.9532 20.0638 43.4401C19.9884 43.8172 19.7209 44.0915 19.4124 44.0915C19.2752 44.0915 19.0969 44.0435 19.0078 43.9887C18.8638 43.8858 18.8569 43.8858 18.8158 44.1601C18.7678 44.4412 18.6924 44.4824 18.4387 44.3795C18.3427 44.3384 18.3495 44.2424 18.5278 43.4744C18.6375 43.0012 18.7335 42.583 18.7541 42.5418C18.7815 42.4527 19.1312 42.5007 19.1312 42.5898ZM21.5792 43.0835C21.7232 43.2275 21.7232 43.2618 21.6547 43.831C21.5861 44.3932 21.5655 44.4344 21.4215 44.4344C21.3324 44.4344 21.2501 44.407 21.2295 44.3727C21.2089 44.3384 21.0581 44.3315 20.9004 44.3452C20.6672 44.3727 20.5644 44.3452 20.4204 44.2287C19.9952 43.8927 20.2901 43.4744 20.9415 43.4744C21.2089 43.4744 21.2569 43.4538 21.2569 43.3372C21.2569 43.2344 21.2089 43.2001 21.0581 43.2001C20.9415 43.2001 20.8318 43.2275 20.8112 43.2687C20.7632 43.3441 20.4821 43.3647 20.4135 43.2961C20.3449 43.2275 20.4958 42.9944 20.6604 42.9258C20.9004 42.823 21.4078 42.9052 21.5792 43.0835ZM23.1701 43.1932C23.2592 43.255 23.3621 43.3784 23.3895 43.4607C23.4444 43.5978 23.4238 43.6115 23.2112 43.6115C23.0467 43.6115 22.9712 43.5772 22.9712 43.5155C22.9712 43.351 22.7038 43.3098 22.5529 43.447C22.4021 43.5841 22.3747 44.0161 22.5049 44.1464C22.6284 44.2698 22.8204 44.2424 22.9164 44.0915C23.0329 43.9132 23.3827 43.8995 23.3827 44.0778C23.3827 44.263 23.0947 44.503 22.8272 44.5441C22.2855 44.6264 21.8672 44.1327 22.0181 43.5978C22.1621 43.0561 22.7107 42.871 23.1701 43.1932ZM24.8912 43.2001C25.0009 43.3098 25.0284 43.4264 25.0284 43.8104C25.0284 44.071 25.0489 44.3384 25.0695 44.4001C25.1038 44.4892 25.0627 44.5098 24.8158 44.503C24.6512 44.503 24.3838 44.5167 24.2261 44.5441C23.9929 44.5784 23.9175 44.5578 23.8009 44.4412C23.6569 44.2972 23.6158 44.0572 23.7118 43.9132C23.7735 43.8104 24.0341 43.6801 24.1644 43.6801C24.3838 43.6801 24.6169 43.5498 24.5758 43.4401C24.5209 43.3098 24.2124 43.303 24.1644 43.4401C24.1164 43.5567 23.6569 43.5841 23.6569 43.4744C23.6569 43.4332 23.7324 43.3235 23.8284 43.2344C24.0478 43.0081 24.6787 42.9875 24.8912 43.2001Z" fill="#AD4A3E"/>
<path d="M23.1769 5.8561C22.8958 5.94524 22.8547 6.13039 23.1152 6.15781C23.3072 6.17839 23.4787 6.03439 23.4375 5.87667C23.4238 5.79439 23.3758 5.78753 23.1769 5.8561Z" fill="#AD4A3E"/>
<path d="M26.2627 6.13724C26.2627 6.30181 26.2832 6.31553 26.4889 6.29496C26.6535 6.28124 26.7084 6.2401 26.7084 6.13724C26.7084 6.03439 26.6535 5.99324 26.4889 5.97953C26.2832 5.95896 26.2627 5.97267 26.2627 6.13724Z" fill="#AD4A3E"/>
<path d="M19.7004 5.76696C19.4741 5.84924 19.4672 6.25381 19.6798 6.47324C19.7895 6.58981 19.8375 6.59667 19.9884 6.5281C20.1187 6.46638 20.1598 6.39781 20.1598 6.2401C20.1598 5.84238 19.9815 5.6641 19.7004 5.76696Z" fill="#AD4A3E"/>
<path d="M15.9289 7.52238C15.7164 7.66638 15.7232 7.88581 15.9358 7.88581C16.1415 7.88581 16.2787 7.7281 16.2169 7.54295C16.1621 7.37838 16.1278 7.37838 15.9289 7.52238Z" fill="#AD4A3E"/>
<path d="M21.7438 9.35321C21.6958 9.40807 21.5655 9.46292 21.449 9.47664C21.3255 9.49035 21.2227 9.5315 21.209 9.57264C21.1953 9.62064 21.2501 9.64121 21.3598 9.62064C21.5175 9.58635 21.5313 9.60007 21.5381 9.84692C21.5381 9.99778 21.5655 10.2378 21.593 10.3886C21.6341 10.6081 21.6204 10.7109 21.5107 10.8961L21.3735 11.1292L21.545 11.0126C21.7781 10.8618 21.8055 10.7384 21.7027 10.1624C21.6273 9.73035 21.6341 9.66864 21.7507 9.52464L21.8741 9.36007L21.833 9.5795C21.8055 9.69607 21.8261 10.0046 21.8673 10.2515C21.929 10.6012 21.929 10.7315 21.8673 10.8069C21.8193 10.8618 21.8193 10.9029 21.8604 10.9029C22.0181 10.9029 22.0867 10.7041 22.0387 10.3612C22.0044 10.0938 22.0181 9.97721 22.1141 9.83321C22.2101 9.68235 22.2444 9.66864 22.3198 9.74407C22.3678 9.79892 22.4295 9.99778 22.457 10.1898C22.4913 10.4572 22.4775 10.5532 22.3953 10.6218C22.265 10.7315 22.2513 10.9441 22.361 11.0126C22.409 11.0401 22.4295 11.0195 22.409 10.9646C22.3884 10.9098 22.4364 10.7795 22.5118 10.6766C22.6215 10.5189 22.6353 10.4161 22.5941 10.1144C22.5667 9.88121 22.505 9.70978 22.4158 9.6275C22.2855 9.50407 22.2718 9.51092 22.1141 9.70292L21.9495 9.90864L21.9427 9.66864C21.9427 9.34635 21.8535 9.21607 21.7438 9.35321Z" fill="#3E6380"/>
<path d="M22.9506 9.73726C22.7243 9.99784 22.6969 10.4093 22.8889 10.5807C23.0603 10.7384 23.1495 10.7247 23.2729 10.5464C23.4238 10.3338 23.4101 9.86069 23.2592 9.66869L23.1358 9.51783L22.9506 9.73726ZM23.1769 9.93612C23.2592 10.0938 23.2729 10.5601 23.1975 10.5601C23.0398 10.5533 22.9026 10.3544 22.9026 10.135C22.9026 9.79212 23.0398 9.68926 23.1769 9.93612Z" fill="#3E6380"/>
<path d="M23.6433 9.64807C23.5747 9.73721 23.5747 9.76464 23.6433 9.78521C23.6913 9.80578 23.7255 9.94978 23.7255 10.1829C23.7255 10.5669 23.8421 10.7589 23.9861 10.6149C24.0958 10.5052 24.089 10.4229 23.9655 10.4229C23.8901 10.4229 23.8627 10.3475 23.8627 10.1281C23.8627 9.77836 23.9038 9.71664 24.0753 9.81264C24.1713 9.86064 24.2055 9.95664 24.2055 10.1555C24.2055 10.5258 24.3153 10.7384 24.4524 10.6218C24.5758 10.5189 24.5758 10.4229 24.4455 10.4229C24.3153 10.4229 24.3015 9.80578 24.4318 9.6755C24.5004 9.60693 24.4935 9.60007 24.4044 9.63435C24.3358 9.66178 24.2673 9.64121 24.2398 9.60007C24.2055 9.54521 24.1644 9.54521 24.089 9.60693C24.0135 9.6755 23.9587 9.6755 23.8627 9.61378C23.7598 9.55207 23.7187 9.55893 23.6433 9.64807Z" fill="#3E6380"/>
<path d="M24.9392 9.73724C24.6992 9.92238 24.6375 10.279 24.7883 10.519C24.9255 10.7315 25.0352 10.7452 25.1861 10.5738C25.3438 10.4024 25.4192 9.8401 25.3026 9.70295C25.1929 9.56581 25.1518 9.57267 24.9392 9.73724ZM25.1449 9.90867C25.2272 10.0527 25.1655 10.5738 25.0695 10.5395C24.9049 10.4847 24.8089 10.1898 24.8843 9.99095C24.9666 9.78524 25.0626 9.75095 25.1449 9.90867Z" fill="#3E6380"/>
<path d="M25.6044 9.75092C25.577 9.79207 25.5907 9.84692 25.6318 9.86064C25.7347 9.89492 25.7347 10.1829 25.6387 10.3681C25.577 10.4846 25.5907 10.5326 25.7072 10.6492C25.817 10.7589 25.8718 10.7726 25.9267 10.7178C25.9884 10.6561 25.9815 10.6081 25.8992 10.5258C25.7895 10.4161 25.8032 10.0526 25.9267 9.91549C25.9815 9.85378 25.8375 9.66864 25.721 9.66864C25.6867 9.66864 25.6318 9.70292 25.6044 9.75092Z" fill="#3E6380"/>
<path d="M26.105 9.71663C26.0638 9.79891 26.2284 10.1623 26.2833 10.1075C26.3655 10.0252 26.3381 9.82634 26.2353 9.74405C26.1804 9.69605 26.1255 9.6892 26.105 9.71663Z" fill="#3E6380"/>
<path d="M27.7438 10.0663C27.7301 10.0938 27.737 10.1623 27.7781 10.2172C27.8673 10.368 27.8535 10.4092 27.6958 10.4983C27.5587 10.5669 27.5518 10.56 27.5793 10.368C27.5998 10.2103 27.5861 10.176 27.5038 10.1966C27.4353 10.2103 27.3941 10.3063 27.3873 10.4435C27.3804 10.56 27.3461 10.6698 27.305 10.6835C27.2364 10.704 27.4833 11.1703 27.5655 11.1703C27.5861 11.1703 27.6753 11.1155 27.7713 11.04C27.8673 10.9646 27.8878 10.9166 27.8261 10.944C27.7575 10.9646 27.689 10.9303 27.641 10.8412C27.5313 10.6492 27.5381 10.6492 27.8535 10.4846C28.0935 10.3612 28.121 10.3269 28.025 10.272C27.9633 10.2378 27.9084 10.1623 27.9084 10.1143C27.9084 10.0046 27.7987 9.97718 27.7438 10.0663Z" fill="#3E6380"/>
<path d="M28.5598 10.2379C28.4844 10.2859 28.4227 10.3476 28.4227 10.3887C28.4227 10.5396 28.2307 11.1087 28.1827 11.1087C28.0935 11.1087 28.1895 11.3693 28.2855 11.4104C28.3335 11.4242 28.4295 11.3967 28.505 11.3419C28.5735 11.2802 28.5872 11.2527 28.5461 11.2802C28.361 11.3693 28.3335 11.2322 28.4638 10.8344C28.5735 10.519 28.6284 10.4367 28.7175 10.471C28.8135 10.4984 28.8135 10.4916 28.7381 10.4367C28.6832 10.3956 28.6627 10.3202 28.6832 10.2584C28.7312 10.1282 28.7381 10.1282 28.5598 10.2379Z" fill="#3E6380"/>
<path d="M19.4741 10.3887C19.4192 10.4504 19.3232 10.4847 19.2615 10.471C19.193 10.4504 19.1244 10.4779 19.1107 10.5259C19.0832 10.5807 19.1312 10.5944 19.2478 10.5739C19.3438 10.5533 19.4398 10.5807 19.4741 10.6287C19.5084 10.6836 19.5427 10.6493 19.5701 10.5259C19.6318 10.2927 19.5907 10.2447 19.4741 10.3887Z" fill="#3E6380"/>
<path d="M18.9941 10.8687C18.9941 10.999 19.0352 11.0675 19.1381 11.0881C19.2752 11.1292 19.2821 11.1841 19.1655 11.479C19.1175 11.5887 19.1312 11.5955 19.2478 11.5338C19.3232 11.4927 19.4466 11.4721 19.5221 11.4927C19.6043 11.5132 19.6729 11.4927 19.6935 11.4378C19.7209 11.3761 19.6798 11.3418 19.5563 11.3487C19.4398 11.3487 19.3643 11.3075 19.3506 11.2252C19.3163 11.0538 19.5221 10.999 19.6798 11.143C19.8101 11.2595 19.8169 11.2595 19.8169 11.1292C19.8169 10.9852 19.6181 10.7658 19.4946 10.7658C19.4535 10.7658 19.3986 10.8344 19.3781 10.9167L19.3369 11.0744L18.9941 10.6904V10.8687Z" fill="#3E6380"/>
<path d="M18.2055 10.8413C18.1507 10.9236 18.1438 10.9167 18.3975 11.0264C18.617 11.1224 18.6375 11.2184 18.4524 11.2802C18.1781 11.3693 18.2193 11.7739 18.5141 11.9316C18.6307 11.9933 18.6513 11.9864 18.6513 11.8767C18.6513 11.6984 18.7198 11.6504 18.8638 11.7259C19.0215 11.815 19.1175 11.6779 18.9735 11.5682C18.9187 11.5202 18.8021 11.3213 18.7198 11.1224C18.5964 10.8413 18.5347 10.7659 18.4044 10.7659C18.3221 10.7659 18.2261 10.8002 18.2055 10.8413ZM18.6855 11.4859C18.6855 11.575 18.6307 11.6299 18.5347 11.6436C18.4181 11.6642 18.377 11.6299 18.377 11.5339C18.377 11.4653 18.3975 11.383 18.425 11.3556C18.5141 11.2664 18.6855 11.3487 18.6855 11.4859Z" fill="#3E6380"/>
<path d="M29.993 10.8893C29.4718 11.3075 29.6638 12.0755 30.2878 12.0961C30.6718 12.103 30.8638 11.9247 30.8432 11.575C30.8295 11.3418 30.8158 11.3213 30.665 11.3624L30.5004 11.4035L30.617 11.1704C30.7815 10.855 30.7815 10.855 30.8638 11.095C30.9392 11.3144 31.0215 11.3693 31.0901 11.2527C31.1518 11.1567 31.0215 10.8618 30.9118 10.8481C30.8638 10.8413 30.7404 10.8207 30.6444 10.7933C30.4935 10.759 30.4387 10.7864 30.3221 10.9853C30.2467 11.1087 30.1507 11.3007 30.1095 11.4035C29.9861 11.7258 30.1507 11.6024 30.3838 11.191C30.6718 10.6835 30.7267 10.8344 30.4455 11.3761C30.3358 11.6093 30.2535 11.7944 30.2741 11.7944C30.2878 11.7944 30.3427 11.7121 30.3975 11.6161C30.4867 11.4515 30.5004 11.4447 30.6032 11.5544C30.7678 11.7121 30.7472 11.8424 30.5484 11.9727C30.377 12.0824 30.1301 12.0618 30.1987 11.9384C30.2192 11.9041 30.185 11.8835 30.1232 11.8904C29.9518 11.9041 29.8558 11.4447 29.9655 11.1704C30.0135 11.0538 30.0958 10.9167 30.1507 10.8618C30.2878 10.7247 30.1644 10.7453 29.993 10.8893Z" fill="#3E6380"/>
<path d="M20.1598 11.0195C20.1666 11.1429 20.2832 11.2595 20.3243 11.1841C20.3518 11.1429 20.3518 11.0744 20.3312 11.0401C20.2832 10.9578 20.1598 10.9509 20.1598 11.0195Z" fill="#3E6380"/>
<path d="M17.3278 11.2458C17.3072 11.3418 17.3278 11.4447 17.3895 11.4995C17.5267 11.6367 17.7598 12.1098 17.7187 12.1578C17.6638 12.2127 17.9518 12.2881 18.0341 12.2401C18.0684 12.2195 18.1027 12.1441 18.1027 12.0824C18.1027 11.9864 18.0889 11.9864 18.0409 12.0618C17.9929 12.1373 17.9244 12.0755 17.7667 11.8218C17.6501 11.6367 17.5678 11.431 17.5815 11.3624C17.5952 11.3007 17.5815 11.2595 17.5541 11.2801C17.5198 11.3007 17.4649 11.2664 17.4307 11.2047C17.3758 11.1087 17.3621 11.1155 17.3278 11.2458Z" fill="#3E6380"/>
<path d="M16.6284 11.383C16.6489 11.4173 16.6832 11.4516 16.7038 11.4516C16.7175 11.4516 16.7312 11.4173 16.7312 11.383C16.7312 11.3419 16.6969 11.3144 16.6558 11.3144C16.6215 11.3144 16.6078 11.3419 16.6284 11.383Z" fill="#3E6380"/>
<path d="M31.2546 11.8629C31.0901 12.1235 30.9186 12.3429 30.8706 12.3429C30.8021 12.3429 30.8021 12.3704 30.8706 12.4801C30.9804 12.6584 31.0352 12.6515 31.0901 12.4595C31.1107 12.3772 31.2684 12.1029 31.4329 11.8424C31.6249 11.5544 31.7072 11.3829 31.6455 11.3829C31.5906 11.3829 31.4192 11.5955 31.2546 11.8629Z" fill="#3E6380"/>
<path d="M16.0318 11.7053C16.0181 11.7739 16.1553 12.0344 16.3404 12.2881C16.5256 12.5419 16.6558 12.7819 16.6284 12.823C16.601 12.8641 16.6558 12.8916 16.7587 12.8916C16.9644 12.8916 16.9781 12.8573 16.8204 12.6996C16.7587 12.6379 16.5598 12.3567 16.3816 12.0824C16.1553 11.7396 16.0456 11.623 16.0318 11.7053Z" fill="#3E6380"/>
<path d="M16.7175 11.7601C16.6969 11.863 16.7107 11.9315 16.7655 11.9315C16.8067 11.9315 16.9095 12.0481 16.9918 12.199C17.1427 12.4595 17.3278 12.6652 17.3758 12.6104C17.3895 12.5967 17.4238 12.5075 17.4512 12.4252C17.4924 12.2881 17.4787 12.2675 17.3689 12.3018C17.2729 12.3292 17.2044 12.2675 17.0741 12.0481C16.9849 11.8904 16.9095 11.7327 16.9027 11.6984C16.9027 11.5475 16.7449 11.5955 16.7175 11.7601Z" fill="#3E6380"/>
<path d="M31.6935 12.1235C31.4741 12.1921 31.2889 12.5075 31.3232 12.7543C31.3575 12.9738 31.5015 13.0218 31.7484 12.8915C31.9129 12.8023 32.1598 12.3978 32.1598 12.2126C32.1598 12.0618 32.0158 12.0343 31.6935 12.1235ZM31.9266 12.3086C31.9746 12.4321 31.6318 12.9121 31.5358 12.8572C31.4398 12.7955 31.4604 12.5623 31.5838 12.3772C31.7072 12.1852 31.8718 12.1509 31.9266 12.3086Z" fill="#3E6380"/>
<path d="M15.6135 12.5213C15.5998 12.6173 15.6204 12.6858 15.6615 12.6858C15.7027 12.6858 15.8398 12.8298 15.9701 12.9944C16.2238 13.3373 16.3884 13.3921 16.3884 13.1315C16.3884 13.0218 16.3609 12.9738 16.2924 13.0013C16.1964 13.0355 15.7438 12.5281 15.8124 12.4664C15.8329 12.4458 15.7987 12.4115 15.7438 12.391C15.6821 12.3635 15.6341 12.4115 15.6135 12.5213Z" fill="#3E6380"/>
<path d="M32.4135 12.4527C32.393 12.4733 32.393 12.535 32.4067 12.5761C32.4272 12.6241 32.345 12.7681 32.2284 12.8847C31.9815 13.1521 31.9472 13.4401 32.1667 13.4401C32.2764 13.4401 32.297 13.4127 32.2627 13.303C32.2078 13.1247 32.4684 12.7544 32.6535 12.7544C32.7632 12.7544 32.7838 12.7887 32.7632 12.9259C32.7221 13.111 32.7701 13.1453 32.9004 13.015C33.0512 12.8641 32.9964 12.6859 32.8112 12.6859C32.6878 12.6859 32.6398 12.6516 32.6398 12.5487C32.6398 12.4184 32.5095 12.3636 32.4135 12.4527Z" fill="#3E6380"/>
<path d="M14.9552 12.9052C14.9484 13.0492 14.9758 13.159 15.0032 13.1452C15.0787 13.1247 15.497 13.6047 15.497 13.7075C15.497 13.7624 15.5724 13.783 15.689 13.7692C15.8261 13.7555 15.881 13.7075 15.8947 13.5772C15.9152 13.4195 15.9152 13.4127 15.8261 13.5361C15.7301 13.6527 15.7095 13.6458 15.4421 13.3304C15.209 13.0561 15.1747 12.9807 15.2432 12.8915C15.3187 12.8024 15.3118 12.8024 15.209 12.8847C15.0992 12.967 15.0787 12.9532 15.0238 12.8161C14.9621 12.6652 14.9552 12.679 14.9552 12.9052Z" fill="#3E6380"/>
<path d="M33.5998 12.9601C33.5998 12.9944 33.6341 13.0287 33.6684 13.0287C33.7095 13.0287 33.7369 12.9944 33.7369 12.9601C33.7369 12.919 33.7095 12.8916 33.6684 12.8916C33.6341 12.8916 33.5998 12.919 33.5998 12.9601Z" fill="#3E6380"/>
<path d="M33.1884 13.1796C33.1884 13.2276 33.0581 13.3921 32.9072 13.5499C32.6192 13.8447 32.6055 13.9887 32.8524 13.9887C32.9552 13.9887 32.9827 13.9544 32.9484 13.8584C32.921 13.7693 32.9895 13.6596 33.1884 13.4813C33.4901 13.207 33.5312 13.0973 33.3255 13.0973C33.2501 13.0973 33.1884 13.1316 33.1884 13.1796Z" fill="#3E6380"/>
<path d="M14.2215 13.2756C14.2421 13.3373 14.2626 13.4264 14.2626 13.4813C14.2626 13.5362 14.2901 13.5704 14.3243 13.5567C14.4272 13.5293 14.8798 13.9887 14.8798 14.1259C14.8798 14.3659 14.7769 14.3247 14.3243 13.8996L13.8786 13.4744L13.6592 13.7213C13.5358 13.8584 13.4398 14.0436 13.4398 14.1259V14.2767L13.5769 14.119L13.7072 13.9544L13.7141 14.1259C13.7141 14.5099 14.2146 14.8802 14.5643 14.7499C14.7632 14.6676 14.9483 14.4207 14.9483 14.2219C14.9483 14.1053 14.9826 14.0779 15.0855 14.1053C15.2021 14.1327 15.2226 14.1053 15.2226 13.9476C15.2226 13.7967 15.2021 13.7761 15.1541 13.8516C15.1061 13.927 15.0101 13.8721 14.6809 13.5567C14.2626 13.1521 14.1461 13.0836 14.2215 13.2756ZM14.3929 14.0436C14.7632 14.3727 14.8112 14.5373 14.5301 14.5373C14.4478 14.5373 14.3998 14.4893 14.3998 14.4002C14.3998 14.3247 14.2901 14.1464 14.1598 14.0024C14.0089 13.8379 13.9198 13.783 13.9198 13.8584C13.9198 13.9133 14.0158 14.0504 14.1255 14.1602C14.3586 14.3864 14.3929 14.5373 14.2078 14.5373C13.9403 14.5373 13.6866 14.0161 13.8512 13.8173C13.8992 13.7624 13.9541 13.7144 13.9815 13.7144C14.0021 13.7144 14.1872 13.8653 14.3929 14.0436Z" fill="#3E6380"/>
<path d="M33.9427 13.9133C33.9427 14.1533 33.8535 14.2287 33.737 14.0916C33.6204 13.9476 33.3735 13.9613 33.2364 14.1121C33.065 14.3041 33.0855 14.4687 33.2913 14.4687C33.4147 14.4687 33.4627 14.503 33.4627 14.6059C33.4627 14.6881 33.5107 14.743 33.5793 14.743C33.641 14.743 33.6684 14.7224 33.641 14.695C33.6204 14.6676 33.737 14.503 33.9153 14.3247C34.1621 14.0779 34.2238 13.975 34.1827 13.8584C34.1141 13.639 33.9427 13.6801 33.9427 13.9133ZM33.7301 14.1533C33.7918 14.2219 33.785 14.263 33.7027 14.3316C33.5655 14.4413 33.3941 14.3727 33.3941 14.1944C33.3941 14.0367 33.6067 14.0024 33.7301 14.1533Z" fill="#3E6380"/>
<path d="M36.6992 10.1624C36.6375 10.2241 36.6444 10.2721 36.7335 10.3681C36.7952 10.4367 36.8844 10.4915 36.9324 10.4915C37.0832 10.4915 37.1175 10.3475 36.9872 10.2104C36.8501 10.0595 36.809 10.0527 36.6992 10.1624Z" fill="#AD4A3E"/>
<path d="M36.3358 10.6012C36.2604 10.6972 36.2672 10.7315 36.4044 10.8412C36.5964 10.999 36.6787 11.0058 36.7335 10.8687C36.7678 10.7658 36.5827 10.4915 36.4798 10.4915C36.4524 10.4915 36.3838 10.5395 36.3358 10.6012Z" fill="#AD4A3E"/>
<path d="M37.8238 11.3007C37.7758 11.3761 38.153 11.7395 38.2147 11.6778C38.297 11.6024 38.2695 11.4652 38.1529 11.3555C38.0364 11.239 37.8787 11.2115 37.8238 11.3007Z" fill="#AD4A3E"/>
<path d="M38.7358 12.7475C38.6261 12.8572 38.5369 12.9807 38.5369 13.0218C38.5369 13.1315 38.7427 13.303 38.8729 13.303C39.0649 13.303 39.3598 13.0355 39.3598 12.8641C39.3598 12.5075 39.0375 12.4527 38.7358 12.7475Z" fill="#AD4A3E"/>
<path d="M8.8798 12.9601C8.75638 13.0972 8.75638 13.1041 8.88666 13.2001C9.06495 13.3304 9.08552 13.3304 9.18152 13.1384C9.34609 12.8435 9.11295 12.7064 8.8798 12.9601Z" fill="#AD4A3E"/>
<path d="M6.66495 15.3944C6.59638 15.5384 6.60323 15.5727 6.71295 15.6275C6.8158 15.6824 6.85009 15.6618 6.91866 15.5247C6.9598 15.4287 6.98038 15.319 6.9598 15.2847C6.88438 15.1681 6.74038 15.223 6.66495 15.3944Z" fill="#AD4A3E"/>
<path d="M7.15866 15.6001C7.09695 15.6961 7.0558 15.7852 7.06952 15.7921C7.08323 15.8058 7.1518 15.847 7.21352 15.9018C7.31638 15.9772 7.3438 15.9567 7.4398 15.7715C7.61809 15.4218 7.37123 15.271 7.15866 15.6001Z" fill="#AD4A3E"/>
<path d="M42.1027 18.1647C42.1027 18.1921 42.1369 18.3155 42.1781 18.439C42.2398 18.6104 42.2741 18.6378 42.3495 18.5761C42.4729 18.4732 42.4729 18.343 42.3358 18.2127C42.2192 18.0961 42.1027 18.0687 42.1027 18.1647Z" fill="#AD4A3E"/>
<path d="M8.60552 26.5372C8.57809 26.5852 8.60552 26.6675 8.66723 26.7292C8.75638 26.8184 8.80438 26.8252 8.90038 26.7704C8.96209 26.7292 9.01695 26.6538 9.01695 26.599C9.01695 26.4824 8.67409 26.4344 8.60552 26.5372Z" fill="#AD4A3E"/>
<path d="M8.46838 26.8115C8.48895 26.8458 8.5438 26.8801 8.57809 26.8801C8.61923 26.8801 8.62609 26.8458 8.60552 26.8115C8.58495 26.7704 8.53009 26.743 8.4958 26.743C8.45466 26.743 8.4478 26.7704 8.46838 26.8115Z" fill="#AD4A3E"/>
<path d="M9.01695 26.8115C8.99637 26.8458 9.01009 26.8801 9.04437 26.8801C9.08552 26.8801 9.1198 26.8458 9.1198 26.8115C9.1198 26.7704 9.10609 26.743 9.09237 26.743C9.0718 26.743 9.03752 26.7704 9.01695 26.8115Z" fill="#AD4A3E"/>
<path d="M8.43409 27.0858C8.43409 27.1887 8.48209 27.223 8.60552 27.223C8.72895 27.223 8.77695 27.1887 8.77695 27.0858C8.77695 26.983 8.72895 26.9487 8.60552 26.9487C8.48209 26.9487 8.43409 26.983 8.43409 27.0858Z" fill="#AD4A3E"/>
<path d="M8.84552 27.0858C8.84552 27.175 8.89352 27.223 8.98266 27.223C9.0718 27.223 9.1198 27.175 9.1198 27.0858C9.1198 26.9967 9.0718 26.9487 8.98266 26.9487C8.89352 26.9487 8.84552 26.9967 8.84552 27.0858Z" fill="#AD4A3E"/>
<path d="M8.4958 27.3738C8.43409 27.5795 8.46152 27.6344 8.61238 27.6344C8.72895 27.6344 8.77695 27.5932 8.77695 27.4972C8.77695 27.4081 8.72895 27.3601 8.6398 27.3601C8.56438 27.3601 8.50266 27.367 8.4958 27.3738Z" fill="#AD4A3E"/>
<path d="M8.84552 27.4972C8.84552 27.5864 8.89352 27.6344 8.98266 27.6344C9.0718 27.6344 9.1198 27.5864 9.1198 27.4972C9.1198 27.4081 9.0718 27.3601 8.98266 27.3601C8.89352 27.3601 8.84552 27.4081 8.84552 27.4972Z" fill="#AD4A3E"/>
<path d="M11.1221 26.5578C11.0055 26.695 11.2729 26.839 11.4512 26.743C11.6158 26.6538 11.6295 26.5647 11.4787 26.5098C11.3141 26.4481 11.1975 26.4618 11.1221 26.5578Z" fill="#AD4A3E"/>
<path d="M10.9712 26.8115C10.9712 26.8527 11.0192 26.8801 11.0741 26.8801C11.1289 26.8801 11.1769 26.8664 11.1769 26.8527C11.1769 26.839 11.1289 26.8115 11.0741 26.7841C11.0192 26.7635 10.9712 26.7772 10.9712 26.8115Z" fill="#AD4A3E"/>
<path d="M11.5541 26.8115C11.5335 26.8458 11.5472 26.8801 11.5815 26.8801C11.6227 26.8801 11.6569 26.8458 11.6569 26.8115C11.6569 26.7704 11.6432 26.743 11.6295 26.743C11.6089 26.743 11.5747 26.7704 11.5541 26.8115Z" fill="#AD4A3E"/>
<path d="M10.9712 27.0858C10.9712 27.175 11.0192 27.223 11.1084 27.223C11.1975 27.223 11.2455 27.175 11.2455 27.0858C11.2455 26.9967 11.1975 26.9487 11.1084 26.9487C11.0192 26.9487 10.9712 26.9967 10.9712 27.0858Z" fill="#AD4A3E"/>
<path d="M11.3827 27.0858C11.3827 27.175 11.4307 27.223 11.5198 27.223C11.6089 27.223 11.6569 27.175 11.6569 27.0858C11.6569 26.9967 11.6089 26.9487 11.5198 26.9487C11.4307 26.9487 11.3827 26.9967 11.3827 27.0858Z" fill="#AD4A3E"/>
<path d="M10.9712 27.4972C10.9712 27.5864 11.0192 27.6344 11.1084 27.6344C11.1975 27.6344 11.2455 27.5864 11.2455 27.4972C11.2455 27.4081 11.1975 27.3601 11.1084 27.3601C11.0192 27.3601 10.9712 27.4081 10.9712 27.4972Z" fill="#AD4A3E"/>
<path d="M11.3827 27.4972C11.3827 27.5864 11.4307 27.6344 11.5198 27.6344C11.6089 27.6344 11.6569 27.5864 11.6569 27.4972C11.6569 27.4081 11.6089 27.3601 11.5198 27.3601C11.4307 27.3601 11.3827 27.4081 11.3827 27.4972Z" fill="#AD4A3E"/>
<path d="M13.6661 26.5167C13.5358 26.5647 13.5564 26.6607 13.7141 26.743C13.8101 26.7978 13.8855 26.791 13.9815 26.7292C14.2215 26.5852 13.9472 26.4001 13.6661 26.5167Z" fill="#AD4A3E"/>
<path d="M13.5084 26.8115C13.5084 26.8458 13.5427 26.8801 13.5838 26.8801C13.6181 26.8801 13.6318 26.8458 13.6112 26.8115C13.5907 26.7704 13.5564 26.743 13.5358 26.743C13.5221 26.743 13.5084 26.7704 13.5084 26.8115Z" fill="#AD4A3E"/>
<path d="M14.0569 26.8115C13.9678 26.8664 13.9747 26.8801 14.0775 26.8801C14.1392 26.8801 14.1941 26.8458 14.1941 26.8115C14.1941 26.7292 14.1872 26.7292 14.0569 26.8115Z" fill="#AD4A3E"/>
<path d="M13.5084 27.0858C13.5084 27.175 13.5564 27.223 13.6455 27.223C13.7347 27.223 13.7827 27.175 13.7827 27.0858C13.7827 26.9967 13.7347 26.9487 13.6455 26.9487C13.5564 26.9487 13.5084 26.9967 13.5084 27.0858Z" fill="#AD4A3E"/>
<path d="M13.9198 27.0858C13.9198 27.175 13.9678 27.223 14.0569 27.223C14.1461 27.223 14.1941 27.175 14.1941 27.0858C14.1941 26.9967 14.1461 26.9487 14.0569 26.9487C13.9678 26.9487 13.9198 26.9967 13.9198 27.0858Z" fill="#AD4A3E"/>
<path d="M13.5084 27.4972C13.5084 27.5864 13.5564 27.6344 13.6455 27.6344C13.7347 27.6344 13.7827 27.5864 13.7827 27.4972C13.7827 27.4081 13.7347 27.3601 13.6455 27.3601C13.5564 27.3601 13.5084 27.4081 13.5084 27.4972Z" fill="#AD4A3E"/>
<path d="M13.9198 27.4972C13.9198 27.5864 13.9678 27.6344 14.0569 27.6344C14.1461 27.6344 14.1941 27.5864 14.1941 27.4972C14.1941 27.4081 14.1461 27.3601 14.0569 27.3601C13.9678 27.3601 13.9198 27.4081 13.9198 27.4972Z" fill="#AD4A3E"/>
<path d="M16.1484 26.5372C16.1209 26.5852 16.1484 26.6675 16.2101 26.7292C16.2992 26.8184 16.3472 26.8252 16.4432 26.7704C16.5049 26.7292 16.5598 26.6538 16.5598 26.599C16.5598 26.4824 16.2169 26.4344 16.1484 26.5372Z" fill="#AD4A3E"/>
<path d="M16.0455 26.8115C16.0455 26.8458 16.0798 26.8801 16.1209 26.8801C16.1552 26.8801 16.1689 26.8458 16.1484 26.8115C16.1278 26.7704 16.0935 26.743 16.0729 26.743C16.0592 26.743 16.0455 26.7704 16.0455 26.8115Z" fill="#AD4A3E"/>
<path d="M16.5598 26.8115C16.5392 26.8458 16.5529 26.8801 16.5872 26.8801C16.6284 26.8801 16.6627 26.8458 16.6627 26.8115C16.6627 26.7704 16.6489 26.743 16.6352 26.743C16.6147 26.743 16.5804 26.7704 16.5598 26.8115Z" fill="#AD4A3E"/>
<path d="M16.0455 27.0858C16.0455 27.175 16.0935 27.223 16.1827 27.223C16.2718 27.223 16.3198 27.175 16.3198 27.0858C16.3198 26.9967 16.2718 26.9487 16.1827 26.9487C16.0935 26.9487 16.0455 26.9967 16.0455 27.0858Z" fill="#AD4A3E"/>
<path d="M16.3884 27.0858C16.3884 27.175 16.4364 27.223 16.5255 27.223C16.6147 27.223 16.6627 27.175 16.6627 27.0858C16.6627 26.9967 16.6147 26.9487 16.5255 26.9487C16.4364 26.9487 16.3884 26.9967 16.3884 27.0858Z" fill="#AD4A3E"/>
<path d="M16.0455 27.4972C16.0455 27.5864 16.0935 27.6344 16.1827 27.6344C16.2718 27.6344 16.3198 27.5864 16.3198 27.4972C16.3198 27.4081 16.2718 27.3601 16.1827 27.3601C16.0935 27.3601 16.0455 27.4081 16.0455 27.4972Z" fill="#AD4A3E"/>
<path d="M16.3884 27.4972C16.3884 27.5864 16.4364 27.6344 16.5255 27.6344C16.6147 27.6344 16.6627 27.5864 16.6627 27.4972C16.6627 27.4081 16.6147 27.3601 16.5255 27.3601C16.4364 27.3601 16.3884 27.4081 16.3884 27.4972Z" fill="#AD4A3E"/>
<path d="M18.6855 26.5372C18.6581 26.5852 18.6855 26.6675 18.7472 26.7292C18.8364 26.8184 18.8844 26.8252 18.9804 26.7704C19.0421 26.7292 19.0969 26.6538 19.0969 26.599C19.0969 26.4824 18.7541 26.4344 18.6855 26.5372Z" fill="#AD4A3E"/>
<path d="M18.5141 26.8115C18.5141 26.8458 18.5621 26.8801 18.6238 26.8801C18.6787 26.8801 18.7061 26.8458 18.6855 26.8115C18.6649 26.7704 18.6169 26.743 18.5758 26.743C18.5415 26.743 18.5141 26.7704 18.5141 26.8115Z" fill="#AD4A3E"/>
<path d="M19.097 26.8115C19.0764 26.8458 19.0901 26.8801 19.1244 26.8801C19.1655 26.8801 19.1998 26.8458 19.1998 26.8115C19.1998 26.7704 19.1861 26.743 19.1724 26.743C19.1518 26.743 19.1175 26.7704 19.097 26.8115Z" fill="#AD4A3E"/>
<path d="M18.5141 27.0858C18.5141 27.1887 18.5621 27.223 18.6855 27.223C18.8089 27.223 18.8569 27.1887 18.8569 27.0858C18.8569 26.983 18.8089 26.9487 18.6855 26.9487C18.5621 26.9487 18.5141 26.983 18.5141 27.0858Z" fill="#AD4A3E"/>
<path d="M18.9255 27.0858C18.9255 27.175 18.9735 27.223 19.0627 27.223C19.1518 27.223 19.1998 27.175 19.1998 27.0858C19.1998 26.9967 19.1518 26.9487 19.0627 26.9487C18.9735 26.9487 18.9255 26.9967 18.9255 27.0858Z" fill="#AD4A3E"/>
<path d="M18.5141 27.4972C18.5141 27.6001 18.5621 27.6344 18.6855 27.6344C18.8089 27.6344 18.8569 27.6001 18.8569 27.4972C18.8569 27.3944 18.8089 27.3601 18.6855 27.3601C18.5621 27.3601 18.5141 27.3944 18.5141 27.4972Z" fill="#AD4A3E"/>
<path d="M18.9255 27.4972C18.9255 27.5864 18.9735 27.6344 19.0627 27.6344C19.1518 27.6344 19.1998 27.5864 19.1998 27.4972C19.1998 27.4081 19.1518 27.3601 19.0627 27.3601C18.9735 27.3601 18.9255 27.4081 18.9255 27.4972Z" fill="#AD4A3E"/>
<path d="M21.2021 26.5578C21.0855 26.695 21.3529 26.839 21.5381 26.743C21.6478 26.6812 21.6615 26.647 21.5929 26.5647C21.4969 26.4481 21.2981 26.4412 21.2021 26.5578Z" fill="#AD4A3E"/>
<path d="M21.0512 26.8115C21.0512 26.8527 21.0992 26.8801 21.1541 26.8801C21.2089 26.8801 21.2569 26.8664 21.2569 26.8527C21.2569 26.839 21.2089 26.8115 21.1541 26.7841C21.0992 26.7635 21.0512 26.7772 21.0512 26.8115Z" fill="#AD4A3E"/>
<path d="M21.5998 26.8115C21.5107 26.8664 21.5175 26.8801 21.6204 26.8801C21.6821 26.8801 21.737 26.8458 21.737 26.8115C21.737 26.7292 21.7301 26.7292 21.5998 26.8115Z" fill="#AD4A3E"/>
<path d="M21.0512 27.0858C21.0512 27.175 21.0992 27.223 21.1884 27.223C21.2775 27.223 21.3255 27.175 21.3255 27.0858C21.3255 26.9967 21.2775 26.9487 21.1884 26.9487C21.0992 26.9487 21.0512 26.9967 21.0512 27.0858Z" fill="#AD4A3E"/>
<path d="M21.4627 27.0858C21.4627 27.175 21.5107 27.223 21.5998 27.223C21.6889 27.223 21.7369 27.175 21.7369 27.0858C21.7369 26.9967 21.6889 26.9487 21.5998 26.9487C21.5107 26.9487 21.4627 26.9967 21.4627 27.0858Z" fill="#AD4A3E"/>
<path d="M21.0512 27.4972C21.0512 27.5864 21.0992 27.6344 21.1884 27.6344C21.2775 27.6344 21.3255 27.5864 21.3255 27.4972C21.3255 27.4081 21.2775 27.3601 21.1884 27.3601C21.0992 27.3601 21.0512 27.4081 21.0512 27.4972Z" fill="#AD4A3E"/>
<path d="M21.4627 27.4972C21.4627 27.5864 21.5107 27.6344 21.5998 27.6344C21.6889 27.6344 21.7369 27.5864 21.7369 27.4972C21.7369 27.4081 21.6889 27.3601 21.5998 27.3601C21.5107 27.3601 21.4627 27.4081 21.4627 27.4972Z" fill="#AD4A3E"/>
<path d="M23.7049 26.5167C23.6227 26.5921 23.6501 26.6675 23.7941 26.743C23.9724 26.839 24.2398 26.695 24.1232 26.5578C24.0478 26.4618 23.7804 26.4344 23.7049 26.5167Z" fill="#AD4A3E"/>
<path d="M23.5884 26.8115C23.5884 26.8458 23.6227 26.8801 23.6638 26.8801C23.6981 26.8801 23.7118 26.8458 23.6912 26.8115C23.6707 26.7704 23.6364 26.743 23.6158 26.743C23.6021 26.743 23.5884 26.7704 23.5884 26.8115Z" fill="#AD4A3E"/>
<path d="M24.1027 26.8115C24.0821 26.8458 24.1095 26.8801 24.1644 26.8801C24.2261 26.8801 24.2741 26.8458 24.2741 26.8115C24.2741 26.7704 24.2467 26.743 24.2124 26.743C24.1712 26.743 24.1232 26.7704 24.1027 26.8115Z" fill="#AD4A3E"/>
<path d="M23.5884 27.0858C23.5884 27.175 23.6364 27.223 23.7255 27.223C23.8147 27.223 23.8627 27.175 23.8627 27.0858C23.8627 26.9967 23.8147 26.9487 23.7255 26.9487C23.6364 26.9487 23.5884 26.9967 23.5884 27.0858Z" fill="#AD4A3E"/>
<path d="M23.9998 27.0858C23.9998 27.175 24.0478 27.223 24.1369 27.223C24.2261 27.223 24.2741 27.175 24.2741 27.0858C24.2741 26.9967 24.2261 26.9487 24.1369 26.9487C24.0478 26.9487 23.9998 26.9967 23.9998 27.0858Z" fill="#AD4A3E"/>
<path d="M23.5884 27.4972C23.5884 27.5864 23.6364 27.6344 23.7255 27.6344C23.8147 27.6344 23.8627 27.5864 23.8627 27.4972C23.8627 27.4081 23.8147 27.3601 23.7255 27.3601C23.6364 27.3601 23.5884 27.4081 23.5884 27.4972Z" fill="#AD4A3E"/>
<path d="M23.9998 27.4972C23.9998 27.5864 24.0478 27.6344 24.1369 27.6344C24.2261 27.6344 24.2741 27.5864 24.2741 27.4972C24.2741 27.4081 24.2261 27.3601 24.1369 27.3601C24.0478 27.3601 23.9998 27.4081 23.9998 27.4972Z" fill="#AD4A3E"/>
<path d="M26.2284 26.5372C26.2009 26.5852 26.2284 26.6675 26.2901 26.7292C26.3792 26.8184 26.4272 26.8252 26.5232 26.7704C26.5849 26.7292 26.6398 26.6538 26.6398 26.599C26.6398 26.4824 26.2969 26.4344 26.2284 26.5372Z" fill="#AD4A3E"/>
<path d="M26.1255 26.8115C26.1255 26.8458 26.1598 26.8801 26.2009 26.8801C26.2352 26.8801 26.2489 26.8458 26.2284 26.8115C26.2078 26.7704 26.1735 26.743 26.1529 26.743C26.1392 26.743 26.1255 26.7704 26.1255 26.8115Z" fill="#AD4A3E"/>
<path d="M26.6398 26.8115C26.6192 26.8458 26.633 26.8801 26.6672 26.8801C26.7084 26.8801 26.7427 26.8458 26.7427 26.8115C26.7427 26.7704 26.729 26.743 26.7152 26.743C26.6947 26.743 26.6604 26.7704 26.6398 26.8115Z" fill="#AD4A3E"/>
<path d="M26.1255 27.0858C26.1255 27.175 26.1735 27.223 26.2627 27.223C26.3518 27.223 26.3998 27.175 26.3998 27.0858C26.3998 26.9967 26.3518 26.9487 26.2627 26.9487C26.1735 26.9487 26.1255 26.9967 26.1255 27.0858Z" fill="#AD4A3E"/>
<path d="M26.4684 27.0858C26.4684 27.175 26.5164 27.223 26.6055 27.223C26.6947 27.223 26.7427 27.175 26.7427 27.0858C26.7427 26.9967 26.6947 26.9487 26.6055 26.9487C26.5164 26.9487 26.4684 26.9967 26.4684 27.0858Z" fill="#AD4A3E"/>
<path d="M26.1255 27.4972C26.1255 27.5864 26.1735 27.6344 26.2627 27.6344C26.3518 27.6344 26.3998 27.5864 26.3998 27.4972C26.3998 27.4081 26.3518 27.3601 26.2627 27.3601C26.1735 27.3601 26.1255 27.4081 26.1255 27.4972Z" fill="#AD4A3E"/>
<path d="M26.4684 27.4972C26.4684 27.5864 26.5164 27.6344 26.6055 27.6344C26.6947 27.6344 26.7427 27.5864 26.7427 27.4972C26.7427 27.4081 26.6947 27.3601 26.6055 27.3601C26.5164 27.3601 26.4684 27.4081 26.4684 27.4972Z" fill="#AD4A3E"/>
<path d="M28.7655 26.5372C28.7381 26.5852 28.7655 26.6675 28.8272 26.7292C28.9164 26.8184 28.9644 26.8252 29.0604 26.7704C29.1221 26.7292 29.177 26.6538 29.177 26.599C29.177 26.4824 28.8341 26.4344 28.7655 26.5372Z" fill="#AD4A3E"/>
<path d="M28.5941 26.8115C28.5941 26.8458 28.6421 26.8801 28.7038 26.8801C28.7587 26.8801 28.7861 26.8458 28.7655 26.8115C28.7449 26.7704 28.6969 26.743 28.6558 26.743C28.6215 26.743 28.5941 26.7704 28.5941 26.8115Z" fill="#AD4A3E"/>
<path d="M29.1769 26.8115C29.1564 26.8458 29.1701 26.8801 29.2044 26.8801C29.2455 26.8801 29.2798 26.8458 29.2798 26.8115C29.2798 26.7704 29.2661 26.743 29.2524 26.743C29.2318 26.743 29.1975 26.7704 29.1769 26.8115Z" fill="#AD4A3E"/>
<path d="M28.5941 27.0858C28.5941 27.175 28.6421 27.223 28.7244 27.223C28.7929 27.223 28.8684 27.1612 28.8889 27.0858C28.9164 26.9761 28.8889 26.9487 28.7587 26.9487C28.6421 26.9487 28.5941 26.9898 28.5941 27.0858Z" fill="#AD4A3E"/>
<path d="M29.0055 27.0858C29.0055 27.175 29.0535 27.223 29.1427 27.223C29.2318 27.223 29.2798 27.175 29.2798 27.0858C29.2798 26.9967 29.2318 26.9487 29.1427 26.9487C29.0535 26.9487 29.0055 26.9967 29.0055 27.0858Z" fill="#AD4A3E"/>
<path d="M28.5941 27.4972C28.5941 27.5864 28.6421 27.6344 28.7312 27.6344C28.8204 27.6344 28.8684 27.5864 28.8684 27.4972C28.8684 27.4081 28.8204 27.3601 28.7312 27.3601C28.6421 27.3601 28.5941 27.4081 28.5941 27.4972Z" fill="#AD4A3E"/>
<path d="M29.0055 27.4972C29.0055 27.5864 29.0535 27.6344 29.1427 27.6344C29.2318 27.6344 29.2798 27.5864 29.2798 27.4972C29.2798 27.4081 29.2318 27.3601 29.1427 27.3601C29.0535 27.3601 29.0055 27.4081 29.0055 27.4972Z" fill="#AD4A3E"/>
<path d="M31.2752 26.5647C31.1518 26.7087 31.4192 26.8458 31.6112 26.743C31.7758 26.6538 31.7895 26.5647 31.6387 26.5098C31.4672 26.4412 31.3575 26.4618 31.2752 26.5647Z" fill="#AD4A3E"/>
<path d="M31.1312 26.8115C31.1312 26.8527 31.1792 26.8801 31.2341 26.8801C31.2889 26.8801 31.3369 26.8664 31.3369 26.8527C31.3369 26.839 31.2889 26.8115 31.2341 26.7841C31.1792 26.7635 31.1312 26.7772 31.1312 26.8115Z" fill="#AD4A3E"/>
<path d="M31.6798 26.8115C31.5907 26.8664 31.5975 26.8801 31.7004 26.8801C31.7621 26.8801 31.8169 26.8458 31.8169 26.8115C31.8169 26.7292 31.8101 26.7292 31.6798 26.8115Z" fill="#AD4A3E"/>
<path d="M31.1312 27.0858C31.1312 27.175 31.1792 27.223 31.2684 27.223C31.3575 27.223 31.4055 27.175 31.4055 27.0858C31.4055 26.9967 31.3575 26.9487 31.2684 26.9487C31.1792 26.9487 31.1312 26.9967 31.1312 27.0858Z" fill="#AD4A3E"/>
<path d="M31.5427 27.0858C31.5427 27.175 31.5907 27.223 31.6798 27.223C31.7689 27.223 31.8169 27.175 31.8169 27.0858C31.8169 26.9967 31.7689 26.9487 31.6798 26.9487C31.5907 26.9487 31.5427 26.9967 31.5427 27.0858Z" fill="#AD4A3E"/>
<path d="M31.1312 27.4972C31.1312 27.5864 31.1792 27.6344 31.2684 27.6344C31.3575 27.6344 31.4055 27.5864 31.4055 27.4972C31.4055 27.4081 31.3575 27.3601 31.2684 27.3601C31.1792 27.3601 31.1312 27.4081 31.1312 27.4972Z" fill="#AD4A3E"/>
<path d="M31.5427 27.4972C31.5427 27.5864 31.5907 27.6344 31.6798 27.6344C31.7689 27.6344 31.8169 27.5864 31.8169 27.4972C31.8169 27.4081 31.7689 27.3601 31.6798 27.3601C31.5907 27.3601 31.5427 27.4081 31.5427 27.4972Z" fill="#AD4A3E"/>
<path d="M33.7712 26.5372C33.7438 26.5852 33.7712 26.6675 33.833 26.7292C33.9221 26.8184 33.9701 26.8252 34.0661 26.7704C34.1278 26.7292 34.1827 26.6538 34.1827 26.599C34.1827 26.4824 33.8398 26.4344 33.7712 26.5372Z" fill="#AD4A3E"/>
<path d="M33.6684 26.8115C33.6684 26.8458 33.7027 26.8801 33.7438 26.8801C33.7781 26.8801 33.7918 26.8458 33.7712 26.8115C33.7507 26.7704 33.7164 26.743 33.6958 26.743C33.6821 26.743 33.6684 26.7704 33.6684 26.8115Z" fill="#AD4A3E"/>
<path d="M34.1827 26.8115C34.1621 26.8458 34.1895 26.8801 34.2444 26.8801C34.3061 26.8801 34.3541 26.8458 34.3541 26.8115C34.3541 26.7704 34.3267 26.743 34.2924 26.743C34.2512 26.743 34.2032 26.7704 34.1827 26.8115Z" fill="#AD4A3E"/>
<path d="M33.6684 27.0858C33.6684 27.175 33.7164 27.223 33.8055 27.223C33.8947 27.223 33.9427 27.175 33.9427 27.0858C33.9427 26.9967 33.8947 26.9487 33.8055 26.9487C33.7164 26.9487 33.6684 26.9967 33.6684 27.0858Z" fill="#AD4A3E"/>
<path d="M34.0318 27.0858C34.0387 27.1818 34.0867 27.223 34.1964 27.223C34.3061 27.223 34.3541 27.1818 34.3541 27.0858C34.3541 26.983 34.3061 26.9487 34.1895 26.9487C34.0592 26.9487 34.025 26.983 34.0318 27.0858Z" fill="#AD4A3E"/>
<path d="M33.6684 27.4972C33.6684 27.5864 33.7164 27.6344 33.8055 27.6344C33.8947 27.6344 33.9427 27.5864 33.9427 27.4972C33.9427 27.4081 33.8947 27.3601 33.8055 27.3601C33.7164 27.3601 33.6684 27.4081 33.6684 27.4972Z" fill="#AD4A3E"/>
<path d="M34.0249 27.4767C34.0387 27.5452 34.1141 27.607 34.2032 27.6207C34.3198 27.6412 34.3541 27.607 34.3541 27.5041C34.3541 27.3944 34.313 27.3601 34.1758 27.3601C34.0455 27.3601 34.0044 27.3944 34.0249 27.4767Z" fill="#AD4A3E"/>
<path d="M36.3084 26.5372C36.281 26.5852 36.3084 26.6675 36.3701 26.7292C36.4592 26.8184 36.5072 26.8252 36.6032 26.7704C36.665 26.7292 36.7198 26.6538 36.7198 26.599C36.7198 26.4824 36.377 26.4344 36.3084 26.5372Z" fill="#AD4A3E"/>
<path d="M36.2055 26.8115C36.2055 26.8458 36.2398 26.8801 36.2809 26.8801C36.3152 26.8801 36.3289 26.8458 36.3084 26.8115C36.2878 26.7704 36.2535 26.743 36.2329 26.743C36.2192 26.743 36.2055 26.7704 36.2055 26.8115Z" fill="#AD4A3E"/>
<path d="M36.7198 26.8115C36.6992 26.8458 36.7129 26.8801 36.7472 26.8801C36.7884 26.8801 36.8227 26.8458 36.8227 26.8115C36.8227 26.7704 36.8089 26.743 36.7952 26.743C36.7747 26.743 36.7404 26.7704 36.7198 26.8115Z" fill="#AD4A3E"/>
<path d="M36.2055 27.0858C36.2055 27.175 36.2535 27.223 36.3427 27.223C36.4318 27.223 36.4798 27.175 36.4798 27.0858C36.4798 26.9967 36.4318 26.9487 36.3427 26.9487C36.2535 26.9487 36.2055 26.9967 36.2055 27.0858Z" fill="#AD4A3E"/>
<path d="M36.5484 27.0858C36.5484 27.175 36.5964 27.223 36.6855 27.223C36.7747 27.223 36.8227 27.175 36.8227 27.0858C36.8227 26.9967 36.7747 26.9487 36.6855 26.9487C36.5964 26.9487 36.5484 26.9967 36.5484 27.0858Z" fill="#AD4A3E"/>
<path d="M36.2055 27.4972C36.2055 27.5864 36.2535 27.6344 36.3427 27.6344C36.4318 27.6344 36.4798 27.5864 36.4798 27.4972C36.4798 27.4081 36.4318 27.3601 36.3427 27.3601C36.2535 27.3601 36.2055 27.4081 36.2055 27.4972Z" fill="#AD4A3E"/>
<path d="M36.5484 27.4972C36.5484 27.5864 36.5964 27.6344 36.6855 27.6344C36.7747 27.6344 36.8227 27.5864 36.8227 27.4972C36.8227 27.4081 36.7747 27.3601 36.6855 27.3601C36.5964 27.3601 36.5484 27.4081 36.5484 27.4972Z" fill="#AD4A3E"/>
<path d="M38.8455 26.5372C38.7975 26.6127 38.9209 26.8115 39.0101 26.8115C39.0375 26.8115 39.1198 26.7635 39.1952 26.7087C39.3049 26.6195 39.3118 26.599 39.2227 26.5372C39.0855 26.4481 38.9004 26.4481 38.8455 26.5372Z" fill="#AD4A3E"/>
<path d="M38.6741 26.8115C38.6741 26.8458 38.7221 26.8801 38.7838 26.8801C38.8387 26.8801 38.8661 26.8458 38.8455 26.8115C38.8249 26.7704 38.7769 26.743 38.7358 26.743C38.7015 26.743 38.6741 26.7704 38.6741 26.8115Z" fill="#AD4A3E"/>
<path d="M39.2569 26.8115C39.2364 26.8458 39.2501 26.8801 39.2844 26.8801C39.3255 26.8801 39.3598 26.8458 39.3598 26.8115C39.3598 26.7704 39.3461 26.743 39.3324 26.743C39.3118 26.743 39.2775 26.7704 39.2569 26.8115Z" fill="#AD4A3E"/>
<path d="M38.6741 27.0858C38.6741 27.175 38.7221 27.223 38.8112 27.223C38.9004 27.223 38.9484 27.175 38.9484 27.0858C38.9484 26.9967 38.9004 26.9487 38.8112 26.9487C38.7221 26.9487 38.6741 26.9967 38.6741 27.0858Z" fill="#AD4A3E"/>
<path d="M39.0855 27.0858C39.0855 27.175 39.1335 27.223 39.2227 27.223C39.3118 27.223 39.3598 27.175 39.3598 27.0858C39.3598 26.9967 39.3118 26.9487 39.2227 26.9487C39.1335 26.9487 39.0855 26.9967 39.0855 27.0858Z" fill="#AD4A3E"/>
<path d="M38.6741 27.4972C38.6741 27.5864 38.7221 27.6344 38.8112 27.6344C38.9004 27.6344 38.9484 27.5864 38.9484 27.4972C38.9484 27.4081 38.9004 27.3601 38.8112 27.3601C38.7221 27.3601 38.6741 27.4081 38.6741 27.4972Z" fill="#AD4A3E"/>
<path d="M39.0855 27.4972C39.0855 27.5864 39.1335 27.6344 39.2227 27.6344C39.3118 27.6344 39.3598 27.5864 39.3598 27.4972C39.3598 27.4081 39.3118 27.3601 39.2227 27.3601C39.1335 27.3601 39.0855 27.4081 39.0855 27.4972Z" fill="#AD4A3E"/>
<path d="M8.36552 29.8904C8.36552 30.0755 8.37923 30.0892 8.55752 30.0412C8.8318 29.9658 8.83866 29.6915 8.56438 29.6915C8.39295 29.6915 8.36552 29.719 8.36552 29.8904Z" fill="#AD4A3E"/>
<path d="M8.84552 29.8561C8.84552 29.9521 8.89352 30.0275 8.96895 30.0481C9.16095 30.103 9.25695 30.0344 9.25695 29.8561C9.25695 29.719 9.22266 29.6915 9.05123 29.6915C8.8798 29.6915 8.84552 29.719 8.84552 29.8561Z" fill="#AD4A3E"/>
<path d="M8.36552 30.3841C8.36552 30.5692 8.38609 30.5898 8.55752 30.5692C8.7358 30.5487 8.74952 30.5144 8.71523 30.2401C8.71523 30.199 8.63295 30.1715 8.53695 30.1715C8.39295 30.1715 8.36552 30.2058 8.36552 30.3841Z" fill="#AD4A3E"/>
<path d="M8.84552 30.3772C8.84552 30.5624 8.86609 30.583 9.05123 30.583C9.23638 30.583 9.25695 30.5624 9.25695 30.3772C9.25695 30.1921 9.23638 30.1715 9.05123 30.1715C8.86609 30.1715 8.84552 30.1921 8.84552 30.3772Z" fill="#AD4A3E"/>
<path d="M8.36552 30.8504C8.36552 31.0287 8.39295 31.063 8.53695 31.063C8.63295 31.063 8.71523 31.0287 8.71523 30.9944C8.74952 30.7201 8.7358 30.6858 8.55752 30.6652C8.38609 30.6447 8.36552 30.6652 8.36552 30.8504Z" fill="#AD4A3E"/>
<path d="M8.84552 30.8572C8.84552 31.0424 8.86609 31.063 9.05123 31.063C9.23638 31.063 9.25695 31.0424 9.25695 30.8572C9.25695 30.6721 9.23638 30.6515 9.05123 30.6515C8.86609 30.6515 8.84552 30.6721 8.84552 30.8572Z" fill="#AD4A3E"/>
<path d="M10.9027 29.8561C10.9027 29.959 10.9507 30.0344 11.0329 30.055C11.2044 30.0961 11.2455 30.055 11.2455 29.8492C11.2455 29.7258 11.2112 29.6915 11.0741 29.6915C10.9369 29.6915 10.9027 29.7258 10.9027 29.8561Z" fill="#AD4A3E"/>
<path d="M11.3827 29.8767C11.3827 30.0344 11.4101 30.0687 11.5541 30.0687C11.6981 30.0687 11.7255 30.0344 11.7255 29.8767C11.7255 29.7258 11.6981 29.6915 11.5541 29.6915C11.4101 29.6915 11.3827 29.7258 11.3827 29.8767Z" fill="#AD4A3E"/>
<path d="M10.9027 30.3772C10.9027 30.5487 10.9301 30.583 11.0741 30.583C11.2181 30.583 11.2455 30.5487 11.2455 30.3772C11.2455 30.2058 11.2181 30.1715 11.0741 30.1715C10.9301 30.1715 10.9027 30.2058 10.9027 30.3772Z" fill="#AD4A3E"/>
<path d="M11.3827 30.3772C11.3827 30.5487 11.4101 30.583 11.5541 30.583C11.6981 30.583 11.7255 30.5487 11.7255 30.3772C11.7255 30.2058 11.6981 30.1715 11.5541 30.1715C11.4101 30.1715 11.3827 30.2058 11.3827 30.3772Z" fill="#AD4A3E"/>
<path d="M10.9027 30.8572C10.9027 31.0287 10.9301 31.063 11.0741 31.063C11.2181 31.063 11.2455 31.0287 11.2455 30.8572C11.2455 30.6858 11.2181 30.6515 11.0741 30.6515C10.9301 30.6515 10.9027 30.6858 10.9027 30.8572Z" fill="#AD4A3E"/>
<path d="M11.3827 30.8572C11.3827 31.0287 11.4101 31.063 11.5541 31.063C11.6981 31.063 11.7255 31.0287 11.7255 30.8572C11.7255 30.6858 11.6981 30.6515 11.5541 30.6515C11.4101 30.6515 11.3827 30.6858 11.3827 30.8572Z" fill="#AD4A3E"/>
<path d="M13.4398 29.8904C13.4398 30.0618 13.4604 30.0824 13.6112 30.0481C13.7347 30.0275 13.7827 29.9727 13.7827 29.8561C13.7827 29.7258 13.7484 29.6915 13.6112 29.6915C13.4672 29.6915 13.4398 29.7258 13.4398 29.8904Z" fill="#AD4A3E"/>
<path d="M13.9198 29.8561C13.9198 29.9452 13.9609 30.0344 14.0089 30.055C14.1598 30.103 14.2627 30.0275 14.2627 29.8561C14.2627 29.7258 14.2284 29.6915 14.0912 29.6915C13.9541 29.6915 13.9198 29.7258 13.9198 29.8561Z" fill="#AD4A3E"/>
<path d="M13.4398 30.3772C13.4398 30.5487 13.4672 30.583 13.6112 30.583C13.7552 30.583 13.7827 30.5487 13.7827 30.3772C13.7827 30.2058 13.7552 30.1715 13.6112 30.1715C13.4672 30.1715 13.4398 30.2058 13.4398 30.3772Z" fill="#AD4A3E"/>
<path d="M13.9198 30.3772C13.9198 30.5487 13.9472 30.583 14.0912 30.583C14.2352 30.583 14.2627 30.5487 14.2627 30.3772C14.2627 30.2058 14.2352 30.1715 14.0912 30.1715C13.9472 30.1715 13.9198 30.2058 13.9198 30.3772Z" fill="#AD4A3E"/>
<path d="M13.4398 30.8572C13.4398 31.0287 13.4672 31.063 13.6112 31.063C13.7552 31.063 13.7827 31.0287 13.7827 30.8572C13.7827 30.6858 13.7552 30.6515 13.6112 30.6515C13.4672 30.6515 13.4398 30.6858 13.4398 30.8572Z" fill="#AD4A3E"/>
<path d="M13.9198 30.8572C13.9198 31.0287 13.9472 31.063 14.0912 31.063C14.2352 31.063 14.2627 31.0287 14.2627 30.8572C14.2627 30.6858 14.2352 30.6515 14.0912 30.6515C13.9472 30.6515 13.9198 30.6858 13.9198 30.8572Z" fill="#AD4A3E"/>
<path d="M15.9084 29.8492C15.9084 30.0618 15.9427 30.0892 16.1484 30.0481C16.2718 30.0275 16.3198 29.9727 16.3198 29.8561C16.3198 29.719 16.2855 29.6915 16.1141 29.6915C15.9427 29.6915 15.9084 29.719 15.9084 29.8492Z" fill="#AD4A3E"/>
<path d="M16.4021 29.8767C16.4158 30.0275 16.4569 30.0687 16.5941 30.0687C16.7312 30.0687 16.7724 30.0275 16.7861 29.8767C16.8067 29.7121 16.7861 29.6915 16.5941 29.6915C16.4021 29.6915 16.3815 29.7121 16.4021 29.8767Z" fill="#AD4A3E"/>
<path d="M15.9084 30.3772C15.9084 30.5624 15.9289 30.583 16.1141 30.583C16.2992 30.583 16.3198 30.5624 16.3198 30.3772C16.3198 30.1921 16.2992 30.1715 16.1141 30.1715C15.9289 30.1715 15.9084 30.1921 15.9084 30.3772Z" fill="#AD4A3E"/>
<path d="M16.4021 30.3567C16.4158 30.5075 16.4638 30.5555 16.6147 30.5692C16.7792 30.5898 16.7998 30.5692 16.7998 30.3841C16.7998 30.1921 16.7792 30.1715 16.5872 30.1715C16.4021 30.1715 16.3815 30.1921 16.4021 30.3567Z" fill="#AD4A3E"/>
<path d="M15.9084 30.8572C15.9084 31.0424 15.9289 31.063 16.1141 31.063C16.2992 31.063 16.3198 31.0424 16.3198 30.8572C16.3198 30.6721 16.2992 30.6515 16.1141 30.6515C15.9289 30.6515 15.9084 30.6721 15.9084 30.8572Z" fill="#AD4A3E"/>
<path d="M16.3884 30.8572C16.3884 31.0424 16.4089 31.063 16.5941 31.063C16.7792 31.063 16.7998 31.0424 16.7998 30.8572C16.7998 30.6721 16.7792 30.6515 16.5941 30.6515C16.4089 30.6515 16.3884 30.6721 16.3884 30.8572Z" fill="#AD4A3E"/>
<path d="M18.4455 29.863C18.4455 30.0001 18.4798 30.0344 18.6169 30.0344C18.7541 30.0344 18.7884 30.0001 18.7884 29.863C18.7884 29.7258 18.7541 29.6915 18.6169 29.6915C18.4798 29.6915 18.4455 29.7258 18.4455 29.863Z" fill="#AD4A3E"/>
<path d="M18.9255 29.863C18.9255 30.007 18.9598 30.0344 19.1312 30.0344C19.3027 30.0344 19.3369 30.007 19.3369 29.863C19.3369 29.719 19.3027 29.6915 19.1312 29.6915C18.9598 29.6915 18.9255 29.719 18.9255 29.863Z" fill="#AD4A3E"/>
<path d="M18.4455 30.3772C18.4455 30.5487 18.4729 30.583 18.6169 30.583C18.7609 30.583 18.7884 30.5487 18.7884 30.3772C18.7884 30.2058 18.7609 30.1715 18.6169 30.1715C18.4729 30.1715 18.4455 30.2058 18.4455 30.3772Z" fill="#AD4A3E"/>
<path d="M18.9255 30.3772C18.9255 30.5624 18.9461 30.583 19.1312 30.583C19.3164 30.583 19.3369 30.5624 19.3369 30.3772C19.3369 30.1921 19.3164 30.1715 19.1312 30.1715C18.9461 30.1715 18.9255 30.1921 18.9255 30.3772Z" fill="#AD4A3E"/>
<path d="M18.4455 30.8572C18.4455 31.0287 18.4729 31.063 18.6169 31.063C18.7609 31.063 18.7884 31.0287 18.7884 30.8572C18.7884 30.6858 18.7609 30.6515 18.6169 30.6515C18.4729 30.6515 18.4455 30.6858 18.4455 30.8572Z" fill="#AD4A3E"/>
<path d="M18.9255 30.8572C18.9255 31.0424 18.9461 31.063 19.1312 31.063C19.3164 31.063 19.3369 31.0424 19.3369 30.8572C19.3369 30.6721 19.3164 30.6515 19.1312 30.6515C18.9461 30.6515 18.9255 30.6721 18.9255 30.8572Z" fill="#AD4A3E"/>
<path d="M20.9827 29.8561C20.9827 29.959 21.0307 30.0344 21.1129 30.055C21.2844 30.0961 21.3255 30.055 21.3255 29.8492C21.3255 29.7258 21.2912 29.6915 21.1541 29.6915C21.0169 29.6915 20.9827 29.7258 20.9827 29.8561Z" fill="#AD4A3E"/>
<path d="M21.4627 29.863C21.4627 29.959 21.4832 30.0344 21.5175 30.0412C21.5449 30.0412 21.6204 30.055 21.6889 30.0687C21.7781 30.0824 21.8055 30.0412 21.8055 29.8904C21.8055 29.7258 21.7781 29.6915 21.6341 29.6915C21.4969 29.6915 21.4627 29.7258 21.4627 29.863Z" fill="#AD4A3E"/>
<path d="M20.9827 30.3772C20.9827 30.5487 21.0101 30.583 21.1541 30.583C21.2981 30.583 21.3255 30.5487 21.3255 30.3772C21.3255 30.2058 21.2981 30.1715 21.1541 30.1715C21.0101 30.1715 20.9827 30.2058 20.9827 30.3772Z" fill="#AD4A3E"/>
<path d="M21.4627 30.3772C21.4627 30.5487 21.4901 30.583 21.6341 30.583C21.7781 30.583 21.8055 30.5487 21.8055 30.3772C21.8055 30.2058 21.7781 30.1715 21.6341 30.1715C21.4901 30.1715 21.4627 30.2058 21.4627 30.3772Z" fill="#AD4A3E"/>
<path d="M20.9827 30.8572C20.9827 31.0287 21.0101 31.063 21.1541 31.063C21.2981 31.063 21.3255 31.0287 21.3255 30.8572C21.3255 30.6858 21.2981 30.6515 21.1541 30.6515C21.0101 30.6515 20.9827 30.6858 20.9827 30.8572Z" fill="#AD4A3E"/>
<path d="M21.4627 30.8572C21.4627 31.0287 21.4901 31.063 21.6341 31.063C21.7781 31.063 21.8055 31.0287 21.8055 30.8572C21.8055 30.6858 21.7781 30.6515 21.6341 30.6515C21.4901 30.6515 21.4627 30.6858 21.4627 30.8572Z" fill="#AD4A3E"/>
<path d="M25.9884 29.863C25.9884 30.007 26.0227 30.0344 26.1941 30.0344C26.3655 30.0344 26.3998 30.007 26.3998 29.863C26.3998 29.719 26.3655 29.6915 26.1941 29.6915C26.0227 29.6915 25.9884 29.719 25.9884 29.863Z" fill="#AD4A3E"/>
<path d="M26.4684 29.863C26.4684 30.007 26.5027 30.0344 26.6741 30.0344C26.8455 30.0344 26.8798 30.007 26.8798 29.863C26.8798 29.719 26.8455 29.6915 26.6741 29.6915C26.5027 29.6915 26.4684 29.719 26.4684 29.863Z" fill="#AD4A3E"/>
<path d="M25.9884 30.3772C25.9884 30.5624 26.0089 30.583 26.1941 30.583C26.3792 30.583 26.3998 30.5624 26.3998 30.3772C26.3998 30.1921 26.3792 30.1715 26.1941 30.1715C26.0089 30.1715 25.9884 30.1921 25.9884 30.3772Z" fill="#AD4A3E"/>
<path d="M26.4684 30.3772C26.4684 30.5624 26.4889 30.583 26.6741 30.583C26.8592 30.583 26.8798 30.5624 26.8798 30.3772C26.8798 30.1921 26.8592 30.1715 26.6741 30.1715C26.4889 30.1715 26.4684 30.1921 26.4684 30.3772Z" fill="#AD4A3E"/>
<path d="M25.9884 30.8572C25.9884 31.0424 26.0089 31.063 26.1941 31.063C26.3792 31.063 26.3998 31.0424 26.3998 30.8572C26.3998 30.6721 26.3792 30.6515 26.1941 30.6515C26.0089 30.6515 25.9884 30.6721 25.9884 30.8572Z" fill="#AD4A3E"/>
<path d="M26.4684 30.8572C26.4684 31.0424 26.4889 31.063 26.6741 31.063C26.8592 31.063 26.8798 31.0424 26.8798 30.8572C26.8798 30.6721 26.8592 30.6515 26.6741 30.6515C26.4889 30.6515 26.4684 30.6721 26.4684 30.8572Z" fill="#AD4A3E"/>
<path d="M28.5255 29.863C28.5255 30.0001 28.5598 30.0344 28.6969 30.0344C28.8341 30.0344 28.8684 30.0001 28.8684 29.863C28.8684 29.7258 28.8341 29.6915 28.6969 29.6915C28.5598 29.6915 28.5255 29.7258 28.5255 29.863Z" fill="#AD4A3E"/>
<path d="M29.0055 29.863C29.0055 30.007 29.0398 30.0344 29.2112 30.0344C29.3827 30.0344 29.4169 30.007 29.4169 29.863C29.4169 29.719 29.3827 29.6915 29.2112 29.6915C29.0398 29.6915 29.0055 29.719 29.0055 29.863Z" fill="#AD4A3E"/>
<path d="M28.5255 30.3772C28.5255 30.5487 28.5529 30.583 28.6969 30.583C28.8409 30.583 28.8684 30.5487 28.8684 30.3772C28.8684 30.2058 28.8409 30.1715 28.6969 30.1715C28.5529 30.1715 28.5255 30.2058 28.5255 30.3772Z" fill="#AD4A3E"/>
<path d="M29.0055 30.3841C29.0055 30.5692 29.0261 30.5898 29.1975 30.5692C29.3415 30.5555 29.3895 30.5075 29.4032 30.3567C29.4238 30.1921 29.4032 30.1715 29.2181 30.1715C29.0261 30.1715 29.0055 30.1921 29.0055 30.3841Z" fill="#AD4A3E"/>
<path d="M28.5255 30.8572C28.5255 31.0287 28.5529 31.063 28.6969 31.063C28.8409 31.063 28.8684 31.0287 28.8684 30.8572C28.8684 30.6858 28.8409 30.6515 28.6969 30.6515C28.5529 30.6515 28.5255 30.6858 28.5255 30.8572Z" fill="#AD4A3E"/>
<path d="M29.0055 30.8572C29.0055 31.0424 29.0261 31.063 29.2112 31.063C29.3964 31.063 29.4169 31.0424 29.4169 30.8572C29.4169 30.6721 29.3964 30.6515 29.2112 30.6515C29.0261 30.6515 29.0055 30.6721 29.0055 30.8572Z" fill="#AD4A3E"/>
<path d="M31.0627 29.8561C31.0627 29.959 31.1107 30.0344 31.1929 30.055C31.3644 30.0961 31.4055 30.055 31.4055 29.8492C31.4055 29.7258 31.3712 29.6915 31.2341 29.6915C31.0969 29.6915 31.0627 29.7258 31.0627 29.8561Z" fill="#AD4A3E"/>
<path d="M31.5427 29.863C31.5427 30.0001 31.5769 30.0344 31.7141 30.0344C31.8512 30.0344 31.8855 30.0001 31.8855 29.863C31.8855 29.7258 31.8512 29.6915 31.7141 29.6915C31.5769 29.6915 31.5427 29.7258 31.5427 29.863Z" fill="#AD4A3E"/>
<path d="M31.0627 30.3772C31.0627 30.5487 31.0901 30.583 31.2341 30.583C31.3781 30.583 31.4055 30.5487 31.4055 30.3772C31.4055 30.2058 31.3781 30.1715 31.2341 30.1715C31.0901 30.1715 31.0627 30.2058 31.0627 30.3772Z" fill="#AD4A3E"/>
<path d="M31.5427 30.3772C31.5427 30.5487 31.5701 30.583 31.7141 30.583C31.8581 30.583 31.8855 30.5487 31.8855 30.3772C31.8855 30.2058 31.8581 30.1715 31.7141 30.1715C31.5701 30.1715 31.5427 30.2058 31.5427 30.3772Z" fill="#AD4A3E"/>
<path d="M31.0627 30.8572C31.0627 31.0287 31.0901 31.063 31.2341 31.063C31.3781 31.063 31.4055 31.0287 31.4055 30.8572C31.4055 30.6858 31.3781 30.6515 31.2341 30.6515C31.0901 30.6515 31.0627 30.6858 31.0627 30.8572Z" fill="#AD4A3E"/>
<path d="M31.5427 30.8572C31.5427 31.0287 31.5701 31.063 31.7141 31.063C31.8581 31.063 31.8855 31.0287 31.8855 30.8572C31.8855 30.6858 31.8581 30.6515 31.7141 30.6515C31.5701 30.6515 31.5427 30.6858 31.5427 30.8572Z" fill="#AD4A3E"/>
<path d="M33.5312 29.863C33.5312 30.007 33.5655 30.0344 33.7369 30.0344C33.9084 30.0344 33.9427 30.007 33.9427 29.863C33.9427 29.719 33.9084 29.6915 33.7369 29.6915C33.5655 29.6915 33.5312 29.719 33.5312 29.863Z" fill="#AD4A3E"/>
<path d="M34.0798 29.863C34.0798 30.0001 34.1141 30.0344 34.2512 30.0344C34.3884 30.0344 34.4227 30.0001 34.4227 29.863C34.4227 29.7258 34.3884 29.6915 34.2512 29.6915C34.1141 29.6915 34.0798 29.7258 34.0798 29.863Z" fill="#AD4A3E"/>
<path d="M33.5449 30.3567C33.5587 30.5075 33.6067 30.5555 33.7575 30.5692C33.9221 30.5898 33.9427 30.5692 33.9427 30.3841C33.9427 30.1921 33.9221 30.1715 33.7301 30.1715C33.5449 30.1715 33.5244 30.1921 33.5449 30.3567Z" fill="#AD4A3E"/>
<path d="M34.0798 30.3772C34.0798 30.5487 34.1072 30.583 34.2512 30.583C34.3952 30.583 34.4227 30.5487 34.4227 30.3772C34.4227 30.2058 34.3952 30.1715 34.2512 30.1715C34.1072 30.1715 34.0798 30.2058 34.0798 30.3772Z" fill="#AD4A3E"/>
<path d="M33.5312 30.8572C33.5312 31.0424 33.5518 31.063 33.7369 31.063C33.9221 31.063 33.9427 31.0424 33.9427 30.8572C33.9427 30.6721 33.9221 30.6515 33.7369 30.6515C33.5518 30.6515 33.5312 30.6721 33.5312 30.8572Z" fill="#AD4A3E"/>
<path d="M34.0798 30.8572C34.0798 31.0287 34.1072 31.063 34.2512 31.063C34.3952 31.063 34.4227 31.0287 34.4227 30.8572C34.4227 30.6858 34.3952 30.6515 34.2512 30.6515C34.1072 30.6515 34.0798 30.6858 34.0798 30.8572Z" fill="#AD4A3E"/>
<path d="M36.0684 29.8835C36.0684 30.0481 36.0958 30.0755 36.2261 30.0618C36.3084 30.055 36.3975 30.0412 36.4318 30.0412C36.4592 30.0344 36.4798 29.959 36.4798 29.863C36.4798 29.719 36.4455 29.6915 36.2741 29.6915C36.0958 29.6915 36.0684 29.719 36.0684 29.8835Z" fill="#AD4A3E"/>
<path d="M36.5484 29.863C36.5484 30.007 36.5827 30.0344 36.7541 30.0344C36.9255 30.0344 36.9598 30.007 36.9598 29.863C36.9598 29.719 36.9255 29.6915 36.7541 29.6915C36.5827 29.6915 36.5484 29.719 36.5484 29.863Z" fill="#AD4A3E"/>
<path d="M36.0684 30.3772C36.0684 30.5624 36.0889 30.583 36.2741 30.583C36.4592 30.583 36.4798 30.5624 36.4798 30.3772C36.4798 30.1921 36.4592 30.1715 36.2741 30.1715C36.0889 30.1715 36.0684 30.1921 36.0684 30.3772Z" fill="#AD4A3E"/>
<path d="M36.5484 30.3772C36.5484 30.5624 36.5689 30.583 36.7541 30.583C36.9392 30.583 36.9598 30.5624 36.9598 30.3772C36.9598 30.1921 36.9392 30.1715 36.7541 30.1715C36.5689 30.1715 36.5484 30.1921 36.5484 30.3772Z" fill="#AD4A3E"/>
<path d="M36.0684 30.8572C36.0684 31.0424 36.0889 31.063 36.2741 31.063C36.4592 31.063 36.4798 31.0424 36.4798 30.8572C36.4798 30.6721 36.4592 30.6515 36.2741 30.6515C36.0889 30.6515 36.0684 30.6721 36.0684 30.8572Z" fill="#AD4A3E"/>
<path d="M36.5484 30.8572C36.5484 31.0424 36.5689 31.063 36.7541 31.063C36.9392 31.063 36.9598 31.0424 36.9598 30.8572C36.9598 30.6721 36.9392 30.6515 36.7541 30.6515C36.5689 30.6515 36.5484 30.6721 36.5484 30.8572Z" fill="#AD4A3E"/>
<path d="M38.6055 29.863C38.6055 30.0001 38.6398 30.0344 38.7769 30.0344C38.9141 30.0344 38.9484 30.0001 38.9484 29.863C38.9484 29.7258 38.9141 29.6915 38.7769 29.6915C38.6398 29.6915 38.6055 29.7258 38.6055 29.863Z" fill="#AD4A3E"/>
<path d="M39.0855 29.8835C39.0855 30.0481 39.1129 30.0755 39.2432 30.0687C39.3529 30.0618 39.4009 30.007 39.4147 29.8767C39.4352 29.719 39.4147 29.6915 39.2638 29.6915C39.1129 29.6915 39.0855 29.7258 39.0855 29.8835Z" fill="#AD4A3E"/>
<path d="M38.6055 30.3772C38.6055 30.5487 38.6329 30.583 38.7769 30.583C38.9209 30.583 38.9484 30.5487 38.9484 30.3772C38.9484 30.2058 38.9209 30.1715 38.7769 30.1715C38.6329 30.1715 38.6055 30.2058 38.6055 30.3772Z" fill="#AD4A3E"/>
<path d="M39.0855 30.3772C39.0855 30.5487 39.1129 30.583 39.2501 30.583C39.4284 30.583 39.4969 30.487 39.4421 30.2881C39.4215 30.2195 39.3461 30.1715 39.2501 30.1715C39.1129 30.1715 39.0855 30.2058 39.0855 30.3772Z" fill="#AD4A3E"/>
<path d="M38.6055 30.8572C38.6055 31.0287 38.6329 31.063 38.7769 31.063C38.9209 31.063 38.9484 31.0287 38.9484 30.8572C38.9484 30.6858 38.9209 30.6515 38.7769 30.6515C38.6329 30.6515 38.6055 30.6858 38.6055 30.8572Z" fill="#AD4A3E"/>
<path d="M39.0855 30.8572C39.0855 31.0287 39.1129 31.063 39.2501 31.063C39.3461 31.063 39.4215 31.015 39.4421 30.9395C39.4969 30.7475 39.4284 30.6515 39.2501 30.6515C39.1129 30.6515 39.0855 30.6858 39.0855 30.8572Z" fill="#AD4A3E"/>
<path d="M10.9027 32.4687C10.9027 32.9007 10.9095 32.9144 11.0741 32.9144C11.2387 32.9144 11.2455 32.9007 11.2455 32.4687C11.2455 32.0367 11.2387 32.023 11.0741 32.023C10.9095 32.023 10.9027 32.0367 10.9027 32.4687Z" fill="#AD4A3E"/>
<path d="M11.3827 32.4687C11.3827 32.9007 11.3895 32.9144 11.5541 32.9144C11.7187 32.9144 11.7255 32.9007 11.7255 32.4687C11.7255 32.0367 11.7187 32.023 11.5541 32.023C11.3895 32.023 11.3827 32.0367 11.3827 32.4687Z" fill="#AD4A3E"/>
<path d="M13.4398 32.4687C13.4398 32.9007 13.4467 32.9144 13.6112 32.9144C13.7758 32.9144 13.7827 32.9007 13.7827 32.4687C13.7827 32.0367 13.7758 32.023 13.6112 32.023C13.4467 32.023 13.4398 32.0367 13.4398 32.4687Z" fill="#AD4A3E"/>
<path d="M13.9198 32.4687C13.9198 32.9007 13.9267 32.9144 14.0912 32.9144C14.2558 32.9144 14.2627 32.9007 14.2627 32.4687C14.2627 32.0367 14.2558 32.023 14.0912 32.023C13.9267 32.023 13.9198 32.0367 13.9198 32.4687Z" fill="#AD4A3E"/>
<path d="M34.0798 32.4687C34.0798 32.9007 34.0867 32.9144 34.2512 32.9144C34.4158 32.9144 34.4227 32.9007 34.4227 32.4687C34.4227 32.0367 34.4158 32.023 34.2512 32.023C34.0867 32.023 34.0798 32.0367 34.0798 32.4687Z" fill="#AD4A3E"/>
<path d="M36.0684 32.9144H36.4798V32.023H36.0684V32.9144Z" fill="#AD4A3E"/>
<path d="M36.5484 32.9144H36.9598V32.023H36.5484V32.9144Z" fill="#AD4A3E"/>
<path d="M21.2981 36.7201C21.2364 36.8161 21.0924 36.9121 20.9827 36.9395C20.8387 36.967 20.7769 37.015 20.7769 37.1041C20.7769 37.207 20.8318 37.2344 21.0512 37.2344H21.3255V37.8858C21.3255 38.5372 21.3255 38.5372 21.4969 38.5372H21.6684V37.543C21.6684 36.6172 21.6615 36.5487 21.5381 36.5487C21.4695 36.5487 21.3598 36.6241 21.2981 36.7201Z" fill="#AD4A3E"/>
<path d="M22.5324 36.6927C22.3061 36.871 22.2855 37.2481 22.4981 37.3921C22.6421 37.495 22.6421 37.495 22.5049 37.5361C22.4295 37.5635 22.3335 37.6801 22.2924 37.7967C22.1964 38.0778 22.3129 38.3247 22.6284 38.4892C23.3347 38.8527 24.1301 38.0984 23.5815 37.5841C23.4649 37.4744 23.4581 37.4538 23.5541 37.3715C23.6089 37.3235 23.6569 37.1864 23.6569 37.063C23.6569 36.7544 23.3964 36.5487 23.0055 36.5487C22.8135 36.5487 22.6558 36.5967 22.5324 36.6927ZM23.3004 37.015C23.3278 37.2138 23.2044 37.3715 23.0124 37.3715C22.8204 37.3715 22.6969 37.2481 22.6969 37.0561C22.6969 36.8778 22.7929 36.823 23.0741 36.8435C23.2318 36.8572 23.2867 36.8915 23.3004 37.015ZM23.3004 37.7281C23.4444 37.8721 23.3964 38.1121 23.2044 38.2424C23.0398 38.3452 23.0055 38.3452 22.8409 38.2561C22.6421 38.1464 22.5735 37.8995 22.6969 37.7418C22.7998 37.6252 23.1838 37.6115 23.3004 37.7281Z" fill="#AD4A3E"/>
<path d="M24.1781 36.6995C24.0889 36.7887 23.9929 36.9258 23.9655 37.0081C23.9244 37.1452 23.9449 37.1658 24.1164 37.1658C24.2535 37.1658 24.3289 37.1178 24.3769 37.0081C24.4592 36.823 24.8021 36.7955 24.9187 36.9738C25.0147 37.1315 24.8981 37.3304 24.6924 37.3578C24.4729 37.3921 24.5072 37.6184 24.7472 37.6664C24.9804 37.7144 25.0558 37.9201 24.9118 38.119C24.7404 38.3658 24.2741 38.2424 24.2741 37.9475C24.2741 37.8927 24.2055 37.8515 24.1027 37.8515C23.9724 37.8515 23.9312 37.8858 23.9312 38.0092C23.9312 38.4138 24.4524 38.695 24.9187 38.5372C25.0558 38.4961 25.2135 38.3932 25.2684 38.311C25.4192 38.0984 25.3987 37.7418 25.2341 37.591C25.1107 37.4744 25.1038 37.4538 25.1998 37.3715C25.3712 37.2275 25.3301 36.8572 25.1244 36.6927C24.8707 36.4938 24.4044 36.5007 24.1781 36.6995Z" fill="#AD4A3E"/>
<path d="M25.9678 37.1521C25.7141 37.4881 25.5084 37.8241 25.5084 37.9064C25.5084 38.0435 25.5427 38.0572 25.9541 38.0572H26.3998V38.2972C26.3998 38.5098 26.4204 38.5372 26.5712 38.5372C26.7152 38.5372 26.7427 38.503 26.7427 38.3247C26.7427 38.1738 26.7769 38.1052 26.8798 38.0778C26.9552 38.0572 27.0169 37.9887 27.0169 37.9201C27.0169 37.8515 26.9552 37.783 26.8798 37.7624C26.7564 37.7281 26.7427 37.6664 26.7427 37.1384C26.7427 36.5692 26.7358 36.5487 26.5849 36.5487C26.4615 36.5487 26.3107 36.6995 25.9678 37.1521ZM26.3792 37.7624C26.3587 37.7761 26.2284 37.783 26.0912 37.7692L25.8375 37.7487L26.1049 37.4058L26.3655 37.063L26.3861 37.399C26.3998 37.5772 26.3929 37.7418 26.3792 37.7624Z" fill="#AD4A3E"/>
<path d="M38.3655 37.4401C38.3038 37.5567 38.2764 37.6801 38.2969 37.7144C38.4272 37.927 38.7907 37.5841 38.6672 37.3578C38.5712 37.1795 38.4889 37.207 38.3655 37.4401Z" fill="#AD4A3E"/>
<path d="M11.5884 39.4218C11.5884 39.4561 11.6844 39.5521 11.7941 39.6344C11.9724 39.7647 12.0067 39.7647 12.0409 39.6755C12.0684 39.6138 12.0478 39.5178 11.9998 39.463C11.9038 39.3532 11.5884 39.319 11.5884 39.4218Z" fill="#AD4A3E"/>
<path d="M34.1964 40.3064C34.0592 40.4572 34.0455 40.5944 34.1689 40.5944C34.3129 40.5875 34.5804 40.3407 34.5324 40.2584C34.4638 40.1487 34.3198 40.1624 34.1964 40.3064Z" fill="#AD4A3E"/>
<path d="M31.2478 41.8424C31.1724 41.9041 31.1381 41.9795 31.1655 42.055C31.2067 42.1578 31.2272 42.1578 31.4192 42.0618C31.6249 41.959 31.6455 41.8081 31.4672 41.7738C31.4124 41.767 31.3164 41.7944 31.2478 41.8424Z" fill="#AD4A3E"/>
<path d="M31.4947 42.3224C31.3232 42.4047 31.3095 42.4321 31.4055 42.583C31.4947 42.727 31.8512 42.5898 31.8512 42.4115C31.8512 42.2538 31.7072 42.2195 31.4947 42.3224Z" fill="#AD4A3E"/>
<path d="M29.6638 42.4801C29.5472 42.6035 29.5198 42.7201 29.6158 42.7201C29.7735 42.7201 30.1027 42.5555 30.0821 42.487C30.0409 42.3635 29.7872 42.3567 29.6638 42.4801Z" fill="#AD4A3E"/>
<path d="M17.2729 43.0355C17.1975 43.1315 17.2044 43.159 17.3141 43.2412C17.4992 43.3784 17.5952 43.3578 17.7255 43.1795C17.8284 43.0355 17.8215 43.0287 17.6775 42.9807C17.4238 42.9121 17.3689 42.919 17.2729 43.0355Z" fill="#AD4A3E"/>
<path d="M19.1038 43.0767C18.9667 43.2687 18.9598 43.5704 19.0901 43.6801C19.3712 43.9064 19.7689 43.5087 19.6387 43.1384C19.5495 42.8915 19.2547 42.8572 19.1038 43.0767Z" fill="#AD4A3E"/>
<path d="M20.6878 43.8447C20.6329 43.9887 20.8181 44.1121 21.0169 44.0641C21.1267 44.0367 21.1884 43.975 21.1884 43.8858C21.1884 43.7761 21.1404 43.7487 20.9552 43.7487C20.8181 43.7487 20.7084 43.7898 20.6878 43.8447Z" fill="#AD4A3E"/>
<path d="M24.1918 43.9612C23.9449 44.0984 24.1232 44.3521 24.3975 44.2492C24.6512 44.1532 24.6992 43.8858 24.4661 43.8858C24.3769 43.8858 24.2535 43.9201 24.1918 43.9612Z" fill="#AD4A3E"/>
</svg>
