<svg width="24" height="24" viewBox="0 0 24 24" fill="none" xmlns="http://www.w3.org/2000/svg">
<g clip-path="url(#clip0_464_180)">
<path d="M22.5093 13.7596C22.1385 13.2477 21.9388 12.6317 21.9388 11.9996C21.9388 11.3675 22.1385 10.7515 22.5093 10.2396L23.2693 9.18962C23.3623 9.06141 23.4234 8.91296 23.4478 8.75649C23.4721 8.60002 23.4589 8.44001 23.4093 8.28962C23.3593 8.14081 23.2754 8.00561 23.1644 7.89458C23.0534 7.78356 22.9182 7.69972 22.7693 7.64962L21.5394 7.24962C20.9368 7.05526 20.4116 6.67447 20.0395 6.16222C19.6675 5.64996 19.4678 5.03274 19.4693 4.39962V3.09962C19.4692 2.94179 19.4318 2.78622 19.36 2.64565C19.2882 2.50507 19.1842 2.38348 19.0564 2.29082C18.9286 2.19816 18.7808 2.13706 18.6248 2.11252C18.4689 2.08798 18.3094 2.10069 18.1593 2.14962L16.9193 2.54962C16.3174 2.74442 15.6692 2.7439 15.0675 2.54813C14.4658 2.35236 13.9415 1.97137 13.5693 1.45962L12.8093 0.409624C12.7123 0.287933 12.5891 0.18967 12.4489 0.122136C12.3086 0.0546011 12.155 0.0195312 11.9993 0.0195312C11.8437 0.0195312 11.6901 0.0546011 11.5498 0.122136C11.4096 0.18967 11.2864 0.287933 11.1893 0.409624L10.4293 1.45962C10.0572 1.97137 9.53288 2.35236 8.9312 2.54813C8.32952 2.7439 7.68135 2.74442 7.07936 2.54962L5.83936 2.14962C5.6893 2.10069 5.52979 2.08798 5.37387 2.11252C5.21796 2.13706 5.07006 2.19816 4.94229 2.29082C4.81452 2.38348 4.71049 2.50507 4.63872 2.64565C4.56695 2.78622 4.52948 2.94179 4.52936 3.09962V4.39962C4.53089 5.03274 4.33122 5.64996 3.95916 6.16222C3.5871 6.67447 3.0619 7.05526 2.45936 7.24962L1.22936 7.64962C1.08055 7.69972 0.945349 7.78356 0.834323 7.89458C0.723297 8.00561 0.639458 8.14081 0.589362 8.28962C0.539773 8.44001 0.526607 8.60002 0.550946 8.75649C0.575286 8.91296 0.636435 9.06141 0.729362 9.18962L1.48936 10.2396C1.8602 10.7515 2.05987 11.3675 2.05987 11.9996C2.05987 12.6317 1.8602 13.2477 1.48936 13.7596L0.729362 14.8096C0.636435 14.9378 0.575286 15.0863 0.550946 15.2427C0.526607 15.3992 0.539773 15.5592 0.589362 15.7096C0.639458 15.8584 0.723297 15.9936 0.834323 16.1047C0.945349 16.2157 1.08055 16.2995 1.22936 16.3496L2.45936 16.7496C3.0619 16.944 3.5871 17.3248 3.95916 17.837C4.33122 18.3493 4.53089 18.9665 4.52936 19.5996V20.8996C4.52948 21.0574 4.56695 21.213 4.63872 21.3536C4.71049 21.4942 4.81452 21.6158 4.94229 21.7084C5.07006 21.8011 5.21796 21.8622 5.37387 21.8867C5.52979 21.9113 5.6893 21.8985 5.83936 21.8496L7.06936 21.4496C7.67263 21.2515 8.32326 21.2504 8.92723 21.4463C9.53121 21.6422 10.0572 22.0251 10.4293 22.5396L11.1893 23.5896C11.2827 23.7167 11.4047 23.8201 11.5454 23.8913C11.6861 23.9626 11.8416 23.9997 11.9993 23.9997C12.1571 23.9997 12.3126 23.9626 12.4533 23.8913C12.594 23.8201 12.716 23.7167 12.8093 23.5896L13.5693 22.5396C13.9421 22.0258 14.4682 21.6435 15.0719 21.4477C15.6757 21.2518 16.326 21.2525 16.9293 21.4496L18.1593 21.8496C18.3094 21.8985 18.4689 21.9113 18.6248 21.8867C18.7808 21.8622 18.9286 21.8011 19.0564 21.7084C19.1842 21.6158 19.2882 21.4942 19.36 21.3536C19.4318 21.213 19.4692 21.0574 19.4693 20.8996V19.5996C19.4678 18.9665 19.6675 18.3493 20.0395 17.837C20.4116 17.3248 20.9368 16.944 21.5394 16.7496L22.7693 16.3496C22.9182 16.2995 23.0534 16.2157 23.1644 16.1047C23.2754 15.9936 23.3593 15.8584 23.4093 15.7096C23.4589 15.5592 23.4721 15.3992 23.4478 15.2427C23.4234 15.0863 23.3623 14.9378 23.2693 14.8096L22.5093 13.7596ZM16.7093 10.7066L11.7093 15.7066C11.5218 15.8941 11.2675 15.9994 11.0023 15.9994C10.7372 15.9994 10.4829 15.8941 10.2953 15.7066L7.29536 12.7066C7.19985 12.6144 7.12367 12.504 7.07126 12.382C7.01885 12.26 6.99126 12.1288 6.99011 11.996C6.98896 11.8632 7.01426 11.7316 7.06454 11.6087C7.11482 11.4858 7.18907 11.3741 7.28296 11.2802C7.37686 11.1863 7.48851 11.1121 7.61141 11.0618C7.7343 11.0115 7.86598 10.9862 7.99876 10.9874C8.13154 10.9885 8.26276 11.0161 8.38476 11.0685C8.50677 11.1209 8.61711 11.1971 8.70936 11.2926L10.9993 13.5856L15.2923 9.29262C15.481 9.11046 15.7336 9.00967 15.9958 9.01195C16.2579 9.01423 16.5088 9.1194 16.6942 9.3048C16.8796 9.49021 16.9847 9.74102 16.987 10.0032C16.9893 10.2654 16.8885 10.518 16.7064 10.7066H16.7093Z" fill="#00D4C3" fill-opacity="0.2"/>
<path d="M16.7095 10.7064L11.7095 15.7064C11.522 15.8939 11.2677 15.9992 11.0025 15.9992C10.7374 15.9992 10.4831 15.8939 10.2955 15.7064L7.29552 12.7064C7.20001 12.6142 7.12383 12.5038 7.07142 12.3818C7.01901 12.2598 6.99142 12.1286 6.99027 11.9958C6.98912 11.863 7.01442 11.7314 7.0647 11.6085C7.11498 11.4856 7.18923 11.3739 7.28312 11.28C7.37702 11.1861 7.48867 11.1119 7.61157 11.0616C7.73446 11.0113 7.86614 10.986 7.99892 10.9872C8.1317 10.9883 8.26292 11.0159 8.38492 11.0683C8.50693 11.1207 8.61727 11.1969 8.70952 11.2924L10.9995 13.5854L15.2925 9.29243C15.4812 9.11027 15.7338 9.00948 15.996 9.01176C16.2581 9.01404 16.509 9.11921 16.6944 9.30461C16.8798 9.49002 16.9849 9.74083 16.9872 10.003C16.9895 10.2652 16.8887 10.5178 16.7066 10.7064H16.7095Z" fill="#00D4C3"/>
</g>
<defs>
<clipPath id="clip0_464_180">
<rect width="24" height="24" fill="white"/>
</clipPath>
</defs>
</svg>
